
CASCADE Topology V3, (c) Open Cascade
Locations 0
Curve2ds 0
Curves 345
1 423.75256300000001 10.080833999999999 0 0 1 0 
1 423.75256300000001 10.480834 0 -1 0 0 
1 420.22967499999999 10.480834 0 0 1 0 
1 420.22967499999999 14.431061 0 0 1 0 
1 420.22967499999999 18.381288999999999 0 0 1 0 
1 420.22967499999999 22.331516000000001 0 0 1 0 
1 420.22967499999999 26.281742000000001 0 1 0 0 
1 423.35711700000002 26.281742000000001 0 1 0 0 
1 426.48455799999999 26.281742000000001 0 1 0 0 
1 429.61200000000002 26.281742000000001 0 0 -1 0 
1 429.61200000000002 21.857386000000002 0 0 -1 0 
1 429.61200000000002 17.433026999999999 0 0 -1 0 
1 429.61200000000002 13.008671 0 1 0 0 
1 430.89547700000003 13.008671 0 0 1 0 
1 430.89547700000003 13.408671 0 -1 0 0 
1 430.01199300000002 13.408671 0 0 1 0 
1 430.01199300000002 17.141601999999999 0 1 0 0 
1 431.94921900000003 17.141601999999999 0 0 -1 0 
1 431.94921900000003 13.208672 0 1 0 0 
1 432.34921300000002 13.208672 0 0 1 0 
1 432.34921300000002 17.141601999999999 0 1 0 0 
1 434.23113999999998 17.141601999999999 0 0 -1 0 
1 434.23113999999998 13.408671 0 -1 0 0 
1 433.25707999999997 13.408671 0 0 -1 0 
1 433.25707999999997 13.008671 0 1 0 0 
1 434.63116500000001 13.008671 0 0 1 0 
1 434.63116500000001 16.253423999999999 0 0 1 0 
1 434.63116500000001 19.498177999999999 0 -1 0 0 
1 434.23113999999998 19.498177999999999 0 0 -1 0 
1 434.23113999999998 17.541601 0 -1 0 0 
1 430.01199300000002 17.541601 0 0 1 0 
1 430.01199300000002 20.626301000000002 0 1 0 0 
1 434.431152 20.626301000000002 0 0 1 0 
1 434.431152 21.026299999999999 0 -1 0 0 
1 430.01199300000002 21.026299999999999 0 0 1 0 
1 430.01199300000002 23.654022000000001 0 0 1 0 
1 430.01199300000002 26.281742000000001 0 1 0 0 
1 434.23113999999998 26.281742000000001 0 0 -1 0 
1 434.23113999999998 22.243824 0 1 0 0 
1 434.63116500000001 22.243824 0 0 1 0 
1 434.63116500000001 26.281742000000001 0 1 0 0 
1 437.60299700000002 26.281742000000001 0 1 0 0 
1 440.57486 26.281742000000001 0 1 0 0 
1 443.54672199999999 26.281742000000001 0 0 -1 0 
1 443.54672199999999 22.971610999999999 0 -1 0 0 
1 440.37023900000003 22.971610999999999 0 -1 0 0 
1 437.19375600000001 22.971610999999999 0 0 1 0 
1 437.19375600000001 24.590651000000001 0 -1 0 0 
1 436.79376200000002 24.590651000000001 0 0 -1 0 
1 436.79376200000002 22.571611000000001 0 1 0 0 
1 440.17025799999999 22.571611000000001 0 1 0 0 
1 443.54672199999999 22.571611000000001 0 0 -1 0 
1 443.54672199999999 19.730599999999999 0 -1 0 0 
1 440.37023900000003 19.730599999999999 0 -1 0 0 
1 437.19375600000001 19.730599999999999 0 0 1 0 
1 437.19375600000001 21.349637999999999 0 -1 0 0 
1 436.79376200000002 21.349637999999999 0 0 -1 0 
1 436.79376200000002 19.330601000000001 0 1 0 0 
1 440.17025799999999 19.330601000000001 0 1 0 0 
1 443.54672199999999 19.330601000000001 0 0 -1 0 
1 443.54672199999999 16.682026 0 -1 0 0 
1 440.37023900000003 16.682026 0 -1 0 0 
1 437.19375600000001 16.682026 0 0 1 0 
1 437.19375600000001 18.301064 0 -1 0 0 
1 436.79376200000002 18.301064 0 0 -1 0 
1 436.79376200000002 16.282025999999998 0 1 0 0 
1 440.17025799999999 16.282025999999998 0 1 0 0 
1 443.54672199999999 16.282025999999998 0 0 -1 0 
1 443.54672199999999 13.408671 0 -1 0 0 
1 440.40014600000001 13.408671 0 -1 0 0 
1 437.25357100000002 13.408671 0 0 1 0 
1 437.25357100000002 15.015312 0 -1 0 0 
1 436.85357699999997 15.015312 0 0 -1 0 
1 436.85357699999997 13.408671 0 -1 0 0 
1 435.74185199999999 13.408671 0 0 -1 0 
1 435.74185199999999 13.008671 0 1 0 0 
1 439.74429300000003 13.008671 0 1 0 0 
1 443.746735 13.008671 0 1 0 0 
1 447.01037600000001 13.008671 0 1 0 0 
1 450.27404799999999 13.008671 0 1 0 0 
1 453.53771999999998 13.008671 0 0 1 0 
1 453.53771999999998 13.408671 0 -1 0 0 
1 450.170593 13.408671 0 -1 0 0 
1 446.80346700000001 13.408671 0 0 1 0 
1 446.80346700000001 17.699695999999999 0 0 1 0 
1 446.80346700000001 21.990718999999999 0 0 1 0 
1 446.80346700000001 26.281742000000001 0 1 0 0 
1 449.91412400000002 26.281742000000001 0 1 0 0 
1 453.024811 26.281742000000001 0 1 0 0 
1 456.135468 26.281742000000001 0 0 -1 0 
1 456.135468 21.857386000000002 0 0 -1 0 
1 456.135468 17.433026999999999 0 0 -1 0 
1 456.135468 13.008671 0 1 0 0 
1 459.72134399999999 13.008671 0 1 0 0 
1 463.30721999999997 13.008671 0 1 0 0 
1 466.89309700000001 13.008671 0 0 1 0 
1 466.89309700000001 16.354519 0 -1 0 0 
1 466.49310300000002 16.354519 0 0 -1 0 
1 466.49310300000002 13.408671 0 -1 0 0 
1 463.17086799999998 13.408671 0 -1 0 0 
1 459.84863300000001 13.408671 0 0 1 0 
1 459.84863300000001 16.154517999999999 0 1 0 0 
1 462.63119499999999 16.154517999999999 0 1 0 0 
1 465.41375699999998 16.154517999999999 0 0 1 0 
1 465.41375699999998 16.554518000000002 0 -1 0 0 
1 462.63119499999999 16.554518000000002 0 -1 0 0 
1 459.84863300000001 16.554518000000002 0 0 1 0 
1 459.84863300000001 19.796925999999999 0 0 1 0 
1 459.84863300000001 23.039335000000001 0 0 1 0 
1 459.84863300000001 26.281742000000001 0 1 0 0 
1 463.032623 26.281742000000001 0 1 0 0 
1 466.21661399999999 26.281742000000001 0 1 0 0 
1 469.40060399999999 26.281742000000001 0 0 -1 0 
1 469.40060399999999 21.857386000000002 0 0 -1 0 
1 469.40060399999999 17.433026999999999 0 0 -1 0 
1 469.40060399999999 13.008671 0 1 0 0 
1 473.34393299999999 13.008671 0 0 1 0 
1 473.34393299999999 17.433026999999999 0 0 1 0 
1 473.34393299999999 21.857386000000002 0 0 1 0 
1 473.34393299999999 26.281742000000001 0 1 0 0 
1 476.226135 26.281742000000001 0 1 0 0 
1 479.10830700000002 26.281742000000001 0 0 -1 0 
1 479.10830700000002 22.922042999999999 0 0 -1 0 
1 479.10830700000002 19.562344 0 -1 0 0 
1 474.669037 19.562344 0 0 -1 0 
1 474.669037 17.716716999999999 0 1 0 0 
1 478.40222199999999 17.716716999999999 0 0 -1 0 
1 478.40222199999999 13.408671 0 -1 0 0 
1 475.069031 13.408671 0 0 1 0 
1 475.069031 16.2973 0 -1 0 0 
1 474.669037 16.2973 0 0 -1 0 
1 474.669037 13.008671 0 1 0 0 
1 478.043091 13.008671 0 1 0 0 
1 481.417145 13.008671 0 0 1 0 
1 481.417145 16.2973 0 -1 0 0 
1 481.01711999999998 16.2973 0 0 -1 0 
1 481.01711999999998 13.408671 0 -1 0 0 
1 478.80221599999999 13.408671 0 0 1 0 
1 478.80221599999999 17.716716999999999 0 1 0 0 
1 481.417145 17.716716999999999 0 0 1 0 
1 481.417145 19.562344 0 -1 0 0 
1 479.508331 19.562344 0 0 1 0 
1 479.508331 22.922042999999999 0 0 1 0 
1 479.508331 26.281742000000001 0 1 0 0 
1 482.62905899999998 26.281742000000001 0 0 -1 0 
1 482.62905899999998 21.857386000000002 0 0 -1 0 
1 482.62905899999998 17.433026999999999 0 0 -1 0 
1 482.62905899999998 13.008671 0 1 0 0 
1 485.30358899999999 13.008671 0 1 0 0 
1 487.97808800000001 13.008671 0 0 1 0 
1 487.97808800000001 13.408671 0 -1 0 0 
1 486.354828 13.408671 0 0 1 0 
1 486.354828 17.432922000000001 0 1 0 0 
1 489.76995799999997 17.432922000000001 0 0 -1 0 
1 489.76995799999997 13.208672 0 1 0 0 
1 490.169983 13.208672 0 0 1 0 
1 490.169983 17.432922000000001 0 1 0 0 
1 494.47183200000001 17.432922000000001 0 0 1 0 
1 494.47183200000001 17.832922 0 -1 0 0 
1 490.41332999999997 17.832922 0 -1 0 0 
1 486.354828 17.832922 0 0 1 0 
1 486.354828 20.030108999999999 0 1 0 0 
1 487.91387900000001 20.030108999999999 0 0 1 0 
1 487.91387900000001 20.430111 0 -1 0 0 
1 486.354828 20.430111 0 0 1 0 
1 486.354828 23.355927000000001 0 0 1 0 
1 486.354828 26.281742000000001 0 1 0 0 
1 489.19149800000002 26.281742000000001 0 0 -1 0 
1 489.19149800000002 23.355927000000001 0 0 -1 0 
1 489.19149800000002 20.430111 0 -1 0 0 
1 489.01724200000001 20.430111 0 0 -1 0 
1 489.01724200000001 20.030108999999999 0 1 0 0 
1 490.837311 20.030108999999999 0 0 1 0 
1 490.837311 20.430111 0 -1 0 0 
1 489.59149200000002 20.430111 0 0 1 0 
1 489.59149200000002 23.355927000000001 0 0 1 0 
1 489.59149200000002 26.281742000000001 0 1 0 0 
1 492.38174400000003 26.281742000000001 0 0 -1 0 
1 492.38174400000003 23.355927000000001 0 0 -1 0 
1 492.38174400000003 20.430111 0 -1 0 0 
1 492.15271000000001 20.430111 0 0 -1 0 
1 492.15271000000001 20.030108999999999 0 1 0 0 
1 494.375336 20.030108999999999 0 0 1 0 
1 494.375336 20.430111 0 -1 0 0 
1 492.781769 20.430111 0 0 1 0 
1 492.781769 23.355927000000001 0 0 1 0 
1 492.781769 26.281742000000001 0 1 0 0 
1 495.80081200000001 26.281742000000001 0 0 -1 0 
1 495.80081200000001 23.355927000000001 0 0 -1 0 
1 495.80081200000001 20.430111 0 -1 0 0 
1 495.375336 20.430111 0 0 -1 0 
1 495.375336 20.030108999999999 0 1 0 0 
1 495.80081200000001 20.030108999999999 0 0 -1 0 
1 495.80081200000001 16.719391000000002 0 0 -1 0 
1 495.80081200000001 13.408671 0 -1 0 0 
1 491.86755399999998 13.408671 0 0 -1 0 
1 491.86755399999998 13.008671 0 1 0 0 
1 492.442047 13.008671 0 0 -1 0 
1 492.442047 10.525786999999999 0 -1 0 0 
1 489.03714000000002 10.525786999999999 0 -1 0 0 
1 485.63223299999999 10.525786999999999 0 0 -1 0 
1 485.63223299999999 10.125787000000001 0 1 0 0 
1 489.03714000000002 10.125787000000001 0 1 0 0 
1 492.442047 10.125787000000001 0 0 -1 0 
1 492.442047 6.8609429999999998 0 0 -1 0 
1 492.442047 3.5960990000000002 0 0 -1 0 
1 492.442047 0.33125599999999999 0 -1 0 0 
1 489.35021999999998 0.33125599999999999 0 -1 0 0 
1 486.25839200000001 0.33125599999999999 0 -1 0 0 
1 483.16653400000001 0.33125599999999999 0 0 1 0 
1 483.16653400000001 3.696523 0 0 1 0 
1 483.16653400000001 7.0617900000000002 0 0 1 0 
1 483.16653400000001 10.427057 0 -1 0 0 
1 479.62701399999997 10.427057 0 -1 0 0 
1 476.08752399999997 10.427057 0 -1 0 0 
1 472.54800399999999 10.427057 0 0 -1 0 
1 472.54800399999999 7.6960379999999997 0 1 0 0 
1 472.94799799999998 7.6960379999999997 0 0 1 0 
1 472.94799799999998 10.027056999999999 0 1 0 0 
1 476.197968 10.027056999999999 0 1 0 0 
1 479.44790599999999 10.027056999999999 0 0 -1 0 
1 479.44790599999999 6.6626180000000002 0 -1 0 0 
1 475.99795499999999 6.6626180000000002 0 -1 0 0 
1 472.54800399999999 6.6626180000000002 0 0 -1 0 
1 472.54800399999999 4.2809889999999999 0 0 -1 0 
1 472.54800399999999 1.8993599999999999 0 1 0 0 
1 472.94799799999998 1.8993599999999999 0 0 1 0 
1 472.94799799999998 6.2626179999999998 0 1 0 0 
1 476.197968 6.2626179999999998 0 1 0 0 
1 479.44790599999999 6.2626179999999998 0 0 -1 0 
1 479.44790599999999 3.2969369999999998 0 0 -1 0 
1 479.44790599999999 0.33125599999999999 0 -1 0 0 
1 476.22564699999998 0.33125599999999999 0 -1 0 0 
1 473.00341800000001 0.33125599999999999 0 -1 0 0 
1 469.781158 0.33125599999999999 0 0 1 0 
1 469.781158 3.696523 0 0 1 0 
1 469.781158 7.0617900000000002 0 0 1 0 
1 469.781158 10.427057 0 -1 0 0 
1 466.33215300000001 10.427057 0 -1 0 0 
1 462.88314800000001 10.427057 0 -1 0 0 
1 459.43411300000002 10.427057 0 0 -1 0 
1 459.43411300000002 6.8207019999999998 0 1 0 0 
1 459.834137 6.8207019999999998 0 0 1 0 
1 459.834137 10.027056999999999 0 1 0 0 
1 462.93737800000002 10.027056999999999 0 1 0 0 
1 466.04064899999997 10.027056999999999 0 0 -1 0 
1 466.04064899999997 5.8124209999999996 0 -1 0 0 
1 462.73739599999999 5.8124209999999996 0 -1 0 0 
1 459.43411300000002 5.8124209999999996 0 0 -1 0 
1 459.43411300000002 1.8937630000000001 0 1 0 0 
1 459.834137 1.8937630000000001 0 0 1 0 
1 459.834137 5.4124210000000001 0 1 0 0 
1 462.93737800000002 5.4124210000000001 0 1 0 0 
1 466.04064899999997 5.4124210000000001 0 0 -1 0 
1 466.04064899999997 2.8718379999999999 0 0 -1 0 
1 466.04064899999997 0.33125599999999999 0 -1 0 0 
1 462.91894500000001 0.33125599999999999 0 -1 0 0 
1 459.79724099999999 0.33125599999999999 0 -1 0 0 
1 456.67553700000002 0.33125599999999999 0 0 1 0 
1 456.67553700000002 3.696523 0 0 1 0 
1 456.67553700000002 7.0617900000000002 0 0 1 0 
1 456.67553700000002 10.427057 0 -1 0 0 
1 452.81686400000001 10.427057 0 -1 0 0 
1 448.958191 10.427057 0 0 -1 0 
1 448.958191 7.1744630000000003 0 1 0 0 
1 449.35818499999999 7.1744630000000003 0 0 1 0 
1 449.35818499999999 10.027056999999999 0 1 0 0 
1 453.08923299999998 10.027056999999999 0 0 -1 0 
1 453.08923299999998 5.8198239999999997 0 -1 0 0 
1 449.27307100000002 5.8198239999999997 0 0 -1 0 
1 449.27307100000002 5.4198240000000002 0 1 0 0 
1 453.08923299999998 5.4198240000000002 0 0 -1 0 
1 453.08923299999998 2.87554 0 0 -1 0 
1 453.08923299999998 0.33125599999999999 0 -1 0 0 
1 449.83358800000002 0.33125599999999999 0 -1 0 0 
1 446.57797199999999 0.33125599999999999 0 -1 0 0 
1 443.32235700000001 0.33125599999999999 0 0 1 0 
1 443.32235700000001 2.9124989999999999 0 0 1 0 
1 443.32235700000001 5.4937430000000003 0 1 0 0 
1 446.55835000000002 5.4937430000000003 0 0 1 0 
1 446.55835000000002 5.9898100000000003 0 -1 0 0 
1 446.15835600000003 5.9898100000000003 0 0 -1 0 
1 446.15835600000003 5.8937429999999997 0 -1 0 0 
1 443.32235700000001 5.8937429999999997 0 0 1 0 
1 443.32235700000001 6.9320519999999997 0 1 0 0 
1 446.55835000000002 6.9320519999999997 0 0 1 0 
1 446.55835000000002 7.332052 0 -1 0 0 
1 443.32235700000001 7.332052 0 0 1 0 
1 443.32235700000001 8.3770489999999995 0 1 0 0 
1 446.55835000000002 8.3770489999999995 0 0 1 0 
1 446.55835000000002 8.7770499999999991 0 -1 0 0 
1 443.32235700000001 8.7770499999999991 0 0 1 0 
1 443.32235700000001 10.027056999999999 0 1 0 0 
1 446.15835600000003 10.027056999999999 0 0 -1 0 
1 446.15835600000003 9.9469030000000007 0 1 0 0 
1 446.55835000000002 9.9469030000000007 0 0 1 0 
1 446.55835000000002 10.427057 0 -1 0 0 
1 443.35732999999999 10.427057 0 -1 0 0 
1 440.15631100000002 10.427057 0 -1 0 0 
1 436.95526100000001 10.427057 0 0 -1 0 
1 436.95526100000001 10.027056999999999 0 1 0 0 
1 439.93881199999998 10.027056999999999 0 1 0 0 
1 442.92236300000002 10.027056999999999 0 0 -1 0 
1 442.92236300000002 6.7951230000000002 0 0 -1 0 
1 442.92236300000002 3.5631900000000001 0 0 -1 0 
1 442.92236300000002 0.33125599999999999 0 -1 0 0 
1 440.071777 0.33125599999999999 0 0 1 0 
1 440.071777 3.2001810000000002 0 0 1 0 
1 440.071777 6.0691059999999997 0 -1 0 0 
1 435.96478300000001 6.0691059999999997 0 0 -1 0 
1 435.96478300000001 5.6691060000000002 0 1 0 0 
1 439.67175300000002 5.6691060000000002 0 0 -1 0 
1 439.67175300000002 3.000181 0 0 -1 0 
1 439.67175300000002 0.33125599999999999 0 -1 0 0 
1 437.23193400000002 0.33125599999999999 0 -1 0 0 
1 434.79211400000003 0.33125599999999999 0 0 1 0 
1 434.79211400000003 4.1326099999999997 0 0 1 0 
1 434.79211400000003 7.9339639999999996 0 -1 0 0 
1 434.39211999999998 7.9339639999999996 0 0 -1 0 
1 434.39211999999998 4.1326099999999997 0 0 -1 0 
1 434.39211999999998 0.33125599999999999 0 -1 0 0 
1 430.479401 0.33125599999999999 0 -1 0 0 
1 426.56664999999998 0.33125599999999999 0 0 1 0 
1 426.56664999999998 3.0416159999999999 0 0 1 0 
1 426.56664999999998 5.751976 0 1 0 0 
1 429.82235700000001 5.751976 0 1 0 0 
1 433.078033 5.751976 0 0 1 0 
1 433.078033 6.1519760000000003 0 -1 0 0 
1 429.82235700000001 6.1519760000000003 0 -1 0 0 
1 426.56664999999998 6.1519760000000003 0 0 1 0 
1 426.56664999999998 10.027056999999999 0 1 0 0 
1 430.479401 10.027056999999999 0 1 0 0 
1 434.39211999999998 10.027056999999999 0 0 -1 0 
1 434.39211999999998 9.2270570000000003 0 1 0 0 
1 434.79211400000003 9.2270570000000003 0 0 1 0 
1 434.79211400000003 10.027056999999999 0 1 0 0 
1 435.95526100000001 10.027056999999999 0 0 1 0 
1 435.95526100000001 10.427057 0 -1 0 0 
1 432.69241299999999 10.427057 0 -1 0 0 
1 429.42953499999999 10.427057 0 -1 0 0 
1 426.16665599999999 10.427057 0 0 -1 0 
1 426.16665599999999 7.5822139999999996 0 -1 0 0 
1 423.19818099999998 7.5822139999999996 0 -1 0 0 
1 420.22967499999999 7.5822139999999996 0 0 1 0 
1 420.22967499999999 10.080833999999999 0 1 0 0 
Polygon3D 0
PolygonOnTriangulations 0
Surfaces 1
1 457.69641215087853 13.453042949645399 0 -0 -0 -1 -1 0 0 0 1 -0 
Triangulations 0

TShapes 694
Ve
1e-07
423.752563 10.080834 0
0 0

0101101
*
Ve
1e-07
423.752563 10.480834 0
0 0

0101101
*
Ed
 1e-07 1 1 0
1  1 0 0 0.4
0

0101000
+694 0 -693 0 *
Ve
1e-07
420.229675 10.480834 0
0 0

0101101
*
Ed
 1e-07 1 1 0
1  2 0 0 3.52288800000002
0

0101000
+693 0 -691 0 *
Ve
1e-07
420.229675 14.431061 0
0 0

0101101
*
Ed
 1e-07 1 1 0
1  3 0 0 3.950227
0

0101000
+691 0 -689 0 *
Ve
1e-07
420.229675 18.381289 0
0 0

0101101
*
Ed
 1e-07 1 1 0
1  4 0 0 3.950228
0

0101000
+689 0 -687 0 *
Ve
1e-07
420.229675 22.331516 0
0 0

0101101
*
Ed
 1e-07 1 1 0
1  5 0 0 3.950227
0

0101000
+687 0 -685 0 *
Ve
1e-07
420.229675 26.281742 0
0 0

0101101
*
Ed
 1e-07 1 1 0
1  6 0 0 3.950226
0

0101000
+685 0 -683 0 *
Ve
1e-07
423.357117 26.281742 0
0 0

0101101
*
Ed
 1e-07 1 1 0
1  7 0 0 3.12744200000003
0

0101000
+683 0 -681 0 *
Ve
1e-07
426.484558 26.281742 0
0 0

0101101
*
Ed
 1e-07 1 1 0
1  8 0 0 3.12744099999998
0

0101000
+681 0 -679 0 *
Ve
1e-07
429.612 26.281742 0
0 0

0101101
*
Ed
 1e-07 1 1 0
1  9 0 0 3.12744200000003
0

0101000
+679 0 -677 0 *
Ve
1e-07
429.612 21.857386 0
0 0

0101101
*
Ed
 1e-07 1 1 0
1  10 0 0 4.424356
0

0101000
+677 0 -675 0 *
Ve
1e-07
429.612 17.433027 0
0 0

0101101
*
Ed
 1e-07 1 1 0
1  11 0 0 4.424359
0

0101000
+675 0 -673 0 *
Ve
1e-07
429.612 13.008671 0
0 0

0101101
*
Ed
 1e-07 1 1 0
1  12 0 0 4.424356
0

0101000
+673 0 -671 0 *
Ve
1e-07
430.895477 13.008671 0
0 0

0101101
*
Ed
 1e-07 1 1 0
1  13 0 0 1.283477
0

0101000
+671 0 -669 0 *
Ve
1e-07
430.895477 13.408671 0
0 0

0101101
*
Ed
 1e-07 1 1 0
1  14 0 0 0.4
0

0101000
+669 0 -667 0 *
Ve
1e-07
430.011993 13.408671 0
0 0

0101101
*
Ed
 1e-07 1 1 0
1  15 0 0 0.88348400000001
0

0101000
+667 0 -665 0 *
Ve
1e-07
430.011993 17.141602 0
0 0

0101101
*
Ed
 1e-07 1 1 0
1  16 0 0 3.732931
0

0101000
+665 0 -663 0 *
Ve
1e-07
431.949219 17.141602 0
0 0

0101101
*
Ed
 1e-07 1 1 0
1  17 0 0 1.93722600000001
0

0101000
+663 0 -661 0 *
Ve
1e-07
431.949219 13.208672 0
0 0

0101101
*
Ed
 1e-07 1 1 0
1  18 0 0 3.93293
0

0101000
+661 0 -659 0 *
Ve
1e-07
432.349213 13.208672 0
0 0

0101101
*
Ed
 1e-07 1 1 0
1  19 0 0 0.399993999999992
0

0101000
+659 0 -657 0 *
Ve
1e-07
432.349213 17.141602 0
0 0

0101101
*
Ed
 1e-07 1 1 0
1  20 0 0 3.93293
0

0101000
+657 0 -655 0 *
Ve
1e-07
434.23114 17.141602 0
0 0

0101101
*
Ed
 1e-07 1 1 0
1  21 0 0 1.88192699999996
0

0101000
+655 0 -653 0 *
Ve
1e-07
434.23114 13.408671 0
0 0

0101101
*
Ed
 1e-07 1 1 0
1  22 0 0 3.732931
0

0101000
+653 0 -651 0 *
Ve
1e-07
433.25708 13.408671 0
0 0

0101101
*
Ed
 1e-07 1 1 0
1  23 0 0 0.974060000000009
0

0101000
+651 0 -649 0 *
Ve
1e-07
433.25708 13.008671 0
0 0

0101101
*
Ed
 1e-07 1 1 0
1  24 0 0 0.4
0

0101000
+649 0 -647 0 *
Ve
1e-07
434.631165 13.008671 0
0 0

0101101
*
Ed
 1e-07 1 1 0
1  25 0 0 1.37408500000004
0

0101000
+647 0 -645 0 *
Ve
1e-07
434.631165 16.253424 0
0 0

0101101
*
Ed
 1e-07 1 1 0
1  26 0 0 3.244753
0

0101000
+645 0 -643 0 *
Ve
1e-07
434.631165 19.498178 0
0 0

0101101
*
Ed
 1e-07 1 1 0
1  27 0 0 3.244754
0

0101000
+643 0 -641 0 *
Ve
1e-07
434.23114 19.498178 0
0 0

0101101
*
Ed
 1e-07 1 1 0
1  28 0 0 0.400025000000028
0

0101000
+641 0 -639 0 *
Ve
1e-07
434.23114 17.541601 0
0 0

0101101
*
Ed
 1e-07 1 1 0
1  29 0 0 1.956577
0

0101000
+639 0 -637 0 *
Ve
1e-07
430.011993 17.541601 0
0 0

0101101
*
Ed
 1e-07 1 1 0
1  30 0 0 4.21914699999996
0

0101000
+637 0 -635 0 *
Ve
1e-07
430.011993 20.626301 0
0 0

0101101
*
Ed
 1e-07 1 1 0
1  31 0 0 3.0847
0

0101000
+635 0 -633 0 *
Ve
1e-07
434.431152 20.626301 0
0 0

0101101
*
Ed
 1e-07 1 1 0
1  32 0 0 4.41915899999998
0

0101000
+633 0 -631 0 *
Ve
1e-07
434.431152 21.0263 0
0 0

0101101
*
Ed
 1e-07 1 1 0
1  33 0 0 0.399998999999998
0

0101000
+631 0 -629 0 *
Ve
1e-07
430.011993 21.0263 0
0 0

0101101
*
Ed
 1e-07 1 1 0
1  34 0 0 4.41915899999998
0

0101000
+629 0 -627 0 *
Ve
1e-07
430.011993 23.654022 0
0 0

0101101
*
Ed
 1e-07 1 1 0
1  35 0 0 2.627722
0

0101000
+627 0 -625 0 *
Ve
1e-07
430.011993 26.281742 0
0 0

0101101
*
Ed
 1e-07 1 1 0
1  36 0 0 2.62772
0

0101000
+625 0 -623 0 *
Ve
1e-07
434.23114 26.281742 0
0 0

0101101
*
Ed
 1e-07 1 1 0
1  37 0 0 4.21914699999996
0

0101000
+623 0 -621 0 *
Ve
1e-07
434.23114 22.243824 0
0 0

0101101
*
Ed
 1e-07 1 1 0
1  38 0 0 4.037918
0

0101000
+621 0 -619 0 *
Ve
1e-07
434.631165 22.243824 0
0 0

0101101
*
Ed
 1e-07 1 1 0
1  39 0 0 0.400025000000028
0

0101000
+619 0 -617 0 *
Ve
1e-07
434.631165 26.281742 0
0 0

0101101
*
Ed
 1e-07 1 1 0
1  40 0 0 4.037918
0

0101000
+617 0 -615 0 *
Ve
1e-07
437.602997 26.281742 0
0 0

0101101
*
Ed
 1e-07 1 1 0
1  41 0 0 2.97183200000001
0

0101000
+615 0 -613 0 *
Ve
1e-07
440.57486 26.281742 0
0 0

0101101
*
Ed
 1e-07 1 1 0
1  42 0 0 2.97186299999998
0

0101000
+613 0 -611 0 *
Ve
1e-07
443.546722 26.281742 0
0 0

0101101
*
Ed
 1e-07 1 1 0
1  43 0 0 2.97186199999999
0

0101000
+611 0 -609 0 *
Ve
1e-07
443.546722 22.971611 0
0 0

0101101
*
Ed
 1e-07 1 1 0
1  44 0 0 3.310131
0

0101000
+609 0 -607 0 *
Ve
1e-07
440.370239 22.971611 0
0 0

0101101
*
Ed
 1e-07 1 1 0
1  45 0 0 3.17648299999996
0

0101000
+607 0 -605 0 *
Ve
1e-07
437.193756 22.971611 0
0 0

0101101
*
Ed
 1e-07 1 1 0
1  46 0 0 3.17648300000002
0

0101000
+605 0 -603 0 *
Ve
1e-07
437.193756 24.590651 0
0 0

0101101
*
Ed
 1e-07 1 1 0
1  47 0 0 1.61904
0

0101000
+603 0 -601 0 *
Ve
1e-07
436.793762 24.590651 0
0 0

0101101
*
Ed
 1e-07 1 1 0
1  48 0 0 0.399993999999992
0

0101000
+601 0 -599 0 *
Ve
1e-07
436.793762 22.571611 0
0 0

0101101
*
Ed
 1e-07 1 1 0
1  49 0 0 2.01904
0

0101000
+599 0 -597 0 *
Ve
1e-07
440.170258 22.571611 0
0 0

0101101
*
Ed
 1e-07 1 1 0
1  50 0 0 3.37649599999997
0

0101000
+597 0 -595 0 *
Ve
1e-07
443.546722 22.571611 0
0 0

0101101
*
Ed
 1e-07 1 1 0
1  51 0 0 3.376464
0

0101000
+595 0 -593 0 *
Ve
1e-07
443.546722 19.7306 0
0 0

0101101
*
Ed
 1e-07 1 1 0
1  52 0 0 2.841011
0

0101000
+593 0 -591 0 *
Ve
1e-07
440.370239 19.7306 0
0 0

0101101
*
Ed
 1e-07 1 1 0
1  53 0 0 3.17648299999996
0

0101000
+591 0 -589 0 *
Ve
1e-07
437.193756 19.7306 0
0 0

0101101
*
Ed
 1e-07 1 1 0
1  54 0 0 3.17648300000002
0

0101000
+589 0 -587 0 *
Ve
1e-07
437.193756 21.349638 0
0 0

0101101
*
Ed
 1e-07 1 1 0
1  55 0 0 1.619038
0

0101000
+587 0 -585 0 *
Ve
1e-07
436.793762 21.349638 0
0 0

0101101
*
Ed
 1e-07 1 1 0
1  56 0 0 0.399993999999992
0

0101000
+585 0 -583 0 *
Ve
1e-07
436.793762 19.330601 0
0 0

0101101
*
Ed
 1e-07 1 1 0
1  57 0 0 2.019037
0

0101000
+583 0 -581 0 *
Ve
1e-07
440.170258 19.330601 0
0 0

0101101
*
Ed
 1e-07 1 1 0
1  58 0 0 3.37649599999997
0

0101000
+581 0 -579 0 *
Ve
1e-07
443.546722 19.330601 0
0 0

0101101
*
Ed
 1e-07 1 1 0
1  59 0 0 3.376464
0

0101000
+579 0 -577 0 *
Ve
1e-07
443.546722 16.682026 0
0 0

0101101
*
Ed
 1e-07 1 1 0
1  60 0 0 2.648575
0

0101000
+577 0 -575 0 *
Ve
1e-07
440.370239 16.682026 0
0 0

0101101
*
Ed
 1e-07 1 1 0
1  61 0 0 3.17648299999996
0

0101000
+575 0 -573 0 *
Ve
1e-07
437.193756 16.682026 0
0 0

0101101
*
Ed
 1e-07 1 1 0
1  62 0 0 3.17648300000002
0

0101000
+573 0 -571 0 *
Ve
1e-07
437.193756 18.301064 0
0 0

0101101
*
Ed
 1e-07 1 1 0
1  63 0 0 1.619038
0

0101000
+571 0 -569 0 *
Ve
1e-07
436.793762 18.301064 0
0 0

0101101
*
Ed
 1e-07 1 1 0
1  64 0 0 0.399993999999992
0

0101000
+569 0 -567 0 *
Ve
1e-07
436.793762 16.282026 0
0 0

0101101
*
Ed
 1e-07 1 1 0
1  65 0 0 2.019038
0

0101000
+567 0 -565 0 *
Ve
1e-07
440.170258 16.282026 0
0 0

0101101
*
Ed
 1e-07 1 1 0
1  66 0 0 3.37649599999997
0

0101000
+565 0 -563 0 *
Ve
1e-07
443.546722 16.282026 0
0 0

0101101
*
Ed
 1e-07 1 1 0
1  67 0 0 3.376464
0

0101000
+563 0 -561 0 *
Ve
1e-07
443.546722 13.408671 0
0 0

0101101
*
Ed
 1e-07 1 1 0
1  68 0 0 2.873355
0

0101000
+561 0 -559 0 *
Ve
1e-07
440.400146 13.408671 0
0 0

0101101
*
Ed
 1e-07 1 1 0
1  69 0 0 3.14657599999998
0

0101000
+559 0 -557 0 *
Ve
1e-07
437.253571 13.408671 0
0 0

0101101
*
Ed
 1e-07 1 1 0
1  70 0 0 3.14657499999998
0

0101000
+557 0 -555 0 *
Ve
1e-07
437.253571 15.015312 0
0 0

0101101
*
Ed
 1e-07 1 1 0
1  71 0 0 1.606641
0

0101000
+555 0 -553 0 *
Ve
1e-07
436.853577 15.015312 0
0 0

0101101
*
Ed
 1e-07 1 1 0
1  72 0 0 0.399994000000049
0

0101000
+553 0 -551 0 *
Ve
1e-07
436.853577 13.408671 0
0 0

0101101
*
Ed
 1e-07 1 1 0
1  73 0 0 1.606641
0

0101000
+551 0 -549 0 *
Ve
1e-07
435.741852 13.408671 0
0 0

0101101
*
Ed
 1e-07 1 1 0
1  74 0 0 1.11172499999998
0

0101000
+549 0 -547 0 *
Ve
1e-07
435.741852 13.008671 0
0 0

0101101
*
Ed
 1e-07 1 1 0
1  75 0 0 0.4
0

0101000
+547 0 -545 0 *
Ve
1e-07
439.744293 13.008671 0
0 0

0101101
*
Ed
 1e-07 1 1 0
1  76 0 0 4.00244100000003
0

0101000
+545 0 -543 0 *
Ve
1e-07
443.746735 13.008671 0
0 0

0101101
*
Ed
 1e-07 1 1 0
1  77 0 0 4.00244199999997
0

0101000
+543 0 -541 0 *
Ve
1e-07
447.010376 13.008671 0
0 0

0101101
*
Ed
 1e-07 1 1 0
1  78 0 0 3.26364100000001
0

0101000
+541 0 -539 0 *
Ve
1e-07
450.274048 13.008671 0
0 0

0101101
*
Ed
 1e-07 1 1 0
1  79 0 0 3.26367199999999
0

0101000
+539 0 -537 0 *
Ve
1e-07
453.53772 13.008671 0
0 0

0101101
*
Ed
 1e-07 1 1 0
1  80 0 0 3.26367199999999
0

0101000
+537 0 -535 0 *
Ve
1e-07
453.53772 13.408671 0
0 0

0101101
*
Ed
 1e-07 1 1 0
1  81 0 0 0.4
0

0101000
+535 0 -533 0 *
Ve
1e-07
450.170593 13.408671 0
0 0

0101101
*
Ed
 1e-07 1 1 0
1  82 0 0 3.36712699999998
0

0101000
+533 0 -531 0 *
Ve
1e-07
446.803467 13.408671 0
0 0

0101101
*
Ed
 1e-07 1 1 0
1  83 0 0 3.36712599999998
0

0101000
+531 0 -529 0 *
Ve
1e-07
446.803467 17.699696 0
0 0

0101101
*
Ed
 1e-07 1 1 0
1  84 0 0 4.291025
0

0101000
+529 0 -527 0 *
Ve
1e-07
446.803467 21.990719 0
0 0

0101101
*
Ed
 1e-07 1 1 0
1  85 0 0 4.291023
0

0101000
+527 0 -525 0 *
Ve
1e-07
446.803467 26.281742 0
0 0

0101101
*
Ed
 1e-07 1 1 0
1  86 0 0 4.291023
0

0101000
+525 0 -523 0 *
Ve
1e-07
449.914124 26.281742 0
0 0

0101101
*
Ed
 1e-07 1 1 0
1  87 0 0 3.110657
0

0101000
+523 0 -521 0 *
Ve
1e-07
453.024811 26.281742 0
0 0

0101101
*
Ed
 1e-07 1 1 0
1  88 0 0 3.11068699999998
0

0101000
+521 0 -519 0 *
Ve
1e-07
456.135468 26.281742 0
0 0

0101101
*
Ed
 1e-07 1 1 0
1  89 0 0 3.110657
0

0101000
+519 0 -517 0 *
Ve
1e-07
456.135468 21.857386 0
0 0

0101101
*
Ed
 1e-07 1 1 0
1  90 0 0 4.424356
0

0101000
+517 0 -515 0 *
Ve
1e-07
456.135468 17.433027 0
0 0

0101101
*
Ed
 1e-07 1 1 0
1  91 0 0 4.424359
0

0101000
+515 0 -513 0 *
Ve
1e-07
456.135468 13.008671 0
0 0

0101101
*
Ed
 1e-07 1 1 0
1  92 0 0 4.424356
0

0101000
+513 0 -511 0 *
Ve
1e-07
459.721344 13.008671 0
0 0

0101101
*
Ed
 1e-07 1 1 0
1  93 0 0 3.58587599999998
0

0101000
+511 0 -509 0 *
Ve
1e-07
463.30722 13.008671 0
0 0

0101101
*
Ed
 1e-07 1 1 0
1  94 0 0 3.58587599999998
0

0101000
+509 0 -507 0 *
Ve
1e-07
466.893097 13.008671 0
0 0

0101101
*
Ed
 1e-07 1 1 0
1  95 0 0 3.58587700000004
0

0101000
+507 0 -505 0 *
Ve
1e-07
466.893097 16.354519 0
0 0

0101101
*
Ed
 1e-07 1 1 0
1  96 0 0 3.345848
0

0101000
+505 0 -503 0 *
Ve
1e-07
466.493103 16.354519 0
0 0

0101101
*
Ed
 1e-07 1 1 0
1  97 0 0 0.399993999999992
0

0101000
+503 0 -501 0 *
Ve
1e-07
466.493103 13.408671 0
0 0

0101101
*
Ed
 1e-07 1 1 0
1  98 0 0 2.945848
0

0101000
+501 0 -499 0 *
Ve
1e-07
463.170868 13.408671 0
0 0

0101101
*
Ed
 1e-07 1 1 0
1  99 0 0 3.32223500000003
0

0101000
+499 0 -497 0 *
Ve
1e-07
459.848633 13.408671 0
0 0

0101101
*
Ed
 1e-07 1 1 0
1  100 0 0 3.32223499999998
0

0101000
+497 0 -495 0 *
Ve
1e-07
459.848633 16.154518 0
0 0

0101101
*
Ed
 1e-07 1 1 0
1  101 0 0 2.745847
0

0101000
+495 0 -493 0 *
Ve
1e-07
462.631195 16.154518 0
0 0

0101101
*
Ed
 1e-07 1 1 0
1  102 0 0 2.78256199999998
0

0101000
+493 0 -491 0 *
Ve
1e-07
465.413757 16.154518 0
0 0

0101101
*
Ed
 1e-07 1 1 0
1  103 0 0 2.78256199999998
0

0101000
+491 0 -489 0 *
Ve
1e-07
465.413757 16.554518 0
0 0

0101101
*
Ed
 1e-07 1 1 0
1  104 0 0 0.400000000000002
0

0101000
+489 0 -487 0 *
Ve
1e-07
462.631195 16.554518 0
0 0

0101101
*
Ed
 1e-07 1 1 0
1  105 0 0 2.78256199999998
0

0101000
+487 0 -485 0 *
Ve
1e-07
459.848633 16.554518 0
0 0

0101101
*
Ed
 1e-07 1 1 0
1  106 0 0 2.78256199999998
0

0101000
+485 0 -483 0 *
Ve
1e-07
459.848633 19.796926 0
0 0

0101101
*
Ed
 1e-07 1 1 0
1  107 0 0 3.242408
0

0101000
+483 0 -481 0 *
Ve
1e-07
459.848633 23.039335 0
0 0

0101101
*
Ed
 1e-07 1 1 0
1  108 0 0 3.242409
0

0101000
+481 0 -479 0 *
Ve
1e-07
459.848633 26.281742 0
0 0

0101101
*
Ed
 1e-07 1 1 0
1  109 0 0 3.242407
0

0101000
+479 0 -477 0 *
Ve
1e-07
463.032623 26.281742 0
0 0

0101101
*
Ed
 1e-07 1 1 0
1  110 0 0 3.18398999999999
0

0101000
+477 0 -475 0 *
Ve
1e-07
466.216614 26.281742 0
0 0

0101101
*
Ed
 1e-07 1 1 0
1  111 0 0 3.18399099999999
0

0101000
+475 0 -473 0 *
Ve
1e-07
469.400604 26.281742 0
0 0

0101101
*
Ed
 1e-07 1 1 0
1  112 0 0 3.18398999999999
0

0101000
+473 0 -471 0 *
Ve
1e-07
469.400604 21.857386 0
0 0

0101101
*
Ed
 1e-07 1 1 0
1  113 0 0 4.424356
0

0101000
+471 0 -469 0 *
Ve
1e-07
469.400604 17.433027 0
0 0

0101101
*
Ed
 1e-07 1 1 0
1  114 0 0 4.424359
0

0101000
+469 0 -467 0 *
Ve
1e-07
469.400604 13.008671 0
0 0

0101101
*
Ed
 1e-07 1 1 0
1  115 0 0 4.424356
0

0101000
+467 0 -465 0 *
Ve
1e-07
473.343933 13.008671 0
0 0

0101101
*
Ed
 1e-07 1 1 0
1  116 0 0 3.94332900000001
0

0101000
+465 0 -463 0 *
Ve
1e-07
473.343933 17.433027 0
0 0

0101101
*
Ed
 1e-07 1 1 0
1  117 0 0 4.424356
0

0101000
+463 0 -461 0 *
Ve
1e-07
473.343933 21.857386 0
0 0

0101101
*
Ed
 1e-07 1 1 0
1  118 0 0 4.424359
0

0101000
+461 0 -459 0 *
Ve
1e-07
473.343933 26.281742 0
0 0

0101101
*
Ed
 1e-07 1 1 0
1  119 0 0 4.424356
0

0101000
+459 0 -457 0 *
Ve
1e-07
476.226135 26.281742 0
0 0

0101101
*
Ed
 1e-07 1 1 0
1  120 0 0 2.88220200000001
0

0101000
+457 0 -455 0 *
Ve
1e-07
479.108307 26.281742 0
0 0

0101101
*
Ed
 1e-07 1 1 0
1  121 0 0 2.88217200000003
0

0101000
+455 0 -453 0 *
Ve
1e-07
479.108307 22.922043 0
0 0

0101101
*
Ed
 1e-07 1 1 0
1  122 0 0 3.359699
0

0101000
+453 0 -451 0 *
Ve
1e-07
479.108307 19.562344 0
0 0

0101101
*
Ed
 1e-07 1 1 0
1  123 0 0 3.359699
0

0101000
+451 0 -449 0 *
Ve
1e-07
474.669037 19.562344 0
0 0

0101101
*
Ed
 1e-07 1 1 0
1  124 0 0 4.43927000000002
0

0101000
+449 0 -447 0 *
Ve
1e-07
474.669037 17.716717 0
0 0

0101101
*
Ed
 1e-07 1 1 0
1  125 0 0 1.845627
0

0101000
+447 0 -445 0 *
Ve
1e-07
478.402222 17.716717 0
0 0

0101101
*
Ed
 1e-07 1 1 0
1  126 0 0 3.73318499999999
0

0101000
+445 0 -443 0 *
Ve
1e-07
478.402222 13.408671 0
0 0

0101101
*
Ed
 1e-07 1 1 0
1  127 0 0 4.308046
0

0101000
+443 0 -441 0 *
Ve
1e-07
475.069031 13.408671 0
0 0

0101101
*
Ed
 1e-07 1 1 0
1  128 0 0 3.333191
0

0101000
+441 0 -439 0 *
Ve
1e-07
475.069031 16.2973 0
0 0

0101101
*
Ed
 1e-07 1 1 0
1  129 0 0 2.888629
0

0101000
+439 0 -437 0 *
Ve
1e-07
474.669037 16.2973 0
0 0

0101101
*
Ed
 1e-07 1 1 0
1  130 0 0 0.399993999999992
0

0101000
+437 0 -435 0 *
Ve
1e-07
474.669037 13.008671 0
0 0

0101101
*
Ed
 1e-07 1 1 0
1  131 0 0 3.288629
0

0101000
+435 0 -433 0 *
Ve
1e-07
478.043091 13.008671 0
0 0

0101101
*
Ed
 1e-07 1 1 0
1  132 0 0 3.374054
0

0101000
+433 0 -431 0 *
Ve
1e-07
481.417145 13.008671 0
0 0

0101101
*
Ed
 1e-07 1 1 0
1  133 0 0 3.374054
0

0101000
+431 0 -429 0 *
Ve
1e-07
481.417145 16.2973 0
0 0

0101101
*
Ed
 1e-07 1 1 0
1  134 0 0 3.288629
0

0101000
+429 0 -427 0 *
Ve
1e-07
481.01712 16.2973 0
0 0

0101101
*
Ed
 1e-07 1 1 0
1  135 0 0 0.400025000000028
0

0101000
+427 0 -425 0 *
Ve
1e-07
481.01712 13.408671 0
0 0

0101101
*
Ed
 1e-07 1 1 0
1  136 0 0 2.888629
0

0101000
+425 0 -423 0 *
Ve
1e-07
478.802216 13.408671 0
0 0

0101101
*
Ed
 1e-07 1 1 0
1  137 0 0 2.21490399999999
0

0101000
+423 0 -421 0 *
Ve
1e-07
478.802216 17.716717 0
0 0

0101101
*
Ed
 1e-07 1 1 0
1  138 0 0 4.308046
0

0101000
+421 0 -419 0 *
Ve
1e-07
481.417145 17.716717 0
0 0

0101101
*
Ed
 1e-07 1 1 0
1  139 0 0 2.61492900000002
0

0101000
+419 0 -417 0 *
Ve
1e-07
481.417145 19.562344 0
0 0

0101101
*
Ed
 1e-07 1 1 0
1  140 0 0 1.845627
0

0101000
+417 0 -415 0 *
Ve
1e-07
479.508331 19.562344 0
0 0

0101101
*
Ed
 1e-07 1 1 0
1  141 0 0 1.90881400000001
0

0101000
+415 0 -413 0 *
Ve
1e-07
479.508331 22.922043 0
0 0

0101101
*
Ed
 1e-07 1 1 0
1  142 0 0 3.359699
0

0101000
+413 0 -411 0 *
Ve
1e-07
479.508331 26.281742 0
0 0

0101101
*
Ed
 1e-07 1 1 0
1  143 0 0 3.359699
0

0101000
+411 0 -409 0 *
Ve
1e-07
482.629059 26.281742 0
0 0

0101101
*
Ed
 1e-07 1 1 0
1  144 0 0 3.12072799999999
0

0101000
+409 0 -407 0 *
Ve
1e-07
482.629059 21.857386 0
0 0

0101101
*
Ed
 1e-07 1 1 0
1  145 0 0 4.424356
0

0101000
+407 0 -405 0 *
Ve
1e-07
482.629059 17.433027 0
0 0

0101101
*
Ed
 1e-07 1 1 0
1  146 0 0 4.424359
0

0101000
+405 0 -403 0 *
Ve
1e-07
482.629059 13.008671 0
0 0

0101101
*
Ed
 1e-07 1 1 0
1  147 0 0 4.424356
0

0101000
+403 0 -401 0 *
Ve
1e-07
485.303589 13.008671 0
0 0

0101101
*
Ed
 1e-07 1 1 0
1  148 0 0 2.67453
0

0101000
+401 0 -399 0 *
Ve
1e-07
487.978088 13.008671 0
0 0

0101101
*
Ed
 1e-07 1 1 0
1  149 0 0 2.67449900000003
0

0101000
+399 0 -397 0 *
Ve
1e-07
487.978088 13.408671 0
0 0

0101101
*
Ed
 1e-07 1 1 0
1  150 0 0 0.4
0

0101000
+397 0 -395 0 *
Ve
1e-07
486.354828 13.408671 0
0 0

0101101
*
Ed
 1e-07 1 1 0
1  151 0 0 1.62326000000002
0

0101000
+395 0 -393 0 *
Ve
1e-07
486.354828 17.432922 0
0 0

0101101
*
Ed
 1e-07 1 1 0
1  152 0 0 4.024251
0

0101000
+393 0 -391 0 *
Ve
1e-07
489.769958 17.432922 0
0 0

0101101
*
Ed
 1e-07 1 1 0
1  153 0 0 3.41512999999998
0

0101000
+391 0 -389 0 *
Ve
1e-07
489.769958 13.208672 0
0 0

0101101
*
Ed
 1e-07 1 1 0
1  154 0 0 4.22425
0

0101000
+389 0 -387 0 *
Ve
1e-07
490.169983 13.208672 0
0 0

0101101
*
Ed
 1e-07 1 1 0
1  155 0 0 0.400025000000028
0

0101000
+387 0 -385 0 *
Ve
1e-07
490.169983 17.432922 0
0 0

0101101
*
Ed
 1e-07 1 1 0
1  156 0 0 4.22425
0

0101000
+385 0 -383 0 *
Ve
1e-07
494.471832 17.432922 0
0 0

0101101
*
Ed
 1e-07 1 1 0
1  157 0 0 4.301849
0

0101000
+383 0 -381 0 *
Ve
1e-07
494.471832 17.832922 0
0 0

0101101
*
Ed
 1e-07 1 1 0
1  158 0 0 0.399999999999999
0

0101000
+381 0 -379 0 *
Ve
1e-07
490.41333 17.832922 0
0 0

0101101
*
Ed
 1e-07 1 1 0
1  159 0 0 4.05850200000003
0

0101000
+379 0 -377 0 *
Ve
1e-07
486.354828 17.832922 0
0 0

0101101
*
Ed
 1e-07 1 1 0
1  160 0 0 4.05850199999998
0

0101000
+377 0 -375 0 *
Ve
1e-07
486.354828 20.030109 0
0 0

0101101
*
Ed
 1e-07 1 1 0
1  161 0 0 2.197187
0

0101000
+375 0 -373 0 *
Ve
1e-07
487.913879 20.030109 0
0 0

0101101
*
Ed
 1e-07 1 1 0
1  162 0 0 1.55905100000001
0

0101000
+373 0 -371 0 *
Ve
1e-07
487.913879 20.430111 0
0 0

0101101
*
Ed
 1e-07 1 1 0
1  163 0 0 0.400002000000001
0

0101000
+371 0 -369 0 *
Ve
1e-07
486.354828 20.430111 0
0 0

0101101
*
Ed
 1e-07 1 1 0
1  164 0 0 1.55905100000001
0

0101000
+369 0 -367 0 *
Ve
1e-07
486.354828 23.355927 0
0 0

0101101
*
Ed
 1e-07 1 1 0
1  165 0 0 2.925816
0

0101000
+367 0 -365 0 *
Ve
1e-07
486.354828 26.281742 0
0 0

0101101
*
Ed
 1e-07 1 1 0
1  166 0 0 2.925815
0

0101000
+365 0 -363 0 *
Ve
1e-07
489.191498 26.281742 0
0 0

0101101
*
Ed
 1e-07 1 1 0
1  167 0 0 2.83667000000003
0

0101000
+363 0 -361 0 *
Ve
1e-07
489.191498 23.355927 0
0 0

0101101
*
Ed
 1e-07 1 1 0
1  168 0 0 2.925815
0

0101000
+361 0 -359 0 *
Ve
1e-07
489.191498 20.430111 0
0 0

0101101
*
Ed
 1e-07 1 1 0
1  169 0 0 2.925816
0

0101000
+359 0 -357 0 *
Ve
1e-07
489.017242 20.430111 0
0 0

0101101
*
Ed
 1e-07 1 1 0
1  170 0 0 0.174256000000014
0

0101000
+357 0 -355 0 *
Ve
1e-07
489.017242 20.030109 0
0 0

0101101
*
Ed
 1e-07 1 1 0
1  171 0 0 0.400002000000001
0

0101000
+355 0 -353 0 *
Ve
1e-07
490.837311 20.030109 0
0 0

0101101
*
Ed
 1e-07 1 1 0
1  172 0 0 1.82006899999999
0

0101000
+353 0 -351 0 *
Ve
1e-07
490.837311 20.430111 0
0 0

0101101
*
Ed
 1e-07 1 1 0
1  173 0 0 0.400002000000001
0

0101000
+351 0 -349 0 *
Ve
1e-07
489.591492 20.430111 0
0 0

0101101
*
Ed
 1e-07 1 1 0
1  174 0 0 1.24581899999998
0

0101000
+349 0 -347 0 *
Ve
1e-07
489.591492 23.355927 0
0 0

0101101
*
Ed
 1e-07 1 1 0
1  175 0 0 2.925816
0

0101000
+347 0 -345 0 *
Ve
1e-07
489.591492 26.281742 0
0 0

0101101
*
Ed
 1e-07 1 1 0
1  176 0 0 2.925815
0

0101000
+345 0 -343 0 *
Ve
1e-07
492.381744 26.281742 0
0 0

0101101
*
Ed
 1e-07 1 1 0
1  177 0 0 2.79025200000001
0

0101000
+343 0 -341 0 *
Ve
1e-07
492.381744 23.355927 0
0 0

0101101
*
Ed
 1e-07 1 1 0
1  178 0 0 2.925815
0

0101000
+341 0 -339 0 *
Ve
1e-07
492.381744 20.430111 0
0 0

0101101
*
Ed
 1e-07 1 1 0
1  179 0 0 2.925816
0

0101000
+339 0 -337 0 *
Ve
1e-07
492.15271 20.430111 0
0 0

0101101
*
Ed
 1e-07 1 1 0
1  180 0 0 0.229034000000013
0

0101000
+337 0 -335 0 *
Ve
1e-07
492.15271 20.030109 0
0 0

0101101
*
Ed
 1e-07 1 1 0
1  181 0 0 0.400002000000001
0

0101000
+335 0 -333 0 *
Ve
1e-07
494.375336 20.030109 0
0 0

0101101
*
Ed
 1e-07 1 1 0
1  182 0 0 2.22262599999999
0

0101000
+333 0 -331 0 *
Ve
1e-07
494.375336 20.430111 0
0 0

0101101
*
Ed
 1e-07 1 1 0
1  183 0 0 0.400002000000001
0

0101000
+331 0 -329 0 *
Ve
1e-07
492.781769 20.430111 0
0 0

0101101
*
Ed
 1e-07 1 1 0
1  184 0 0 1.59356700000001
0

0101000
+329 0 -327 0 *
Ve
1e-07
492.781769 23.355927 0
0 0

0101101
*
Ed
 1e-07 1 1 0
1  185 0 0 2.925816
0

0101000
+327 0 -325 0 *
Ve
1e-07
492.781769 26.281742 0
0 0

0101101
*
Ed
 1e-07 1 1 0
1  186 0 0 2.925815
0

0101000
+325 0 -323 0 *
Ve
1e-07
495.800812 26.281742 0
0 0

0101101
*
Ed
 1e-07 1 1 0
1  187 0 0 3.01904300000001
0

0101000
+323 0 -321 0 *
Ve
1e-07
495.800812 23.355927 0
0 0

0101101
*
Ed
 1e-07 1 1 0
1  188 0 0 2.925815
0

0101000
+321 0 -319 0 *
Ve
1e-07
495.800812 20.430111 0
0 0

0101101
*
Ed
 1e-07 1 1 0
1  189 0 0 2.925816
0

0101000
+319 0 -317 0 *
Ve
1e-07
495.375336 20.430111 0
0 0

0101101
*
Ed
 1e-07 1 1 0
1  190 0 0 0.425476000000003
0

0101000
+317 0 -315 0 *
Ve
1e-07
495.375336 20.030109 0
0 0

0101101
*
Ed
 1e-07 1 1 0
1  191 0 0 0.400002000000001
0

0101000
+315 0 -313 0 *
Ve
1e-07
495.800812 20.030109 0
0 0

0101101
*
Ed
 1e-07 1 1 0
1  192 0 0 0.425476000000003
0

0101000
+313 0 -311 0 *
Ve
1e-07
495.800812 16.719391 0
0 0

0101101
*
Ed
 1e-07 1 1 0
1  193 0 0 3.310718
0

0101000
+311 0 -309 0 *
Ve
1e-07
495.800812 13.408671 0
0 0

0101101
*
Ed
 1e-07 1 1 0
1  194 0 0 3.31072
0

0101000
+309 0 -307 0 *
Ve
1e-07
491.867554 13.408671 0
0 0

0101101
*
Ed
 1e-07 1 1 0
1  195 0 0 3.93325800000002
0

0101000
+307 0 -305 0 *
Ve
1e-07
491.867554 13.008671 0
0 0

0101101
*
Ed
 1e-07 1 1 0
1  196 0 0 0.4
0

0101000
+305 0 -303 0 *
Ve
1e-07
492.442047 13.008671 0
0 0

0101101
*
Ed
 1e-07 1 1 0
1  197 0 0 0.574493000000018
0

0101000
+303 0 -301 0 *
Ve
1e-07
492.442047 10.525787 0
0 0

0101101
*
Ed
 1e-07 1 1 0
1  198 0 0 2.482884
0

0101000
+301 0 -299 0 *
Ve
1e-07
489.03714 10.525787 0
0 0

0101101
*
Ed
 1e-07 1 1 0
1  199 0 0 3.40490699999998
0

0101000
+299 0 -297 0 *
Ve
1e-07
485.632233 10.525787 0
0 0

0101101
*
Ed
 1e-07 1 1 0
1  200 0 0 3.40490700000004
0

0101000
+297 0 -295 0 *
Ve
1e-07
485.632233 10.125787 0
0 0

0101101
*
Ed
 1e-07 1 1 0
1  201 0 0 0.399999999999999
0

0101000
+295 0 -293 0 *
Ve
1e-07
489.03714 10.125787 0
0 0

0101101
*
Ed
 1e-07 1 1 0
1  202 0 0 3.40490700000004
0

0101000
+293 0 -291 0 *
Ve
1e-07
492.442047 10.125787 0
0 0

0101101
*
Ed
 1e-07 1 1 0
1  203 0 0 3.40490699999998
0

0101000
+291 0 -289 0 *
Ve
1e-07
492.442047 6.860943 0
0 0

0101101
*
Ed
 1e-07 1 1 0
1  204 0 0 3.264844
0

0101000
+289 0 -287 0 *
Ve
1e-07
492.442047 3.596099 0
0 0

0101101
*
Ed
 1e-07 1 1 0
1  205 0 0 3.264844
0

0101000
+287 0 -285 0 *
Ve
1e-07
492.442047 0.331256 0
0 0

0101101
*
Ed
 1e-07 1 1 0
1  206 0 0 3.264843
0

0101000
+285 0 -283 0 *
Ve
1e-07
489.35022 0.331256 0
0 0

0101101
*
Ed
 1e-07 1 1 0
1  207 0 0 3.09182700000002
0

0101000
+283 0 -281 0 *
Ve
1e-07
486.258392 0.331256 0
0 0

0101101
*
Ed
 1e-07 1 1 0
1  208 0 0 3.09182799999996
0

0101000
+281 0 -279 0 *
Ve
1e-07
483.166534 0.331256 0
0 0

0101101
*
Ed
 1e-07 1 1 0
1  209 0 0 3.091858
0

0101000
+279 0 -277 0 *
Ve
1e-07
483.166534 3.696523 0
0 0

0101101
*
Ed
 1e-07 1 1 0
1  210 0 0 3.365267
0

0101000
+277 0 -275 0 *
Ve
1e-07
483.166534 7.06179 0
0 0

0101101
*
Ed
 1e-07 1 1 0
1  211 0 0 3.365267
0

0101000
+275 0 -273 0 *
Ve
1e-07
483.166534 10.427057 0
0 0

0101101
*
Ed
 1e-07 1 1 0
1  212 0 0 3.365267
0

0101000
+273 0 -271 0 *
Ve
1e-07
479.627014 10.427057 0
0 0

0101101
*
Ed
 1e-07 1 1 0
1  213 0 0 3.53952000000004
0

0101000
+271 0 -269 0 *
Ve
1e-07
476.087524 10.427057 0
0 0

0101101
*
Ed
 1e-07 1 1 0
1  214 0 0 3.53949
0

0101000
+269 0 -267 0 *
Ve
1e-07
472.548004 10.427057 0
0 0

0101101
*
Ed
 1e-07 1 1 0
1  215 0 0 3.53951999999998
0

0101000
+267 0 -265 0 *
Ve
1e-07
472.548004 7.696038 0
0 0

0101101
*
Ed
 1e-07 1 1 0
1  216 0 0 2.731019
0

0101000
+265 0 -263 0 *
Ve
1e-07
472.947998 7.696038 0
0 0

0101101
*
Ed
 1e-07 1 1 0
1  217 0 0 0.399993999999992
0

0101000
+263 0 -261 0 *
Ve
1e-07
472.947998 10.027057 0
0 0

0101101
*
Ed
 1e-07 1 1 0
1  218 0 0 2.331019
0

0101000
+261 0 -259 0 *
Ve
1e-07
476.197968 10.027057 0
0 0

0101101
*
Ed
 1e-07 1 1 0
1  219 0 0 3.24997000000002
0

0101000
+259 0 -257 0 *
Ve
1e-07
479.447906 10.027057 0
0 0

0101101
*
Ed
 1e-07 1 1 0
1  220 0 0 3.24993799999999
0

0101000
+257 0 -255 0 *
Ve
1e-07
479.447906 6.662618 0
0 0

0101101
*
Ed
 1e-07 1 1 0
1  221 0 0 3.364439
0

0101000
+255 0 -253 0 *
Ve
1e-07
475.997955 6.662618 0
0 0

0101101
*
Ed
 1e-07 1 1 0
1  222 0 0 3.449951
0

0101000
+253 0 -251 0 *
Ve
1e-07
472.548004 6.662618 0
0 0

0101101
*
Ed
 1e-07 1 1 0
1  223 0 0 3.449951
0

0101000
+251 0 -249 0 *
Ve
1e-07
472.548004 4.280989 0
0 0

0101101
*
Ed
 1e-07 1 1 0
1  224 0 0 2.381629
0

0101000
+249 0 -247 0 *
Ve
1e-07
472.548004 1.89936 0
0 0

0101101
*
Ed
 1e-07 1 1 0
1  225 0 0 2.381629
0

0101000
+247 0 -245 0 *
Ve
1e-07
472.947998 1.89936 0
0 0

0101101
*
Ed
 1e-07 1 1 0
1  226 0 0 0.399993999999992
0

0101000
+245 0 -243 0 *
Ve
1e-07
472.947998 6.262618 0
0 0

0101101
*
Ed
 1e-07 1 1 0
1  227 0 0 4.363258
0

0101000
+243 0 -241 0 *
Ve
1e-07
476.197968 6.262618 0
0 0

0101101
*
Ed
 1e-07 1 1 0
1  228 0 0 3.24997000000002
0

0101000
+241 0 -239 0 *
Ve
1e-07
479.447906 6.262618 0
0 0

0101101
*
Ed
 1e-07 1 1 0
1  229 0 0 3.24993799999999
0

0101000
+239 0 -237 0 *
Ve
1e-07
479.447906 3.296937 0
0 0

0101101
*
Ed
 1e-07 1 1 0
1  230 0 0 2.965681
0

0101000
+237 0 -235 0 *
Ve
1e-07
479.447906 0.331256 0
0 0

0101101
*
Ed
 1e-07 1 1 0
1  231 0 0 2.965681
0

0101000
+235 0 -233 0 *
Ve
1e-07
476.225647 0.331256 0
0 0

0101101
*
Ed
 1e-07 1 1 0
1  232 0 0 3.22225900000001
0

0101000
+233 0 -231 0 *
Ve
1e-07
473.003418 0.331256 0
0 0

0101101
*
Ed
 1e-07 1 1 0
1  233 0 0 3.22222899999997
0

0101000
+231 0 -229 0 *
Ve
1e-07
469.781158 0.331256 0
0 0

0101101
*
Ed
 1e-07 1 1 0
1  234 0 0 3.22226000000001
0

0101000
+229 0 -227 0 *
Ve
1e-07
469.781158 3.696523 0
0 0

0101101
*
Ed
 1e-07 1 1 0
1  235 0 0 3.365267
0

0101000
+227 0 -225 0 *
Ve
1e-07
469.781158 7.06179 0
0 0

0101101
*
Ed
 1e-07 1 1 0
1  236 0 0 3.365267
0

0101000
+225 0 -223 0 *
Ve
1e-07
469.781158 10.427057 0
0 0

0101101
*
Ed
 1e-07 1 1 0
1  237 0 0 3.365267
0

0101000
+223 0 -221 0 *
Ve
1e-07
466.332153 10.427057 0
0 0

0101101
*
Ed
 1e-07 1 1 0
1  238 0 0 3.449005
0

0101000
+221 0 -219 0 *
Ve
1e-07
462.883148 10.427057 0
0 0

0101101
*
Ed
 1e-07 1 1 0
1  239 0 0 3.449005
0

0101000
+219 0 -217 0 *
Ve
1e-07
459.434113 10.427057 0
0 0

0101101
*
Ed
 1e-07 1 1 0
1  240 0 0 3.44903499999998
0

0101000
+217 0 -215 0 *
Ve
1e-07
459.434113 6.820702 0
0 0

0101101
*
Ed
 1e-07 1 1 0
1  241 0 0 3.606355
0

0101000
+215 0 -213 0 *
Ve
1e-07
459.834137 6.820702 0
0 0

0101101
*
Ed
 1e-07 1 1 0
1  242 0 0 0.400023999999974
0

0101000
+213 0 -211 0 *
Ve
1e-07
459.834137 10.027057 0
0 0

0101101
*
Ed
 1e-07 1 1 0
1  243 0 0 3.206355
0

0101000
+211 0 -209 0 *
Ve
1e-07
462.937378 10.027057 0
0 0

0101101
*
Ed
 1e-07 1 1 0
1  244 0 0 3.10324100000003
0

0101000
+209 0 -207 0 *
Ve
1e-07
466.040649 10.027057 0
0 0

0101101
*
Ed
 1e-07 1 1 0
1  245 0 0 3.10327099999995
0

0101000
+207 0 -205 0 *
Ve
1e-07
466.040649 5.812421 0
0 0

0101101
*
Ed
 1e-07 1 1 0
1  246 0 0 4.214636
0

0101000
+205 0 -203 0 *
Ve
1e-07
462.737396 5.812421 0
0 0

0101101
*
Ed
 1e-07 1 1 0
1  247 0 0 3.30325299999998
0

0101000
+203 0 -201 0 *
Ve
1e-07
459.434113 5.812421 0
0 0

0101101
*
Ed
 1e-07 1 1 0
1  248 0 0 3.30328299999996
0

0101000
+201 0 -199 0 *
Ve
1e-07
459.434113 1.893763 0
0 0

0101101
*
Ed
 1e-07 1 1 0
1  249 0 0 3.918658
0

0101000
+199 0 -197 0 *
Ve
1e-07
459.834137 1.893763 0
0 0

0101101
*
Ed
 1e-07 1 1 0
1  250 0 0 0.400023999999974
0

0101000
+197 0 -195 0 *
Ve
1e-07
459.834137 5.412421 0
0 0

0101101
*
Ed
 1e-07 1 1 0
1  251 0 0 3.518658
0

0101000
+195 0 -193 0 *
Ve
1e-07
462.937378 5.412421 0
0 0

0101101
*
Ed
 1e-07 1 1 0
1  252 0 0 3.10324100000003
0

0101000
+193 0 -191 0 *
Ve
1e-07
466.040649 5.412421 0
0 0

0101101
*
Ed
 1e-07 1 1 0
1  253 0 0 3.10327099999995
0

0101000
+191 0 -189 0 *
Ve
1e-07
466.040649 2.871838 0
0 0

0101101
*
Ed
 1e-07 1 1 0
1  254 0 0 2.540583
0

0101000
+189 0 -187 0 *
Ve
1e-07
466.040649 0.331256 0
0 0

0101101
*
Ed
 1e-07 1 1 0
1  255 0 0 2.540582
0

0101000
+187 0 -185 0 *
Ve
1e-07
462.918945 0.331256 0
0 0

0101101
*
Ed
 1e-07 1 1 0
1  256 0 0 3.12170399999997
0

0101000
+185 0 -183 0 *
Ve
1e-07
459.797241 0.331256 0
0 0

0101101
*
Ed
 1e-07 1 1 0
1  257 0 0 3.12170400000002
0

0101000
+183 0 -181 0 *
Ve
1e-07
456.675537 0.331256 0
0 0

0101101
*
Ed
 1e-07 1 1 0
1  258 0 0 3.12170399999997
0

0101000
+181 0 -179 0 *
Ve
1e-07
456.675537 3.696523 0
0 0

0101101
*
Ed
 1e-07 1 1 0
1  259 0 0 3.365267
0

0101000
+179 0 -177 0 *
Ve
1e-07
456.675537 7.06179 0
0 0

0101101
*
Ed
 1e-07 1 1 0
1  260 0 0 3.365267
0

0101000
+177 0 -175 0 *
Ve
1e-07
456.675537 10.427057 0
0 0

0101101
*
Ed
 1e-07 1 1 0
1  261 0 0 3.365267
0

0101000
+175 0 -173 0 *
Ve
1e-07
452.816864 10.427057 0
0 0

0101101
*
Ed
 1e-07 1 1 0
1  262 0 0 3.85867300000001
0

0101000
+173 0 -171 0 *
Ve
1e-07
448.958191 10.427057 0
0 0

0101101
*
Ed
 1e-07 1 1 0
1  263 0 0 3.85867300000001
0

0101000
+171 0 -169 0 *
Ve
1e-07
448.958191 7.174463 0
0 0

0101101
*
Ed
 1e-07 1 1 0
1  264 0 0 3.252594
0

0101000
+169 0 -167 0 *
Ve
1e-07
449.358185 7.174463 0
0 0

0101101
*
Ed
 1e-07 1 1 0
1  265 0 0 0.399993999999992
0

0101000
+167 0 -165 0 *
Ve
1e-07
449.358185 10.027057 0
0 0

0101101
*
Ed
 1e-07 1 1 0
1  266 0 0 2.852594
0

0101000
+165 0 -163 0 *
Ve
1e-07
453.089233 10.027057 0
0 0

0101101
*
Ed
 1e-07 1 1 0
1  267 0 0 3.73104799999999
0

0101000
+163 0 -161 0 *
Ve
1e-07
453.089233 5.819824 0
0 0

0101101
*
Ed
 1e-07 1 1 0
1  268 0 0 4.207233
0

0101000
+161 0 -159 0 *
Ve
1e-07
449.273071 5.819824 0
0 0

0101101
*
Ed
 1e-07 1 1 0
1  269 0 0 3.81616199999996
0

0101000
+159 0 -157 0 *
Ve
1e-07
449.273071 5.419824 0
0 0

0101101
*
Ed
 1e-07 1 1 0
1  270 0 0 0.399999999999999
0

0101000
+157 0 -155 0 *
Ve
1e-07
453.089233 5.419824 0
0 0

0101101
*
Ed
 1e-07 1 1 0
1  271 0 0 3.81616199999996
0

0101000
+155 0 -153 0 *
Ve
1e-07
453.089233 2.87554 0
0 0

0101101
*
Ed
 1e-07 1 1 0
1  272 0 0 2.544284
0

0101000
+153 0 -151 0 *
Ve
1e-07
453.089233 0.331256 0
0 0

0101101
*
Ed
 1e-07 1 1 0
1  273 0 0 2.544284
0

0101000
+151 0 -149 0 *
Ve
1e-07
449.833588 0.331256 0
0 0

0101101
*
Ed
 1e-07 1 1 0
1  274 0 0 3.25564499999996
0

0101000
+149 0 -147 0 *
Ve
1e-07
446.577972 0.331256 0
0 0

0101101
*
Ed
 1e-07 1 1 0
1  275 0 0 3.25561600000003
0

0101000
+147 0 -145 0 *
Ve
1e-07
443.322357 0.331256 0
0 0

0101101
*
Ed
 1e-07 1 1 0
1  276 0 0 3.25561499999998
0

0101000
+145 0 -143 0 *
Ve
1e-07
443.322357 2.912499 0
0 0

0101101
*
Ed
 1e-07 1 1 0
1  277 0 0 2.581243
0

0101000
+143 0 -141 0 *
Ve
1e-07
443.322357 5.493743 0
0 0

0101101
*
Ed
 1e-07 1 1 0
1  278 0 0 2.581244
0

0101000
+141 0 -139 0 *
Ve
1e-07
446.55835 5.493743 0
0 0

0101101
*
Ed
 1e-07 1 1 0
1  279 0 0 3.23599300000001
0

0101000
+139 0 -137 0 *
Ve
1e-07
446.55835 5.98981 0
0 0

0101101
*
Ed
 1e-07 1 1 0
1  280 0 0 0.496067
0

0101000
+137 0 -135 0 *
Ve
1e-07
446.158356 5.98981 0
0 0

0101101
*
Ed
 1e-07 1 1 0
1  281 0 0 0.399993999999992
0

0101000
+135 0 -133 0 *
Ve
1e-07
446.158356 5.893743 0
0 0

0101101
*
Ed
 1e-07 1 1 0
1  282 0 0 0.0960670000000006
0

0101000
+133 0 -131 0 *
Ve
1e-07
443.322357 5.893743 0
0 0

0101101
*
Ed
 1e-07 1 1 0
1  283 0 0 2.83599900000002
0

0101000
+131 0 -129 0 *
Ve
1e-07
443.322357 6.932052 0
0 0

0101101
*
Ed
 1e-07 1 1 0
1  284 0 0 1.038309
0

0101000
+129 0 -127 0 *
Ve
1e-07
446.55835 6.932052 0
0 0

0101101
*
Ed
 1e-07 1 1 0
1  285 0 0 3.23599300000001
0

0101000
+127 0 -125 0 *
Ve
1e-07
446.55835 7.332052 0
0 0

0101101
*
Ed
 1e-07 1 1 0
1  286 0 0 0.4
0

0101000
+125 0 -123 0 *
Ve
1e-07
443.322357 7.332052 0
0 0

0101101
*
Ed
 1e-07 1 1 0
1  287 0 0 3.23599300000001
0

0101000
+123 0 -121 0 *
Ve
1e-07
443.322357 8.377049 0
0 0

0101101
*
Ed
 1e-07 1 1 0
1  288 0 0 1.044997
0

0101000
+121 0 -119 0 *
Ve
1e-07
446.55835 8.377049 0
0 0

0101101
*
Ed
 1e-07 1 1 0
1  289 0 0 3.23599300000001
0

0101000
+119 0 -117 0 *
Ve
1e-07
446.55835 8.77705 0
0 0

0101101
*
Ed
 1e-07 1 1 0
1  290 0 0 0.400001
0

0101000
+117 0 -115 0 *
Ve
1e-07
443.322357 8.77705 0
0 0

0101101
*
Ed
 1e-07 1 1 0
1  291 0 0 3.23599300000001
0

0101000
+115 0 -113 0 *
Ve
1e-07
443.322357 10.027057 0
0 0

0101101
*
Ed
 1e-07 1 1 0
1  292 0 0 1.250007
0

0101000
+113 0 -111 0 *
Ve
1e-07
446.158356 10.027057 0
0 0

0101101
*
Ed
 1e-07 1 1 0
1  293 0 0 2.83599900000002
0

0101000
+111 0 -109 0 *
Ve
1e-07
446.158356 9.946903 0
0 0

0101101
*
Ed
 1e-07 1 1 0
1  294 0 0 0.0801539999999985
0

0101000
+109 0 -107 0 *
Ve
1e-07
446.55835 9.946903 0
0 0

0101101
*
Ed
 1e-07 1 1 0
1  295 0 0 0.399993999999992
0

0101000
+107 0 -105 0 *
Ve
1e-07
446.55835 10.427057 0
0 0

0101101
*
Ed
 1e-07 1 1 0
1  296 0 0 0.480153999999999
0

0101000
+105 0 -103 0 *
Ve
1e-07
443.35733 10.427057 0
0 0

0101101
*
Ed
 1e-07 1 1 0
1  297 0 0 3.20102000000003
0

0101000
+103 0 -101 0 *
Ve
1e-07
440.156311 10.427057 0
0 0

0101101
*
Ed
 1e-07 1 1 0
1  298 0 0 3.20101899999997
0

0101000
+101 0 -99 0 *
Ve
1e-07
436.955261 10.427057 0
0 0

0101101
*
Ed
 1e-07 1 1 0
1  299 0 0 3.20105000000001
0

0101000
+99 0 -97 0 *
Ve
1e-07
436.955261 10.027057 0
0 0

0101101
*
Ed
 1e-07 1 1 0
1  300 0 0 0.4
0

0101000
+97 0 -95 0 *
Ve
1e-07
439.938812 10.027057 0
0 0

0101101
*
Ed
 1e-07 1 1 0
1  301 0 0 2.98355099999998
0

0101000
+95 0 -93 0 *
Ve
1e-07
442.922363 10.027057 0
0 0

0101101
*
Ed
 1e-07 1 1 0
1  302 0 0 2.98355100000003
0

0101000
+93 0 -91 0 *
Ve
1e-07
442.922363 6.795123 0
0 0

0101101
*
Ed
 1e-07 1 1 0
1  303 0 0 3.231934
0

0101000
+91 0 -89 0 *
Ve
1e-07
442.922363 3.56319 0
0 0

0101101
*
Ed
 1e-07 1 1 0
1  304 0 0 3.231933
0

0101000
+89 0 -87 0 *
Ve
1e-07
442.922363 0.331256 0
0 0

0101101
*
Ed
 1e-07 1 1 0
1  305 0 0 3.231934
0

0101000
+87 0 -85 0 *
Ve
1e-07
440.071777 0.331256 0
0 0

0101101
*
Ed
 1e-07 1 1 0
1  306 0 0 2.85058600000002
0

0101000
+85 0 -83 0 *
Ve
1e-07
440.071777 3.200181 0
0 0

0101101
*
Ed
 1e-07 1 1 0
1  307 0 0 2.868925
0

0101000
+83 0 -81 0 *
Ve
1e-07
440.071777 6.069106 0
0 0

0101101
*
Ed
 1e-07 1 1 0
1  308 0 0 2.868925
0

0101000
+81 0 -79 0 *
Ve
1e-07
435.964783 6.069106 0
0 0

0101101
*
Ed
 1e-07 1 1 0
1  309 0 0 4.10699399999999
0

0101000
+79 0 -77 0 *
Ve
1e-07
435.964783 5.669106 0
0 0

0101101
*
Ed
 1e-07 1 1 0
1  310 0 0 0.399999999999999
0

0101000
+77 0 -75 0 *
Ve
1e-07
439.671753 5.669106 0
0 0

0101101
*
Ed
 1e-07 1 1 0
1  311 0 0 3.70697000000001
0

0101000
+75 0 -73 0 *
Ve
1e-07
439.671753 3.000181 0
0 0

0101101
*
Ed
 1e-07 1 1 0
1  312 0 0 2.668925
0

0101000
+73 0 -71 0 *
Ve
1e-07
439.671753 0.331256 0
0 0

0101101
*
Ed
 1e-07 1 1 0
1  313 0 0 2.668925
0

0101000
+71 0 -69 0 *
Ve
1e-07
437.231934 0.331256 0
0 0

0101101
*
Ed
 1e-07 1 1 0
1  314 0 0 2.439819
0

0101000
+69 0 -67 0 *
Ve
1e-07
434.792114 0.331256 0
0 0

0101101
*
Ed
 1e-07 1 1 0
1  315 0 0 2.43982
0

0101000
+67 0 -65 0 *
Ve
1e-07
434.792114 4.13261 0
0 0

0101101
*
Ed
 1e-07 1 1 0
1  316 0 0 3.801354
0

0101000
+65 0 -63 0 *
Ve
1e-07
434.792114 7.933964 0
0 0

0101101
*
Ed
 1e-07 1 1 0
1  317 0 0 3.801354
0

0101000
+63 0 -61 0 *
Ve
1e-07
434.39212 7.933964 0
0 0

0101101
*
Ed
 1e-07 1 1 0
1  318 0 0 0.399994000000049
0

0101000
+61 0 -59 0 *
Ve
1e-07
434.39212 4.13261 0
0 0

0101101
*
Ed
 1e-07 1 1 0
1  319 0 0 3.801354
0

0101000
+59 0 -57 0 *
Ve
1e-07
434.39212 0.331256 0
0 0

0101101
*
Ed
 1e-07 1 1 0
1  320 0 0 3.801354
0

0101000
+57 0 -55 0 *
Ve
1e-07
430.479401 0.331256 0
0 0

0101101
*
Ed
 1e-07 1 1 0
1  321 0 0 3.91271899999998
0

0101000
+55 0 -53 0 *
Ve
1e-07
426.56665 0.331256 0
0 0

0101101
*
Ed
 1e-07 1 1 0
1  322 0 0 3.91275100000001
0

0101000
+53 0 -51 0 *
Ve
1e-07
426.56665 3.041616 0
0 0

0101101
*
Ed
 1e-07 1 1 0
1  323 0 0 2.71036
0

0101000
+51 0 -49 0 *
Ve
1e-07
426.56665 5.751976 0
0 0

0101101
*
Ed
 1e-07 1 1 0
1  324 0 0 2.71036
0

0101000
+49 0 -47 0 *
Ve
1e-07
429.822357 5.751976 0
0 0

0101101
*
Ed
 1e-07 1 1 0
1  325 0 0 3.25570700000003
0

0101000
+47 0 -45 0 *
Ve
1e-07
433.078033 5.751976 0
0 0

0101101
*
Ed
 1e-07 1 1 0
1  326 0 0 3.25567599999999
0

0101000
+45 0 -43 0 *
Ve
1e-07
433.078033 6.151976 0
0 0

0101101
*
Ed
 1e-07 1 1 0
1  327 0 0 0.4
0

0101000
+43 0 -41 0 *
Ve
1e-07
429.822357 6.151976 0
0 0

0101101
*
Ed
 1e-07 1 1 0
1  328 0 0 3.25567599999999
0

0101000
+41 0 -39 0 *
Ve
1e-07
426.56665 6.151976 0
0 0

0101101
*
Ed
 1e-07 1 1 0
1  329 0 0 3.25570700000003
0

0101000
+39 0 -37 0 *
Ve
1e-07
426.56665 10.027057 0
0 0

0101101
*
Ed
 1e-07 1 1 0
1  330 0 0 3.875081
0

0101000
+37 0 -35 0 *
Ve
1e-07
430.479401 10.027057 0
0 0

0101101
*
Ed
 1e-07 1 1 0
1  331 0 0 3.91275100000001
0

0101000
+35 0 -33 0 *
Ve
1e-07
434.39212 10.027057 0
0 0

0101101
*
Ed
 1e-07 1 1 0
1  332 0 0 3.91271899999998
0

0101000
+33 0 -31 0 *
Ve
1e-07
434.39212 9.227057 0
0 0

0101101
*
Ed
 1e-07 1 1 0
1  333 0 0 0.799999999999999
0

0101000
+31 0 -29 0 *
Ve
1e-07
434.792114 9.227057 0
0 0

0101101
*
Ed
 1e-07 1 1 0
1  334 0 0 0.399994000000049
0

0101000
+29 0 -27 0 *
Ve
1e-07
434.792114 10.027057 0
0 0

0101101
*
Ed
 1e-07 1 1 0
1  335 0 0 0.799999999999999
0

0101000
+27 0 -25 0 *
Ve
1e-07
435.955261 10.027057 0
0 0

0101101
*
Ed
 1e-07 1 1 0
1  336 0 0 1.16314699999998
0

0101000
+25 0 -23 0 *
Ve
1e-07
435.955261 10.427057 0
0 0

0101101
*
Ed
 1e-07 1 1 0
1  337 0 0 0.4
0

0101000
+23 0 -21 0 *
Ve
1e-07
432.692413 10.427057 0
0 0

0101101
*
Ed
 1e-07 1 1 0
1  338 0 0 3.26284800000002
0

0101000
+21 0 -19 0 *
Ve
1e-07
429.429535 10.427057 0
0 0

0101101
*
Ed
 1e-07 1 1 0
1  339 0 0 3.262878
0

0101000
+19 0 -17 0 *
Ve
1e-07
426.166656 10.427057 0
0 0

0101101
*
Ed
 1e-07 1 1 0
1  340 0 0 3.262879
0

0101000
+17 0 -15 0 *
Ve
1e-07
426.166656 7.582214 0
0 0

0101101
*
Ed
 1e-07 1 1 0
1  341 0 0 2.844843
0

0101000
+15 0 -13 0 *
Ve
1e-07
423.198181 7.582214 0
0 0

0101101
*
Ed
 1e-07 1 1 0
1  342 0 0 2.96847500000001
0

0101000
+13 0 -11 0 *
Ve
1e-07
420.229675 7.582214 0
0 0

0101101
*
Ed
 1e-07 1 1 0
1  343 0 0 2.96850599999999
0

0101000
+11 0 -9 0 *
Ve
1e-07
420.229675 10.080834 0
0 0

0101101
*
Ed
 1e-07 1 1 0
1  344 0 0 2.49862
0

0101000
+9 0 -7 0 *
Ed
 1e-07 1 1 0
1  345 0 0 3.52288800000002
0

0101000
+7 0 -694 0 *
Wi

0101100
+692 0 +690 0 +688 0 +686 0 +684 0 +682 0 +680 0 +678 0 +676 0 +674 0 
+672 0 +670 0 +668 0 +666 0 +664 0 +662 0 +660 0 +658 0 +656 0 +654 0 
+652 0 +650 0 +648 0 +646 0 +644 0 +642 0 +640 0 +638 0 +636 0 +634 0 
+632 0 +630 0 +628 0 +626 0 +624 0 +622 0 +620 0 +618 0 +616 0 +614 0 
+612 0 +610 0 +608 0 +606 0 +604 0 +602 0 +600 0 +598 0 +596 0 +594 0 
+592 0 +590 0 +588 0 +586 0 +584 0 +582 0 +580 0 +578 0 +576 0 +574 0 
+572 0 +570 0 +568 0 +566 0 +564 0 +562 0 +560 0 +558 0 +556 0 +554 0 
+552 0 +550 0 +548 0 +546 0 +544 0 +542 0 +540 0 +538 0 +536 0 +534 0 
+532 0 +530 0 +528 0 +526 0 +524 0 +522 0 +520 0 +518 0 +516 0 +514 0 
+512 0 +510 0 +508 0 +506 0 +504 0 +502 0 +500 0 +498 0 +496 0 +494 0 
+492 0 +490 0 +488 0 +486 0 +484 0 +482 0 +480 0 +478 0 +476 0 +474 0 
+472 0 +470 0 +468 0 +466 0 +464 0 +462 0 +460 0 +458 0 +456 0 +454 0 
+452 0 +450 0 +448 0 +446 0 +444 0 +442 0 +440 0 +438 0 +436 0 +434 0 
+432 0 +430 0 +428 0 +426 0 +424 0 +422 0 +420 0 +418 0 +416 0 +414 0 
+412 0 +410 0 +408 0 +406 0 +404 0 +402 0 +400 0 +398 0 +396 0 +394 0 
+392 0 +390 0 +388 0 +386 0 +384 0 +382 0 +380 0 +378 0 +376 0 +374 0 
+372 0 +370 0 +368 0 +366 0 +364 0 +362 0 +360 0 +358 0 +356 0 +354 0 
+352 0 +350 0 +348 0 +346 0 +344 0 +342 0 +340 0 +338 0 +336 0 +334 0 
+332 0 +330 0 +328 0 +326 0 +324 0 +322 0 +320 0 +318 0 +316 0 +314 0 
+312 0 +310 0 +308 0 +306 0 +304 0 +302 0 +300 0 +298 0 +296 0 +294 0 
+292 0 +290 0 +288 0 +286 0 +284 0 +282 0 +280 0 +278 0 +276 0 +274 0 
+272 0 +270 0 +268 0 +266 0 +264 0 +262 0 +260 0 +258 0 +256 0 +254 0 
+252 0 +250 0 +248 0 +246 0 +244 0 +242 0 +240 0 +238 0 +236 0 +234 0 
+232 0 +230 0 +228 0 +226 0 +224 0 +222 0 +220 0 +218 0 +216 0 +214 0 
+212 0 +210 0 +208 0 +206 0 +204 0 +202 0 +200 0 +198 0 +196 0 +194 0 
+192 0 +190 0 +188 0 +186 0 +184 0 +182 0 +180 0 +178 0 +176 0 +174 0 
+172 0 +170 0 +168 0 +166 0 +164 0 +162 0 +160 0 +158 0 +156 0 +154 0 
+152 0 +150 0 +148 0 +146 0 +144 0 +142 0 +140 0 +138 0 +136 0 +134 0 
+132 0 +130 0 +128 0 +126 0 +124 0 +122 0 +120 0 +118 0 +116 0 +114 0 
+112 0 +110 0 +108 0 +106 0 +104 0 +102 0 +100 0 +98 0 +96 0 +94 0 
+92 0 +90 0 +88 0 +86 0 +84 0 +82 0 +80 0 +78 0 +76 0 +74 0 
+72 0 +70 0 +68 0 +66 0 +64 0 +62 0 +60 0 +58 0 +56 0 +54 0 
+52 0 +50 0 +48 0 +46 0 +44 0 +42 0 +40 0 +38 0 +36 0 +34 0 
+32 0 +30 0 +28 0 +26 0 +24 0 +22 0 +20 0 +18 0 +16 0 +14 0 
+12 0 +10 0 +8 0 +6 0 +5 0 *
Fa
0  1e-07 1 0

0111000
+4 0 *
Co

0100000
+3 0 *
Co

1100000
+2 0 *

+1 0 