# Rhino

g object_1
v 44.842006269592616 5.6999999999999975 -58.578996865198434
v 44.232601880877752 0 -58.578996865198434
v 44.842006269592616 0 -58.578996865198434
v 44.232601880877752 5.6999999999999975 -58.578996865198434
v 44.232601880877752 5.6999999999999975 -59.175705329148286
v 44.232601880877752 0 -59.175705329148286
v 44.842006269592616 0 -59.175705329148286
v 44.842006269592616 5.6999999999999975 -59.175705329148286
f 2 3 1 4
f 2 4 5 6
f 1 3 7 8
f 7 6 5 8
f 5 4 1 8
f 2 6 7 3
g object_2
v 40.042946708464115 5.6999999999999975 -58.578996865198441
v 39.43354231974925 0 -58.578996865198441
v 40.042946708464115 0 -58.578996865198441
v 39.43354231974925 5.6999999999999975 -58.578996865198441
v 39.43354231974925 5.6999999999999975 -59.175705329148286
v 39.43354231974925 0 -59.175705329148286
v 40.042946708464115 0 -59.175705329148286
v 40.042946708464115 5.6999999999999975 -59.175705329148286
f 10 11 9 12
f 10 12 13 14
f 9 11 15 16
f 15 14 13 16
f 13 12 9 16
f 10 14 15 11
g object_3
v 51.037617554858997 5.6999999999999975 -52.599216300940398
v 50.428213166144133 0 -52.599216300940398
v 51.037617554858997 0 -52.599216300940398
v 50.428213166144133 5.6999999999999975 -52.599216300940398
v 50.428213166144133 5.6999999999999975 -53.195924764890243
v 50.428213166144133 0 -53.195924764890243
v 51.037617554858997 0 -53.195924764890243
v 51.037617554858997 5.6999999999999975 -53.195924764890243
f 18 19 17 20
f 18 20 21 22
f 17 19 23 24
f 23 22 21 24
f 21 20 17 24
f 18 22 23 19
g object_4
v 36.043730407523611 5.6999999999999975 -52.192946708463893
v 35.434326018808747 0 -52.192946708463893
v 36.043730407523611 0 -52.192946708463893
v 35.434326018808747 5.6999999999999975 -52.192946708463893
v 35.434326018808747 5.6999999999999975 -52.789655172413738
v 35.434326018808747 0 -52.789655172413738
v 36.043730407523611 0 -52.789655172413738
v 36.043730407523611 5.6999999999999975 -52.789655172413738
f 26 27 25 28
f 26 28 29 30
f 25 27 31 32
f 31 30 29 32
f 29 28 25 32
f 26 30 31 27
g object_5
v 36.043730407523611 5.6999999999999975 -58.566300940438815
v 35.434326018808747 0 -58.566300940438815
v 36.043730407523611 0 -58.566300940438815
v 35.434326018808747 5.6999999999999975 -58.566300940438815
v 35.434326018808747 5.6999999999999975 -59.16300940438866
v 35.434326018808747 0 -59.16300940438866
v 36.043730407523611 0 -59.16300940438866
v 36.043730407523611 5.6999999999999975 -59.16300940438866
f 34 35 33 36
f 34 36 37 38
f 33 35 39 40
f 39 38 37 40
f 37 36 33 40
f 34 38 39 35
g object_6
v 36.043730407523583 15.499999999999773 -30.698746081504702
v 35.434326018808747 10.999999999999787 -30.698746081504702
v 36.043730407523583 10.999999999999787 -30.698746081504702
v 35.434326018808747 15.499999999999773 -30.698746081504702
v 35.434326018808747 15.499999999999773 -31.295454545454554
v 35.434326018808747 10.999999999999787 -31.295454545454554
v 36.043730407523583 10.999999999999787 -31.295454545454554
v 36.043730407523583 15.499999999999773 -31.295454545454554
f 42 43 41 44
f 42 44 45 46
f 41 43 47 48
f 47 46 45 48
f 45 44 41 48
f 42 46 47 43
g object_7
v 36.043730407523583 15.499999999999773 -6.3987460815046981
v 35.434326018808747 10.999999999999787 -6.3987460815046981
v 36.043730407523583 10.999999999999787 -6.3987460815046981
v 35.434326018808747 15.499999999999773 -6.3987460815046981
v 35.434326018808747 15.499999999999773 -6.9954545454545363
v 35.434326018808747 10.999999999999787 -6.9954545454545363
v 36.043730407523583 10.999999999999787 -6.9954545454545363
v 36.043730407523583 15.499999999999773 -6.9954545454545363
f 50 51 49 52
f 50 52 53 54
f 49 51 55 56
f 55 54 53 56
f 53 52 49 56
f 50 54 55 51
g object_8
v 44.842006269592616 15.499999999999773 -6.3987460815046981
v 44.232601880877723 10.999999999999787 -6.3987460815046981
v 44.842006269592616 10.999999999999787 -6.3987460815046981
v 44.232601880877723 15.499999999999773 -6.3987460815046981
v 44.232601880877723 15.499999999999773 -6.9954545454545363
v 44.232601880877723 10.999999999999787 -6.9954545454545363
v 44.842006269592616 10.999999999999787 -6.9954545454545363
v 44.842006269592616 15.499999999999773 -6.9954545454545363
f 58 59 57 60
f 58 60 61 62
f 57 59 63 64
f 63 62 61 64
f 61 60 57 64
f 58 62 63 59
g object_9
v 51.037617554858969 15.499999999999773 -14.498746081504706
v 50.428213166144133 10.999999999999787 -14.498746081504706
v 51.037617554858969 10.999999999999787 -14.498746081504706
v 50.428213166144133 15.499999999999773 -14.498746081504706
v 50.428213166144133 15.499999999999773 -15.095454545454544
v 50.428213166144133 10.999999999999787 -15.095454545454544
v 51.037617554858969 10.999999999999787 -15.095454545454544
v 51.037617554858969 15.499999999999773 -15.095454545454544
f 66 67 65 68
f 66 68 69 70
f 65 67 71 72
f 71 70 69 72
f 69 68 65 72
f 66 70 71 67
g object_10
v 51.037617554858969 15.499999999999773 -30.698746081504702
v 50.428213166144133 10.999999999999787 -30.698746081504702
v 51.037617554858969 10.999999999999787 -30.698746081504702
v 50.428213166144133 15.499999999999773 -30.698746081504702
v 50.428213166144133 15.499999999999773 -31.295454545454554
v 50.428213166144133 10.999999999999787 -31.295454545454554
v 51.037617554858969 10.999999999999787 -31.295454545454554
v 51.037617554858969 15.499999999999773 -31.295454545454554
f 74 75 73 76
f 74 76 77 78
f 73 75 79 80
f 79 78 77 80
f 77 76 73 80
f 74 78 79 75
g object_11
v 36.043730407523583 15.499999999999773 -22.598746081504714
v 35.434326018808747 10.999999999999787 -22.598746081504714
v 36.043730407523583 10.999999999999787 -22.598746081504714
v 35.434326018808747 15.499999999999773 -22.598746081504714
v 35.434326018808747 15.499999999999773 -23.195454545454552
v 35.434326018808747 10.999999999999787 -23.195454545454552
v 36.043730407523583 10.999999999999787 -23.195454545454552
v 36.043730407523583 15.499999999999773 -23.195454545454552
f 82 83 81 84
f 82 84 85 86
f 81 83 87 88
f 87 86 85 88
f 85 84 81 88
f 82 86 87 83
g object_12
v 44.842006269592616 15.499999999999773 -22.598746081504714
v 44.232601880877723 10.999999999999787 -22.598746081504714
v 44.842006269592616 10.999999999999787 -22.598746081504714
v 44.232601880877723 15.499999999999773 -22.598746081504714
v 44.232601880877723 15.499999999999773 -23.195454545454552
v 44.232601880877723 10.999999999999787 -23.195454545454552
v 44.842006269592616 10.999999999999787 -23.195454545454552
v 44.842006269592616 15.499999999999773 -23.195454545454552
f 90 91 89 92
f 90 92 93 94
f 89 91 95 96
f 95 94 93 96
f 93 92 89 96
f 90 94 95 91
g object_13
v 51.037617554858969 15.499999999999773 -46.898746081504704
v 50.428213166144133 10.999999999999787 -46.898746081504704
v 51.037617554858969 10.999999999999787 -46.898746081504704
v 50.428213166144133 15.499999999999773 -46.898746081504704
v 50.428213166144133 15.499999999999773 -47.49545454545455
v 50.428213166144133 10.999999999999787 -47.49545454545455
v 51.037617554858969 10.999999999999787 -47.49545454545455
v 51.037617554858969 15.499999999999773 -47.49545454545455
f 98 99 97 100
f 98 100 101 102
f 97 99 103 104
f 103 102 101 104
f 101 100 97 104
f 98 102 103 99
g object_14
v 51.037617554858969 15.499999999999773 -6.3987460815046981
v 50.428213166144133 10.999999999999787 -6.3987460815046981
v 51.037617554858969 10.999999999999787 -6.3987460815046981
v 50.428213166144133 15.499999999999773 -6.3987460815046981
v 50.428213166144133 15.499999999999773 -6.9954545454545363
v 50.428213166144133 10.999999999999787 -6.9954545454545363
v 51.037617554858969 10.999999999999787 -6.9954545454545363
v 51.037617554858969 15.499999999999773 -6.9954545454545363
f 106 107 105 108
f 106 108 109 110
f 105 107 111 112
f 111 110 109 112
f 109 108 105 112
f 106 110 111 107
g object_15
v 44.842006269592616 15.499999999999773 -14.498746081504706
v 44.232601880877723 10.999999999999787 -14.498746081504706
v 44.842006269592616 10.999999999999787 -14.498746081504706
v 44.232601880877723 15.499999999999773 -14.498746081504706
v 44.232601880877723 15.499999999999773 -15.095454545454544
v 44.232601880877723 10.999999999999787 -15.095454545454544
v 44.842006269592616 10.999999999999787 -15.095454545454544
v 44.842006269592616 15.499999999999773 -15.095454545454544
f 114 115 113 116
f 114 116 117 118
f 113 115 119 120
f 119 118 117 120
f 117 116 113 120
f 114 118 119 115
g object_16
v 36.043730407523583 15.499999999999773 -14.498746081504706
v 35.434326018808747 10.999999999999787 -14.498746081504706
v 36.043730407523583 10.999999999999787 -14.498746081504706
v 35.434326018808747 15.499999999999773 -14.498746081504706
v 35.434326018808747 15.499999999999773 -15.095454545454544
v 35.434326018808747 10.999999999999787 -15.095454545454544
v 36.043730407523583 10.999999999999787 -15.095454545454544
v 36.043730407523583 15.499999999999773 -15.095454545454544
f 122 123 121 124
f 122 124 125 126
f 121 123 127 128
f 127 126 125 128
f 125 124 121 128
f 122 126 127 123
g object_17
v 51.037617554858969 15.499999999999773 -38.79874608150471
v 50.428213166144133 10.999999999999787 -38.79874608150471
v 51.037617554858969 10.999999999999787 -38.79874608150471
v 50.428213166144133 15.499999999999773 -38.79874608150471
v 50.428213166144133 15.499999999999773 -39.395454545454555
v 50.428213166144133 10.999999999999787 -39.395454545454555
v 51.037617554858969 10.999999999999787 -39.395454545454555
v 51.037617554858969 15.499999999999773 -39.395454545454555
f 130 131 129 132
f 130 132 133 134
f 129 131 135 136
f 135 134 133 136
f 133 132 129 136
f 130 134 135 131
g object_18
v 51.037617554858969 15.499999999999773 -22.598746081504714
v 50.428213166144133 10.999999999999787 -22.598746081504714
v 51.037617554858969 10.999999999999787 -22.598746081504714
v 50.428213166144133 15.499999999999773 -22.598746081504714
v 50.428213166144133 15.499999999999773 -23.195454545454552
v 50.428213166144133 10.999999999999787 -23.195454545454552
v 51.037617554858969 10.999999999999787 -23.195454545454552
v 51.037617554858969 15.499999999999773 -23.195454545454552
f 138 139 137 140
f 138 140 141 142
f 137 139 143 144
f 143 142 141 144
f 141 140 137 144
f 138 142 143 139
g object_19
v 36.043730407523583 15.499999999999773 -46.898746081504704
v 35.434326018808747 10.999999999999787 -46.898746081504704
v 36.043730407523583 10.999999999999787 -46.898746081504704
v 35.434326018808747 15.499999999999773 -46.898746081504704
v 35.434326018808747 15.499999999999773 -47.49545454545455
v 35.434326018808747 10.999999999999787 -47.49545454545455
v 36.043730407523583 10.999999999999787 -47.49545454545455
v 36.043730407523583 15.499999999999773 -47.49545454545455
f 146 147 145 148
f 146 148 149 150
f 145 147 151 152
f 151 150 149 152
f 149 148 145 152
f 146 150 151 147
g object_20
v 36.043730407523583 15.499999999999773 -38.79874608150471
v 35.434326018808747 10.999999999999787 -38.79874608150471
v 36.043730407523583 10.999999999999787 -38.79874608150471
v 35.434326018808747 15.499999999999773 -38.79874608150471
v 35.434326018808747 15.499999999999773 -39.395454545454555
v 35.434326018808747 10.999999999999787 -39.395454545454555
v 36.043730407523583 10.999999999999787 -39.395454545454555
v 36.043730407523583 15.499999999999773 -39.395454545454555
f 154 155 153 156
f 154 156 157 158
f 153 155 159 160
f 159 158 157 160
f 157 156 153 160
f 154 158 159 155
g object_21
v 44.842006269592616 15.499999999999773 -30.698746081504702
v 44.232601880877723 10.999999999999787 -30.698746081504702
v 44.842006269592616 10.999999999999787 -30.698746081504702
v 44.232601880877723 15.499999999999773 -30.698746081504702
v 44.232601880877723 15.499999999999773 -31.295454545454554
v 44.232601880877723 10.999999999999787 -31.295454545454554
v 44.842006269592616 10.999999999999787 -31.295454545454554
v 44.842006269592616 15.499999999999773 -31.295454545454554
f 162 163 161 164
f 162 164 165 166
f 161 163 167 168
f 167 166 165 168
f 165 164 161 168
f 162 166 167 163
g object_22
v 6.0559561128528685 5.6999999999999975 -48.092163009404359
v 5.4465517241379757 0 -48.092163009404359
v 6.0559561128528685 0 -48.092163009404359
v 5.4465517241379757 5.6999999999999975 -48.092163009404359
v 5.4465517241379757 5.6999999999999975 -48.688871473354205
v 5.4465517241379757 0 -48.688871473354205
v 6.0559561128528685 0 -48.688871473354205
v 6.0559561128528685 5.6999999999999975 -48.688871473354205
f 170 171 169 172
f 170 172 173 174
f 169 171 175 176
f 175 174 173 176
f 173 172 169 176
f 170 174 175 171
g object_23
v 63.035266457680365 5.6999999999999975 -58.566300940438829
v 62.425862068965472 0 -58.566300940438829
v 63.035266457680365 0 -58.566300940438829
v 62.425862068965472 5.6999999999999975 -58.566300940438829
v 62.425862068965472 5.6999999999999975 -59.163009404388667
v 62.425862068965472 0 -59.163009404388667
v 63.035266457680365 0 -59.163009404388667
v 63.035266457680365 5.6999999999999975 -59.163009404388667
f 178 179 177 180
f 178 180 181 182
f 177 179 183 184
f 183 182 181 184
f 181 180 177 184
f 178 182 183 179
g object_24
v 57.042789968652187 5.6999999999999975 -46.898746081504697
v 56.433385579937294 0 -46.898746081504697
v 57.042789968652187 0 -46.898746081504697
v 56.433385579937294 5.6999999999999975 -46.898746081504697
v 56.433385579937294 5.6999999999999975 -47.495454545454542
v 56.433385579937294 0 -47.495454545454542
v 57.042789968652187 0 -47.495454545454542
v 57.042789968652187 5.6999999999999975 -47.495454545454542
f 186 187 185 188
f 186 188 189 190
f 185 187 191 192
f 191 190 189 192
f 189 188 185 192
f 186 190 191 187
g object_25
v 51.037617554858997 5.6999999999999975 -38.798746081504689
v 50.428213166144133 0 -38.798746081504689
v 51.037617554858997 0 -38.798746081504689
v 50.428213166144133 5.6999999999999975 -38.798746081504689
v 50.428213166144133 5.6999999999999975 -39.395454545454527
v 50.428213166144133 0 -39.395454545454527
v 51.037617554858997 0 -39.395454545454527
v 51.037617554858997 5.6999999999999975 -39.395454545454527
f 194 195 193 196
f 194 196 197 198
f 193 195 199 200
f 199 198 197 200
f 197 196 193 200
f 194 198 199 195
g object_26
v 63.035266457680365 5.6999999999999975 -52.5865203761755
v 62.425862068965472 0 -52.5865203761755
v 63.035266457680365 0 -52.5865203761755
v 62.425862068965472 5.6999999999999975 -52.5865203761755
v 62.425862068965472 5.6999999999999975 -53.183228840125345
v 62.425862068965472 0 -53.183228840125345
v 63.035266457680365 0 -53.183228840125345
v 63.035266457680365 5.6999999999999975 -53.183228840125345
f 202 203 201 204
f 202 204 205 206
f 201 203 207 208
f 207 206 205 208
f 205 204 201 208
f 202 206 207 203
g object_27
v 63.035266457680365 5.6999999999999975 -22.5987460815047
v 62.425862068965472 0 -22.5987460815047
v 63.035266457680365 0 -22.5987460815047
v 62.425862068965472 5.6999999999999975 -22.5987460815047
v 62.425862068965472 5.6999999999999975 -23.195454545454538
v 62.425862068965472 0 -23.195454545454538
v 63.035266457680365 0 -23.195454545454538
v 63.035266457680365 5.6999999999999975 -23.195454545454538
f 210 211 209 212
f 210 212 213 214
f 209 211 215 216
f 215 214 213 216
f 213 212 209 216
f 210 214 215 211
g object_28
v 6.0559561128528685 5.6999999999999975 -30.698746081504694
v 5.4465517241379757 0 -30.698746081504694
v 6.0559561128528685 0 -30.698746081504694
v 5.4465517241379757 5.6999999999999975 -30.698746081504694
v 5.4465517241379757 5.6999999999999975 -31.295454545454547
v 5.4465517241379757 0 -31.295454545454547
v 6.0559561128528685 0 -31.295454545454547
v 6.0559561128528685 5.6999999999999975 -31.295454545454547
f 218 219 217 220
f 218 220 221 222
f 217 219 223 224
f 223 222 221 224
f 221 220 217 224
f 218 222 223 219
g object_29
v 36.043730407523611 5.6999999999999975 -14.498746081504692
v 35.434326018808747 0 -14.498746081504692
v 36.043730407523611 0 -14.498746081504692
v 35.434326018808747 5.6999999999999975 -14.498746081504692
v 35.434326018808747 5.6999999999999975 -15.09545454545453
v 35.434326018808747 0 -15.09545454545453
v 36.043730407523611 0 -15.09545454545453
v 36.043730407523611 5.6999999999999975 -15.09545454545453
f 226 227 225 228
f 226 228 229 230
f 225 227 231 232
f 231 230 229 232
f 229 228 225 232
f 226 230 231 227
g object_30
v 57.042789968652187 5.6999999999999975 -6.3987460815046973
v 56.433385579937294 0 -6.3987460815046973
v 57.042789968652187 0 -6.3987460815046973
v 56.433385579937294 5.6999999999999975 -6.3987460815046973
v 56.433385579937294 5.6999999999999975 -6.9954545454545496
v 56.433385579937294 0 -6.9954545454545496
v 57.042789968652187 0 -6.9954545454545496
v 57.042789968652187 5.6999999999999975 -6.9954545454545496
f 234 235 233 236
f 234 236 237 238
f 233 235 239 240
f 239 238 237 240
f 237 236 233 240
f 234 238 239 235
g object_31
v 18.053605015674151 5.6999999999999975 -6.3987460815046973
v 17.444200626959287 0 -6.3987460815046973
v 18.053605015674151 0 -6.3987460815046973
v 17.444200626959287 5.6999999999999975 -6.3987460815046973
v 17.444200626959287 5.6999999999999975 -6.9954545454545496
v 17.444200626959287 0 -6.9954545454545496
v 18.053605015674151 0 -6.9954545454545496
v 18.053605015674151 5.6999999999999975 -6.9954545454545496
f 242 243 241 244
f 242 244 245 246
f 241 243 247 248
f 247 246 245 248
f 245 244 241 248
f 242 246 247 243
g object_32
v 30.05125391849549 5.6999999999999975 -38.798746081504689
v 29.441849529780626 0 -38.798746081504689
v 30.05125391849549 0 -38.798746081504689
v 29.441849529780626 5.6999999999999975 -38.798746081504689
v 29.441849529780626 5.6999999999999975 -39.395454545454527
v 29.441849529780626 0 -39.395454545454527
v 30.05125391849549 0 -39.395454545454527
v 30.05125391849549 5.6999999999999975 -39.395454545454527
f 250 251 249 252
f 250 252 253 254
f 249 251 255 256
f 255 254 253 256
f 253 252 249 256
f 250 254 255 251
g object_33
v 30.05125391849549 5.6999999999999975 -48.092163009404359
v 29.441849529780626 0 -48.092163009404359
v 30.05125391849549 0 -48.092163009404359
v 29.441849529780626 5.6999999999999975 -48.092163009404359
v 29.441849529780626 5.6999999999999975 -48.688871473354205
v 29.441849529780626 0 -48.688871473354205
v 30.05125391849549 0 -48.688871473354205
v 30.05125391849549 5.6999999999999975 -48.688871473354205
f 258 259 257 260
f 258 260 261 262
f 257 259 263 264
f 263 262 261 264
f 261 260 257 264
f 258 262 263 259
g object_34
v 12.048432601881132 5.6999999999999975 -30.698746081504694
v 11.439028213166267 0 -30.698746081504694
v 12.048432601881132 0 -30.698746081504694
v 11.439028213166267 5.6999999999999975 -30.698746081504694
v 11.439028213166267 5.6999999999999975 -31.295454545454547
v 11.439028213166267 0 -31.295454545454547
v 12.048432601881132 0 -31.295454545454547
v 12.048432601881132 5.6999999999999975 -31.295454545454547
f 266 267 265 268
f 266 268 269 270
f 265 267 271 272
f 271 270 269 272
f 269 268 265 272
f 266 270 271 267
g object_35
v 57.042789968652187 5.6999999999999975 -30.698746081504694
v 56.433385579937294 0 -30.698746081504694
v 57.042789968652187 0 -30.698746081504694
v 56.433385579937294 5.6999999999999975 -30.698746081504694
v 56.433385579937294 5.6999999999999975 -31.295454545454547
v 56.433385579937294 0 -31.295454545454547
v 57.042789968652187 0 -31.295454545454547
v 57.042789968652187 5.6999999999999975 -31.295454545454547
f 274 275 273 276
f 274 276 277 278
f 273 275 279 280
f 279 278 277 280
f 277 276 273 280
f 274 278 279 275
g object_36
v 30.05125391849549 5.6999999999999975 -14.498746081504692
v 29.441849529780626 0 -14.498746081504692
v 30.05125391849549 0 -14.498746081504692
v 29.441849529780626 5.6999999999999975 -14.498746081504692
v 29.441849529780626 5.6999999999999975 -15.09545454545453
v 29.441849529780626 0 -15.09545454545453
v 30.05125391849549 0 -15.09545454545453
v 30.05125391849549 5.6999999999999975 -15.09545454545453
f 282 283 281 284
f 282 284 285 286
f 281 283 287 288
f 287 286 285 288
f 285 284 281 288
f 282 286 287 283
g object_37
v 51.037617554858997 5.6999999999999975 -14.498746081504692
v 50.428213166144133 0 -14.498746081504692
v 51.037617554858997 0 -14.498746081504692
v 50.428213166144133 5.6999999999999975 -14.498746081504692
v 50.428213166144133 5.6999999999999975 -15.09545454545453
v 50.428213166144133 0 -15.09545454545453
v 51.037617554858997 0 -15.09545454545453
v 51.037617554858997 5.6999999999999975 -15.09545454545453
f 290 291 289 292
f 290 292 293 294
f 289 291 295 296
f 295 294 293 296
f 293 292 289 296
f 290 294 295 291
g object_38
v 30.05125391849549 5.6999999999999975 -6.3987460815046973
v 29.441849529780626 0 -6.3987460815046973
v 30.05125391849549 0 -6.3987460815046973
v 29.441849529780626 5.6999999999999975 -6.3987460815046973
v 29.441849529780626 5.6999999999999975 -6.9954545454545496
v 29.441849529780626 0 -6.9954545454545496
v 30.05125391849549 0 -6.9954545454545496
v 30.05125391849549 5.6999999999999975 -6.9954545454545496
f 298 299 297 300
f 298 300 301 302
f 297 299 303 304
f 303 302 301 304
f 301 300 297 304
f 298 302 303 299
g object_39
v 6.0559561128528685 5.6999999999999975 -14.498746081504692
v 5.4465517241379757 0 -14.498746081504692
v 6.0559561128528685 0 -14.498746081504692
v 5.4465517241379757 5.6999999999999975 -14.498746081504692
v 5.4465517241379757 5.6999999999999975 -15.09545454545453
v 5.4465517241379757 0 -15.09545454545453
v 6.0559561128528685 0 -15.09545454545453
v 6.0559561128528685 5.6999999999999975 -15.09545454545453
f 306 307 305 308
f 306 308 309 310
f 305 307 311 312
f 311 310 309 312
f 309 308 305 312
f 306 310 311 307
g object_40
v 24.046081504702329 5.6999999999999975 -38.798746081504689
v 23.436677115987436 0 -38.798746081504689
v 24.046081504702329 0 -38.798746081504689
v 23.436677115987436 5.6999999999999975 -38.798746081504689
v 23.436677115987436 5.6999999999999975 -39.395454545454527
v 23.436677115987436 0 -39.395454545454527
v 24.046081504702329 0 -39.395454545454527
v 24.046081504702329 5.6999999999999975 -39.395454545454527
f 314 315 313 316
f 314 316 317 318
f 313 315 319 320
f 319 318 317 320
f 317 316 313 320
f 314 318 319 315
g object_41
v 63.035266457680365 5.6999999999999975 -38.798746081504689
v 62.425862068965472 0 -38.798746081504689
v 63.035266457680365 0 -38.798746081504689
v 62.425862068965472 5.6999999999999975 -38.798746081504689
v 62.425862068965472 5.6999999999999975 -39.395454545454527
v 62.425862068965472 0 -39.395454545454527
v 63.035266457680365 0 -39.395454545454527
v 63.035266457680365 5.6999999999999975 -39.395454545454527
f 322 323 321 324
f 322 324 325 326
f 321 323 327 328
f 327 326 325 328
f 325 324 321 328
f 322 326 327 323
g object_42
v 6.0559561128528685 5.6999999999999975 -38.798746081504689
v 5.4465517241379757 0 -38.798746081504689
v 6.0559561128528685 0 -38.798746081504689
v 5.4465517241379757 5.6999999999999975 -38.798746081504689
v 5.4465517241379757 5.6999999999999975 -39.395454545454527
v 5.4465517241379757 0 -39.395454545454527
v 6.0559561128528685 0 -39.395454545454527
v 6.0559561128528685 5.6999999999999975 -39.395454545454527
f 330 331 329 332
f 330 332 333 334
f 329 331 335 336
f 335 334 333 336
f 333 332 329 336
f 330 334 335 331
g object_43
v 44.842006269592616 5.6999999999999975 -22.5987460815047
v 44.232601880877752 0 -22.5987460815047
v 44.842006269592616 0 -22.5987460815047
v 44.232601880877752 5.6999999999999975 -22.5987460815047
v 44.232601880877752 5.6999999999999975 -23.195454545454538
v 44.232601880877752 0 -23.195454545454538
v 44.842006269592616 0 -23.195454545454538
v 44.842006269592616 5.6999999999999975 -23.195454545454538
f 338 339 337 340
f 338 340 341 342
f 337 339 343 344
f 343 342 341 344
f 341 340 337 344
f 338 342 343 339
g object_44
v 36.043730407523611 5.6999999999999975 -30.698746081504694
v 35.434326018808747 0 -30.698746081504694
v 36.043730407523611 0 -30.698746081504694
v 35.434326018808747 5.6999999999999975 -30.698746081504694
v 35.434326018808747 5.6999999999999975 -31.295454545454547
v 35.434326018808747 0 -31.295454545454547
v 36.043730407523611 0 -31.295454545454547
v 36.043730407523611 5.6999999999999975 -31.295454545454547
f 346 347 345 348
f 346 348 349 350
f 345 347 351 352
f 351 350 349 352
f 349 348 345 352
f 346 350 351 347
g object_45
v 24.046081504702329 5.6999999999999975 -14.498746081504692
v 23.436677115987436 0 -14.498746081504692
v 24.046081504702329 0 -14.498746081504692
v 23.436677115987436 5.6999999999999975 -14.498746081504692
v 23.436677115987436 5.6999999999999975 -15.09545454545453
v 23.436677115987436 0 -15.09545454545453
v 24.046081504702329 0 -15.09545454545453
v 24.046081504702329 5.6999999999999975 -15.09545454545453
f 354 355 353 356
f 354 356 357 358
f 353 355 359 360
f 359 358 357 360
f 357 356 353 360
f 354 358 359 355
g object_46
v 57.042789968652187 5.6999999999999975 -22.5987460815047
v 56.433385579937294 0 -22.5987460815047
v 57.042789968652187 0 -22.5987460815047
v 56.433385579937294 5.6999999999999975 -22.5987460815047
v 56.433385579937294 5.6999999999999975 -23.195454545454538
v 56.433385579937294 0 -23.195454545454538
v 57.042789968652187 0 -23.195454545454538
v 57.042789968652187 5.6999999999999975 -23.195454545454538
f 362 363 361 364
f 362 364 365 366
f 361 363 367 368
f 367 366 365 368
f 365 364 361 368
f 362 366 367 363
g object_47
v 18.053605015674151 5.6999999999999975 -38.798746081504689
v 17.444200626959287 0 -38.798746081504689
v 18.053605015674151 0 -38.798746081504689
v 17.444200626959287 5.6999999999999975 -38.798746081504689
v 17.444200626959287 5.6999999999999975 -39.395454545454527
v 17.444200626959287 0 -39.395454545454527
v 18.053605015674151 0 -39.395454545454527
v 18.053605015674151 5.6999999999999975 -39.395454545454527
f 370 371 369 372
f 370 372 373 374
f 369 371 375 376
f 375 374 373 376
f 373 372 369 376
f 370 374 375 371
g object_48
v 44.842006269592616 5.6999999999999975 -14.498746081504692
v 44.232601880877752 0 -14.498746081504692
v 44.842006269592616 0 -14.498746081504692
v 44.232601880877752 5.6999999999999975 -14.498746081504692
v 44.232601880877752 5.6999999999999975 -15.09545454545453
v 44.232601880877752 0 -15.09545454545453
v 44.842006269592616 0 -15.09545454545453
v 44.842006269592616 5.6999999999999975 -15.09545454545453
f 378 379 377 380
f 378 380 381 382
f 377 379 383 384
f 383 382 381 384
f 381 380 377 384
f 378 382 383 379
g object_49
v 63.035266457680365 5.6999999999999975 -6.3987460815046973
v 62.425862068965472 0 -6.3987460815046973
v 63.035266457680365 0 -6.3987460815046973
v 62.425862068965472 5.6999999999999975 -6.3987460815046973
v 62.425862068965472 5.6999999999999975 -6.9954545454545496
v 62.425862068965472 0 -6.9954545454545496
v 63.035266457680365 0 -6.9954545454545496
v 63.035266457680365 5.6999999999999975 -6.9954545454545496
f 386 387 385 388
f 386 388 389 390
f 385 387 391 392
f 391 390 389 392
f 389 388 385 392
f 386 390 391 387
g object_50
v 6.0559561128528685 5.7000000000000002 -6.3987460815046973
v 5.4465517241379757 0 -6.3987460815046973
v 6.0559561128528685 0 -6.3987460815046973
v 5.4465517241379757 5.7000000000000002 -6.3987460815046973
v 5.4465517241379757 5.7000000000000002 -6.9954545454545496
v 5.4465517241379757 0 -6.9954545454545496
v 6.0559561128528685 0 -6.9954545454545496
v 6.0559561128528685 5.7000000000000002 -6.9954545454545496
f 394 395 393 396
f 394 396 397 398
f 393 395 399 400
f 399 398 397 400
f 397 396 393 400
f 394 398 399 395
g object_51
v 6.0559561128528685 5.6999999999999975 -22.5987460815047
v 5.4465517241379757 0 -22.5987460815047
v 6.0559561128528685 0 -22.5987460815047
v 5.4465517241379757 5.6999999999999975 -22.5987460815047
v 5.4465517241379757 5.6999999999999975 -23.195454545454538
v 5.4465517241379757 0 -23.195454545454538
v 6.0559561128528685 0 -23.195454545454538
v 6.0559561128528685 5.6999999999999975 -23.195454545454538
f 402 403 401 404
f 402 404 405 406
f 401 403 407 408
f 407 406 405 408
f 405 404 401 408
f 402 406 407 403
g object_52
v 36.043730407523611 5.6999999999999975 -38.798746081504689
v 35.434326018808747 0 -38.798746081504689
v 36.043730407523611 0 -38.798746081504689
v 35.434326018808747 5.6999999999999975 -38.798746081504689
v 35.434326018808747 5.6999999999999975 -39.395454545454527
v 35.434326018808747 0 -39.395454545454527
v 36.043730407523611 0 -39.395454545454527
v 36.043730407523611 5.6999999999999975 -39.395454545454527
f 410 411 409 412
f 410 412 413 414
f 409 411 415 416
f 415 414 413 416
f 413 412 409 416
f 410 414 415 411
g object_53
v 63.035266457680365 5.6999999999999975 -30.698746081504694
v 62.425862068965472 0 -30.698746081504694
v 63.035266457680365 0 -30.698746081504694
v 62.425862068965472 5.6999999999999975 -30.698746081504694
v 62.425862068965472 5.6999999999999975 -31.295454545454547
v 62.425862068965472 0 -31.295454545454547
v 63.035266457680365 0 -31.295454545454547
v 63.035266457680365 5.6999999999999975 -31.295454545454547
f 418 419 417 420
f 418 420 421 422
f 417 419 423 424
f 423 422 421 424
f 421 420 417 424
f 418 422 423 419
g object_54
v 24.046081504702329 5.6999999999999975 -6.3987460815046973
v 23.436677115987436 0 -6.3987460815046973
v 24.046081504702329 0 -6.3987460815046973
v 23.436677115987436 5.6999999999999975 -6.3987460815046973
v 23.436677115987436 5.6999999999999975 -6.9954545454545496
v 23.436677115987436 0 -6.9954545454545496
v 24.046081504702329 0 -6.9954545454545496
v 24.046081504702329 5.6999999999999975 -6.9954545454545496
f 426 427 425 428
f 426 428 429 430
f 425 427 431 432
f 431 430 429 432
f 429 428 425 432
f 426 430 431 427
g object_55
v 44.842006269592616 5.6999999999999975 -6.3987460815046973
v 44.232601880877752 0 -6.3987460815046973
v 44.842006269592616 0 -6.3987460815046973
v 44.232601880877752 5.6999999999999975 -6.3987460815046973
v 44.232601880877752 5.6999999999999975 -6.9954545454545496
v 44.232601880877752 0 -6.9954545454545496
v 44.842006269592616 0 -6.9954545454545496
v 44.842006269592616 5.6999999999999975 -6.9954545454545496
f 434 435 433 436
f 434 436 437 438
f 433 435 439 440
f 439 438 437 440
f 437 436 433 440
f 434 438 439 435
g object_56
v 63.035266457680365 5.6999999999999975 -14.498746081504692
v 62.425862068965472 0 -14.498746081504692
v 63.035266457680365 0 -14.498746081504692
v 62.425862068965472 5.6999999999999975 -14.498746081504692
v 62.425862068965472 5.6999999999999975 -15.09545454545453
v 62.425862068965472 0 -15.09545454545453
v 63.035266457680365 0 -15.09545454545453
v 63.035266457680365 5.6999999999999975 -15.09545454545453
f 442 443 441 444
f 442 444 445 446
f 441 443 447 448
f 447 446 445 448
f 445 444 441 448
f 442 446 447 443
g object_57
v 51.037617554858997 5.6999999999999975 -6.3987460815046973
v 50.428213166144133 0 -6.3987460815046973
v 51.037617554858997 0 -6.3987460815046973
v 50.428213166144133 5.6999999999999975 -6.3987460815046973
v 50.428213166144133 5.6999999999999975 -6.9954545454545496
v 50.428213166144133 0 -6.9954545454545496
v 51.037617554858997 0 -6.9954545454545496
v 51.037617554858997 5.6999999999999975 -6.9954545454545496
f 450 451 449 452
f 450 452 453 454
f 449 451 455 456
f 455 454 453 456
f 453 452 449 456
f 450 454 455 451
g object_58
v 51.037617554858997 5.6999999999999975 -22.5987460815047
v 50.428213166144133 0 -22.5987460815047
v 51.037617554858997 0 -22.5987460815047
v 50.428213166144133 5.6999999999999975 -22.5987460815047
v 50.428213166144133 5.6999999999999975 -23.195454545454538
v 50.428213166144133 0 -23.195454545454538
v 51.037617554858997 0 -23.195454545454538
v 51.037617554858997 5.6999999999999975 -23.195454545454538
f 458 459 457 460
f 458 460 461 462
f 457 459 463 464
f 463 462 461 464
f 461 460 457 464
f 458 462 463 459
g object_59
v 57.042789968652187 5.6999999999999975 -38.798746081504689
v 56.433385579937294 0 -38.798746081504689
v 57.042789968652187 0 -38.798746081504689
v 56.433385579937294 5.6999999999999975 -38.798746081504689
v 56.433385579937294 5.6999999999999975 -39.395454545454527
v 56.433385579937294 0 -39.395454545454527
v 57.042789968652187 0 -39.395454545454527
v 57.042789968652187 5.6999999999999975 -39.395454545454527
f 466 467 465 468
f 466 468 469 470
f 465 467 471 472
f 471 470 469 472
f 469 468 465 472
f 466 470 471 467
g object_60
v 57.042789968652187 5.6999999999999975 -14.498746081504692
v 56.433385579937294 0 -14.498746081504692
v 57.042789968652187 0 -14.498746081504692
v 56.433385579937294 5.6999999999999975 -14.498746081504692
v 56.433385579937294 5.6999999999999975 -15.09545454545453
v 56.433385579937294 0 -15.09545454545453
v 57.042789968652187 0 -15.09545454545453
v 57.042789968652187 5.6999999999999975 -15.09545454545453
f 474 475 473 476
f 474 476 477 478
f 473 475 479 480
f 479 478 477 480
f 477 476 473 480
f 474 478 479 475
g object_61
v 36.043730407523611 5.6999999999999975 -22.5987460815047
v 35.434326018808747 0 -22.5987460815047
v 36.043730407523611 0 -22.5987460815047
v 35.434326018808747 5.6999999999999975 -22.5987460815047
v 35.434326018808747 5.6999999999999975 -23.195454545454538
v 35.434326018808747 0 -23.195454545454538
v 36.043730407523611 0 -23.195454545454538
v 36.043730407523611 5.6999999999999975 -23.195454545454538
f 482 483 481 484
f 482 484 485 486
f 481 483 487 488
f 487 486 485 488
f 485 484 481 488
f 482 486 487 483
g object_62
v 51.037617554858997 5.6999999999999975 -30.698746081504694
v 50.428213166144133 0 -30.698746081504694
v 51.037617554858997 0 -30.698746081504694
v 50.428213166144133 5.6999999999999975 -30.698746081504694
v 50.428213166144133 5.6999999999999975 -31.295454545454547
v 50.428213166144133 0 -31.295454545454547
v 51.037617554858997 0 -31.295454545454547
v 51.037617554858997 5.6999999999999975 -31.295454545454547
f 490 491 489 492
f 490 492 493 494
f 489 491 495 496
f 495 494 493 496
f 493 492 489 496
f 490 494 495 491
g object_63
v 36.043730407523611 5.6999999999999975 -46.898746081504697
v 35.434326018808747 0 -46.898746081504697
v 36.043730407523611 0 -46.898746081504697
v 35.434326018808747 5.6999999999999975 -46.898746081504697
v 35.434326018808747 5.6999999999999975 -47.495454545454542
v 35.434326018808747 0 -47.495454545454542
v 36.043730407523611 0 -47.495454545454542
v 36.043730407523611 5.6999999999999975 -47.495454545454542
f 498 499 497 500
f 498 500 501 502
f 497 499 503 504
f 503 502 501 504
f 501 500 497 504
f 498 502 503 499
g object_64
v 18.053605015674151 5.6999999999999975 -30.698746081504694
v 17.444200626959287 0 -30.698746081504694
v 18.053605015674151 0 -30.698746081504694
v 17.444200626959287 5.6999999999999975 -30.698746081504694
v 17.444200626959287 5.6999999999999975 -31.295454545454547
v 17.444200626959287 0 -31.295454545454547
v 18.053605015674151 0 -31.295454545454547
v 18.053605015674151 5.6999999999999975 -31.295454545454547
f 506 507 505 508
f 506 508 509 510
f 505 507 511 512
f 511 510 509 512
f 509 508 505 512
f 506 510 511 507
g object_65
v 12.048432601881132 5.6999999999999975 -6.3987460815046973
v 11.439028213166267 0 -6.3987460815046973
v 12.048432601881132 0 -6.3987460815046973
v 11.439028213166267 5.6999999999999975 -6.3987460815046973
v 11.439028213166267 5.6999999999999975 -6.9954545454545496
v 11.439028213166267 0 -6.9954545454545496
v 12.048432601881132 0 -6.9954545454545496
v 12.048432601881132 5.6999999999999975 -6.9954545454545496
f 514 515 513 516
f 514 516 517 518
f 513 515 519 520
f 519 518 517 520
f 517 516 513 520
f 514 518 519 515
g object_66
v 36.043730407523611 5.6999999999999975 -6.3987460815046973
v 35.434326018808747 0 -6.3987460815046973
v 36.043730407523611 0 -6.3987460815046973
v 35.434326018808747 5.6999999999999975 -6.3987460815046973
v 35.434326018808747 5.6999999999999975 -6.9954545454545496
v 35.434326018808747 0 -6.9954545454545496
v 36.043730407523611 0 -6.9954545454545496
v 36.043730407523611 5.6999999999999975 -6.9954545454545496
f 522 523 521 524
f 522 524 525 526
f 521 523 527 528
f 527 526 525 528
f 525 524 521 528
f 522 526 527 523
g object_67
v 63.035266457680365 5.6999999999999975 -46.898746081504697
v 62.425862068965472 0 -46.898746081504697
v 63.035266457680365 0 -46.898746081504697
v 62.425862068965472 5.6999999999999975 -46.898746081504697
v 62.425862068965472 5.6999999999999975 -47.495454545454542
v 62.425862068965472 0 -47.495454545454542
v 63.035266457680365 0 -47.495454545454542
v 63.035266457680365 5.6999999999999975 -47.495454545454542
f 530 531 529 532
f 530 532 533 534
f 529 531 535 536
f 535 534 533 536
f 533 532 529 536
f 530 534 535 531
g object_68
v 57.042789968652187 5.6999999999999975 -58.566300940438829
v 56.433385579937294 0 -58.566300940438829
v 57.042789968652187 0 -58.566300940438829
v 56.433385579937294 5.6999999999999975 -58.566300940438829
v 56.433385579937294 5.6999999999999975 -59.163009404388667
v 56.433385579937294 0 -59.163009404388667
v 57.042789968652187 0 -59.163009404388667
v 57.042789968652187 5.6999999999999975 -59.163009404388667
f 538 539 537 540
f 538 540 541 542
f 537 539 543 544
f 543 542 541 544
f 541 540 537 544
f 538 542 543 539
g object_69
v 51.037617554858997 5.6999999999999975 -46.898746081504697
v 50.428213166144133 0 -46.898746081504697
v 51.037617554858997 0 -46.898746081504697
v 50.428213166144133 5.6999999999999975 -46.898746081504697
v 50.428213166144133 5.6999999999999975 -47.495454545454542
v 50.428213166144133 0 -47.495454545454542
v 51.037617554858997 0 -47.495454545454542
v 51.037617554858997 5.6999999999999975 -47.495454545454542
f 546 547 545 548
f 546 548 549 550
f 545 547 551 552
f 551 550 549 552
f 549 548 545 552
f 546 550 551 547
g object_70
v 12.048432601881132 5.6999999999999975 -38.798746081504689
v 11.439028213166267 0 -38.798746081504689
v 12.048432601881132 0 -38.798746081504689
v 11.439028213166267 5.6999999999999975 -38.798746081504689
v 11.439028213166267 5.6999999999999975 -39.395454545454527
v 11.439028213166267 0 -39.395454545454527
v 12.048432601881132 0 -39.395454545454527
v 12.048432601881132 5.6999999999999975 -39.395454545454527
f 554 555 553 556
f 554 556 557 558
f 553 555 559 560
f 559 558 557 560
f 557 556 553 560
f 554 558 559 555
g object_71
v 57.042789968652187 5.6999999999999975 -52.5865203761755
v 56.433385579937294 0 -52.5865203761755
v 57.042789968652187 0 -52.5865203761755
v 56.433385579937294 5.6999999999999975 -52.5865203761755
v 56.433385579937294 5.6999999999999975 -53.183228840125345
v 56.433385579937294 0 -53.183228840125345
v 57.042789968652187 0 -53.183228840125345
v 57.042789968652187 5.6999999999999975 -53.183228840125345
f 562 563 561 564
f 562 564 565 566
f 561 563 567 568
f 567 566 565 568
f 565 564 561 568
f 562 566 567 563
g object_72
v 44.842006269592616 5.6999999999999975 -30.698746081504694
v 44.232601880877752 0 -30.698746081504694
v 44.842006269592616 0 -30.698746081504694
v 44.232601880877752 5.6999999999999975 -30.698746081504694
v 44.232601880877752 5.6999999999999975 -31.295454545454547
v 44.232601880877752 0 -31.295454545454547
v 44.842006269592616 0 -31.295454545454547
v 44.842006269592616 5.6999999999999975 -31.295454545454547
f 570 571 569 572
f 570 572 573 574
f 569 571 575 576
f 575 574 573 576
f 573 572 569 576
f 570 574 575 571
g object_73
v 18.053605015674151 5.6999999999999975 -48.092163009404359
v 17.444200626959287 0 -48.092163009404359
v 18.053605015674151 0 -48.092163009404359
v 17.444200626959287 5.6999999999999975 -48.092163009404359
v 17.444200626959287 5.6999999999999975 -48.688871473354205
v 17.444200626959287 0 -48.688871473354205
v 18.053605015674151 0 -48.688871473354205
v 18.053605015674151 5.6999999999999975 -48.688871473354205
f 578 579 577 580
f 578 580 581 582
f 577 579 583 584
f 583 582 581 584
f 581 580 577 584
f 578 582 583 579
g object_74
v 12.048432601881132 5.6999999999999975 -48.092163009404359
v 11.439028213166267 0 -48.092163009404359
v 12.048432601881132 0 -48.092163009404359
v 11.439028213166267 5.6999999999999975 -48.092163009404359
v 11.439028213166267 5.6999999999999975 -48.688871473354205
v 11.439028213166267 0 -48.688871473354205
v 12.048432601881132 0 -48.688871473354205
v 12.048432601881132 5.6999999999999975 -48.688871473354205
f 586 587 585 588
f 586 588 589 590
f 585 587 591 592
f 591 590 589 592
f 589 588 585 592
f 586 590 591 587
g object_75
v 51.037617554858997 5.6999999999999975 -58.566300940438829
v 50.428213166144133 0 -58.566300940438829
v 51.037617554858997 0 -58.566300940438829
v 50.428213166144133 5.6999999999999975 -58.566300940438829
v 50.428213166144133 5.6999999999999975 -59.163009404388667
v 50.428213166144133 0 -59.163009404388667
v 51.037617554858997 0 -59.163009404388667
v 51.037617554858997 5.6999999999999975 -59.163009404388667
f 594 595 593 596
f 594 596 597 598
f 593 595 599 600
f 599 598 597 600
f 597 596 593 600
f 594 598 599 595
g object_76
v 24.046081504702329 5.6999999999999975 -48.092163009404359
v 23.436677115987436 0 -48.092163009404359
v 24.046081504702329 0 -48.092163009404359
v 23.436677115987436 5.6999999999999975 -48.092163009404359
v 23.436677115987436 5.6999999999999975 -48.688871473354205
v 23.436677115987436 0 -48.688871473354205
v 24.046081504702329 0 -48.688871473354205
v 24.046081504702329 5.6999999999999975 -48.688871473354205
f 602 603 601 604
f 602 604 605 606
f 601 603 607 608
f 607 606 605 608
f 605 604 601 608
f 602 606 607 603
