# Rhino

g object_1
v 53.061786651611328 -5.8000001907348633 -68.469123840332031
v 53.061786651611328 0 -68.469123840332031
v 53.061786651611328 -5.8000001907348633 -58.578998565673828
v 53.061786651611328 0 -58.578998565673828
v 64.731178283691406 -5.8000001907348633 -58.578998565673828
v 64.731178283691406 0 -58.578998565673828
v 64.731178283691406 -5.8000001907348633 -68.469123840332031
v 64.731178283691406 0 -68.469123840332031
f 3 1 7 5
f 8 2 4 6
f 1 3 4 2
f 3 5 6 4
f 5 7 8 6
f 7 1 2 8
g object_2
v 41.39239501953125 -5.8000001907348633 -68.469123840332031
v 41.39239501953125 0 -68.469123840332031
v 41.39239501953125 -5.8000001907348633 -58.578998565673828
v 41.39239501953125 0 -58.578998565673828
v 53.061786651611328 -5.8000001907348633 -58.578998565673828
v 53.061786651611328 0 -58.578998565673828
v 53.061786651611328 -5.8000001907348633 -68.469123840332031
v 53.061786651611328 0 -68.469123840332031
f 11 9 15 13
f 16 10 12 14
f 9 11 12 10
f 11 13 14 12
f 13 15 16 14
f 15 9 10 16
g object_3
v 29.722999572753906 -5.8000001907348633 -68.469123840332031
v 29.722999572753906 0 -68.469123840332031
v 29.722999572753906 -5.8000001907348633 -58.578998565673828
v 29.722999572753906 0 -58.578998565673828
v 41.39239501953125 -5.8000001907348633 -58.578998565673828
v 41.39239501953125 0 -58.578998565673828
v 41.39239501953125 -5.8000001907348633 -68.469123840332031
v 41.39239501953125 0 -68.469123840332031
f 19 17 23 21
f 24 18 20 22
f 17 19 20 18
f 19 21 22 20
f 21 23 24 22
f 23 17 18 24
g object_4
v 18.053604125976562 -5.8000001907348633 -68.469123840332031
v 18.053604125976562 0 -68.469123840332031
v 18.053604125976562 -5.8000001907348633 -58.578998565673828
v 18.053604125976562 0 -58.578998565673828
v 29.722999572753906 -5.8000001907348633 -58.578998565673828
v 29.722999572753906 0 -58.578998565673828
v 29.722999572753906 -5.8000001907348633 -68.469123840332031
v 29.722999572753906 0 -68.469123840332031
f 27 25 31 29
f 32 26 28 30
f 25 27 28 26
f 27 29 30 28
f 29 31 32 30
f 31 25 26 32
g object_5
v 5.4465517997741699 -5.8000001907348633 -68.469123840332031
v 5.4465517997741699 0 -68.469123840332031
v 5.4465517997741699 -5.8000001907348633 -58.578998565673828
v 5.4465517997741699 0 -58.578998565673828
v 18.053604125976562 -5.8000001907348633 -58.578998565673828
v 18.053604125976562 0 -58.578998565673828
v 18.053604125976562 -5.8000001907348633 -68.469123840332031
v 18.053604125976562 0 -68.469123840332031
f 35 33 39 37
f 40 34 36 38
f 33 35 36 34
f 35 37 38 36
f 37 39 40 38
f 39 33 34 40
g object_6
v 53.061786651611328 -5.8000001907348633 -58.578998565673828
v 53.061786651611328 0 -58.578998565673828
v 53.061786651611328 -5.8000001907348633 -48.688873291015625
v 53.061786651611328 0 -48.688873291015625
v 64.731178283691406 -5.8000001907348633 -48.688873291015625
v 64.731178283691406 0 -48.688873291015625
v 64.731178283691406 -5.8000001907348633 -58.578998565673828
v 64.731178283691406 0 -58.578998565673828
f 43 41 47 45
f 48 42 44 46
f 41 43 44 42
f 43 45 46 44
f 45 47 48 46
f 47 41 42 48
g object_7
v 41.39239501953125 -5.8000001907348633 -58.578998565673828
v 41.39239501953125 0 -58.578998565673828
v 41.39239501953125 -5.8000001907348633 -48.688873291015625
v 41.39239501953125 0 -48.688873291015625
v 53.061786651611328 -5.8000001907348633 -48.688873291015625
v 53.061786651611328 0 -48.688873291015625
v 53.061786651611328 -5.8000001907348633 -58.578998565673828
v 53.061786651611328 0 -58.578998565673828
f 51 49 55 53
f 56 50 52 54
f 49 51 52 50
f 51 53 54 52
f 53 55 56 54
f 55 49 50 56
g object_8
v 29.722999572753906 -5.8000001907348633 -58.578998565673828
v 29.722999572753906 0 -58.578998565673828
v 29.722999572753906 -5.8000001907348633 -48.688873291015625
v 29.722999572753906 0 -48.688873291015625
v 41.39239501953125 -5.8000001907348633 -48.688873291015625
v 41.39239501953125 0 -48.688873291015625
v 41.39239501953125 -5.8000001907348633 -58.578998565673828
v 41.39239501953125 0 -58.578998565673828
f 59 57 63 61
f 64 58 60 62
f 57 59 60 58
f 59 61 62 60
f 61 63 64 62
f 63 57 58 64
g object_9
v 18.053604125976562 -5.8000001907348633 -58.578998565673828
v 18.053604125976562 0 -58.578998565673828
v 18.053604125976562 -5.8000001907348633 -48.688873291015625
v 18.053604125976562 0 -48.688873291015625
v 29.722999572753906 -5.8000001907348633 -48.688873291015625
v 29.722999572753906 0 -48.688873291015625
v 29.722999572753906 -5.8000001907348633 -58.578998565673828
v 29.722999572753906 0 -58.578998565673828
f 67 65 71 69
f 72 66 68 70
f 65 67 68 66
f 67 69 70 68
f 69 71 72 70
f 71 65 66 72
g object_10
v 5.4465517997741699 -5.8000001907348633 -58.578998565673828
v 5.4465517997741699 0 -58.578998565673828
v 5.4465517997741699 -5.8000001907348633 -48.688873291015625
v 5.4465517997741699 0 -48.688873291015625
v 18.053604125976562 -5.8000001907348633 -48.688873291015625
v 18.053604125976562 0 -48.688873291015625
v 18.053604125976562 -5.8000001907348633 -58.578998565673828
v 18.053604125976562 0 -58.578998565673828
f 75 73 79 77
f 80 74 76 78
f 73 75 76 74
f 75 77 78 76
f 77 79 80 78
f 79 73 74 80
g object_11
v 53.061786651611328 -5.8000001907348633 -15.095454216003418
v 53.061786651611328 0 -15.095454216003418
v 53.061786651611328 -5.8000001907348633 -4.3987460136413574
v 53.061786651611328 0 -4.3987460136413574
v 53.061786651611328 -5.8000001907348633 -9.7470998764038086
v 53.061786651611328 0 -9.7470998764038086
v 64.731178283691406 -5.8000001907348633 -4.3987460136413574
v 64.731178283691406 0 -4.3987460136413574
v 58.896484375 -5.8000001907348633 -4.3987460136413574
v 58.896484375 0 -4.3987460136413574
v 64.731178283691406 -5.8000001907348633 -15.095454216003418
v 64.731178283691406 0 -15.095454216003418
v 64.731178283691406 -5.8000001907348633 -9.7470998764038086
v 64.731178283691406 0 -9.7470998764038086
v 58.896484375 -5.8000001907348633 -15.095454216003418
v 58.896484375 0 -15.095454216003418
f 81 85 83 84 86 82
f 84 83 89 87 88 90
f 94 88 87 93 91 92
f 92 91 95 81 82 96
f 85 81 95 91 93 87 89 83
f 96 82 86 84 90 88 94 92
g object_12
v 53.061786651611328 -5.8000001907348633 -22.897100448608398
v 53.061786651611328 0 -22.897100448608398
v 53.061786651611328 -5.8000001907348633 -15.095454216003418
v 53.061786651611328 0 -15.095454216003418
v 64.731178283691406 -5.8000001907348633 -15.095454216003418
v 64.731178283691406 0 -15.095454216003418
v 64.731178283691406 -5.8000001907348633 -22.897100448608398
v 64.731178283691406 0 -22.897100448608398
f 99 97 103 101
f 104 98 100 102
f 97 99 100 98
f 99 101 102 100
f 101 103 104 102
f 103 97 98 104
g object_13
v 53.061786651611328 -5.8000001907348633 -30.997100830078125
v 53.061786651611328 0 -30.997100830078125
v 53.061786651611328 -5.8000001907348633 -22.897100448608398
v 53.061786651611328 0 -22.897100448608398
v 64.731178283691406 -5.8000001907348633 -22.897100448608398
v 64.731178283691406 0 -22.897100448608398
v 64.731178283691406 -5.8000001907348633 -30.997100830078125
v 64.731178283691406 0 -30.997100830078125
f 107 105 111 109
f 112 106 108 110
f 105 107 108 106
f 107 109 110 108
f 109 111 112 110
f 111 105 106 112
g object_14
v 53.061786651611328 -5.8000001907348633 -38.798744201660156
v 53.061786651611328 0 -38.798744201660156
v 53.061786651611328 -5.8000001907348633 -30.997100830078125
v 53.061786651611328 0 -30.997100830078125
v 64.731178283691406 -5.8000001907348633 -30.997100830078125
v 64.731178283691406 0 -30.997100830078125
v 64.731178283691406 -5.8000001907348633 -38.798744201660156
v 64.731178283691406 0 -38.798744201660156
f 115 113 119 117
f 120 114 116 118
f 113 115 116 114
f 115 117 118 116
f 117 119 120 118
f 119 113 114 120
g object_15
v 53.061786651611328 -5.8000001907348633 -48.688873291015625
v 53.061786651611328 0 -48.688873291015625
v 53.061786651611328 -5.8000001907348633 -38.798744201660156
v 53.061786651611328 0 -38.798744201660156
v 64.731178283691406 -5.8000001907348633 -38.798744201660156
v 64.731178283691406 0 -38.798744201660156
v 64.731178283691406 -5.8000001907348633 -48.688873291015625
v 64.731178283691406 0 -48.688873291015625
f 123 121 127 125
f 128 122 124 126
f 121 123 124 122
f 123 125 126 124
f 125 127 128 126
f 127 121 122 128
g object_16
v 41.39239501953125 -5.8000001907348633 -15.095454216003418
v 41.39239501953125 0 -15.095454216003418
v 41.39239501953125 -5.8000001907348633 -4.3987460136413574
v 41.39239501953125 0 -4.3987460136413574
v 41.39239501953125 -5.8000001907348633 -9.7470998764038086
v 41.39239501953125 0 -9.7470998764038086
v 53.061786651611328 -5.8000001907348633 -4.3987460136413574
v 53.061786651611328 0 -4.3987460136413574
v 47.227088928222656 -5.8000001907348633 -4.3987460136413574
v 47.227088928222656 0 -4.3987460136413574
v 53.061786651611328 -5.8000001907348633 -15.095454216003418
v 53.061786651611328 0 -15.095454216003418
v 53.061786651611328 -5.8000001907348633 -9.7470998764038086
v 53.061786651611328 0 -9.7470998764038086
v 47.227088928222656 -5.8000001907348633 -15.095454216003418
v 47.227088928222656 0 -15.095454216003418
f 129 133 131 132 134 130
f 132 131 137 135 136 138
f 142 136 135 141 139 140
f 140 139 143 129 130 144
f 133 129 143 139 141 135 137 131
f 144 130 134 132 138 136 142 140
g object_17
v 41.39239501953125 -5.8000001907348633 -22.897100448608398
v 41.39239501953125 0 -22.897100448608398
v 41.39239501953125 -5.8000001907348633 -15.095454216003418
v 41.39239501953125 0 -15.095454216003418
v 53.061786651611328 -5.8000001907348633 -15.095454216003418
v 53.061786651611328 0 -15.095454216003418
v 53.061786651611328 -5.8000001907348633 -22.897100448608398
v 53.061786651611328 0 -22.897100448608398
f 147 145 151 149
f 152 146 148 150
f 145 147 148 146
f 147 149 150 148
f 149 151 152 150
f 151 145 146 152
g object_18
v 41.39239501953125 -5.8000001907348633 -30.997100830078125
v 41.39239501953125 0 -30.997100830078125
v 41.39239501953125 -5.8000001907348633 -22.897100448608398
v 41.39239501953125 0 -22.897100448608398
v 53.061786651611328 -5.8000001907348633 -22.897100448608398
v 53.061786651611328 0 -22.897100448608398
v 53.061786651611328 -5.8000001907348633 -30.997100830078125
v 53.061786651611328 0 -30.997100830078125
f 155 153 159 157
f 160 154 156 158
f 153 155 156 154
f 155 157 158 156
f 157 159 160 158
f 159 153 154 160
g object_19
v 41.39239501953125 -5.8000001907348633 -38.798744201660156
v 41.39239501953125 0 -38.798744201660156
v 41.39239501953125 -5.8000001907348633 -30.997100830078125
v 41.39239501953125 0 -30.997100830078125
v 53.061786651611328 -5.8000001907348633 -30.997100830078125
v 53.061786651611328 0 -30.997100830078125
v 53.061786651611328 -5.8000001907348633 -38.798744201660156
v 53.061786651611328 0 -38.798744201660156
f 163 161 167 165
f 168 162 164 166
f 161 163 164 162
f 163 165 166 164
f 165 167 168 166
f 167 161 162 168
g object_20
v 41.39239501953125 -5.8000001907348633 -48.688873291015625
v 41.39239501953125 0 -48.688873291015625
v 41.39239501953125 -5.8000001907348633 -38.798744201660156
v 41.39239501953125 0 -38.798744201660156
v 53.061786651611328 -5.8000001907348633 -38.798744201660156
v 53.061786651611328 0 -38.798744201660156
v 53.061786651611328 -5.8000001907348633 -48.688873291015625
v 53.061786651611328 0 -48.688873291015625
f 171 169 175 173
f 176 170 172 174
f 169 171 172 170
f 171 173 174 172
f 173 175 176 174
f 175 169 170 176
g object_21
v 29.722999572753906 -5.8000001907348633 -15.095454216003418
v 29.722999572753906 0 -15.095454216003418
v 29.722999572753906 -5.8000001907348633 -4.3987460136413574
v 29.722999572753906 0 -4.3987460136413574
v 29.722999572753906 -5.8000001907348633 -9.7470998764038086
v 29.722999572753906 0 -9.7470998764038086
v 41.39239501953125 -5.8000001907348633 -4.3987460136413574
v 41.39239501953125 0 -4.3987460136413574
v 35.557697296142578 -5.8000001907348633 -4.3987460136413574
v 35.557697296142578 0 -4.3987460136413574
v 41.39239501953125 -5.8000001907348633 -15.095454216003418
v 41.39239501953125 0 -15.095454216003418
v 41.39239501953125 -5.8000001907348633 -9.7470998764038086
v 41.39239501953125 0 -9.7470998764038086
v 35.557697296142578 -5.8000001907348633 -15.095454216003418
v 35.557697296142578 0 -15.095454216003418
f 177 181 179 180 182 178
f 179 185 183 184 186 180
f 190 184 183 189 187 188
f 188 187 191 177 178 192
f 181 177 191 187 189 183 185 179
f 192 178 182 180 186 184 190 188
g object_22
v 29.722999572753906 -5.8000001907348633 -22.897100448608398
v 29.722999572753906 0 -22.897100448608398
v 29.722999572753906 -5.8000001907348633 -15.095454216003418
v 29.722999572753906 0 -15.095454216003418
v 41.39239501953125 -5.8000001907348633 -15.095454216003418
v 41.39239501953125 0 -15.095454216003418
v 41.39239501953125 -5.8000001907348633 -22.897100448608398
v 41.39239501953125 0 -22.897100448608398
f 195 193 199 197
f 200 194 196 198
f 193 195 196 194
f 195 197 198 196
f 197 199 200 198
f 199 193 194 200
g object_23
v 29.722999572753906 -5.8000001907348633 -30.997100830078125
v 29.722999572753906 0 -30.997100830078125
v 29.722999572753906 -5.8000001907348633 -22.897100448608398
v 29.722999572753906 0 -22.897100448608398
v 41.39239501953125 -5.8000001907348633 -22.897100448608398
v 41.39239501953125 0 -22.897100448608398
v 41.39239501953125 -5.8000001907348633 -30.997100830078125
v 41.39239501953125 0 -30.997100830078125
f 203 201 207 205
f 208 202 204 206
f 201 203 204 202
f 203 205 206 204
f 205 207 208 206
f 207 201 202 208
g object_24
v 29.722999572753906 -5.8000001907348633 -38.798744201660156
v 29.722999572753906 0 -38.798744201660156
v 29.722999572753906 -5.8000001907348633 -30.997100830078125
v 29.722999572753906 0 -30.997100830078125
v 41.39239501953125 -5.8000001907348633 -30.997100830078125
v 41.39239501953125 0 -30.997100830078125
v 41.39239501953125 -5.8000001907348633 -38.798744201660156
v 41.39239501953125 0 -38.798744201660156
f 211 209 215 213
f 216 210 212 214
f 209 211 212 210
f 211 213 214 212
f 213 215 216 214
f 215 209 210 216
g object_25
v 29.722999572753906 -5.8000001907348633 -48.688873291015625
v 29.722999572753906 0 -48.688873291015625
v 29.722999572753906 -5.8000001907348633 -38.798744201660156
v 29.722999572753906 0 -38.798744201660156
v 41.39239501953125 -5.8000001907348633 -38.798744201660156
v 41.39239501953125 0 -38.798744201660156
v 41.39239501953125 -5.8000001907348633 -48.688873291015625
v 41.39239501953125 0 -48.688873291015625
f 219 217 223 221
f 224 218 220 222
f 217 219 220 218
f 219 221 222 220
f 221 223 224 222
f 223 217 218 224
g object_26
v 18.053604125976562 -5.8000001907348633 -15.095454216003418
v 18.053604125976562 0 -15.095454216003418
v 18.053604125976562 -5.8000001907348633 -4.3987460136413574
v 18.053604125976562 0 -4.3987460136413574
v 18.053604125976562 -5.8000001907348633 -9.7470998764038086
v 18.053604125976562 0 -9.7470998764038086
v 29.722999572753906 -5.8000001907348633 -4.3987460136413574
v 29.722999572753906 0 -4.3987460136413574
v 23.888301849365234 -5.8000001907348633 -4.3987460136413574
v 23.888301849365234 0 -4.3987460136413574
v 29.722999572753906 -5.8000001907348633 -15.095454216003418
v 29.722999572753906 0 -15.095454216003418
v 29.722999572753906 -5.8000001907348633 -9.7470998764038086
v 29.722999572753906 0 -9.7470998764038086
v 23.888301849365234 -5.8000001907348633 -15.095454216003418
v 23.888301849365234 0 -15.095454216003418
f 225 229 227 228 230 226
f 228 227 233 231 232 234
f 238 232 231 237 235 236
f 236 235 239 225 226 240
f 229 225 239 235 237 231 233 227
f 240 226 230 228 234 232 238 236
g object_27
v 5.4465517997741699 -5.8000001907348633 -15.095454216003418
v 5.4465517997741699 0 -15.095454216003418
v 5.4465517997741699 -5.8000001907348633 -4.3987460136413574
v 5.4465517997741699 0 -4.3987460136413574
v 5.4465517997741699 -5.8000001907348633 -9.7470998764038086
v 5.4465517997741699 0 -9.7470998764038086
v 18.053604125976562 -5.8000001907348633 -4.3987460136413574
v 18.053604125976562 0 -4.3987460136413574
v 11.750078201293945 -5.8000001907348633 -4.3987460136413574
v 11.750078201293945 0 -4.3987460136413574
v 18.053604125976562 -5.8000001907348633 -15.095454216003418
v 18.053604125976562 0 -15.095454216003418
v 18.053604125976562 -5.8000001907348633 -9.7470998764038086
v 18.053604125976562 0 -9.7470998764038086
v 11.750078201293945 -5.8000001907348633 -15.095454216003418
v 11.750078201293945 0 -15.095454216003418
f 241 245 243 244 246 242
f 244 243 249 247 248 250
f 254 248 247 253 251 252
f 252 251 255 241 242 256
f 245 241 255 251 253 247 249 243
f 256 242 246 244 250 248 254 252
g object_28
v 18.053604125976562 -5.8000001907348633 -22.897100448608398
v 18.053604125976562 0 -22.897100448608398
v 18.053604125976562 -5.8000001907348633 -15.095454216003418
v 18.053604125976562 0 -15.095454216003418
v 29.722999572753906 -5.8000001907348633 -15.095454216003418
v 29.722999572753906 0 -15.095454216003418
v 29.722999572753906 -5.8000001907348633 -22.897100448608398
v 29.722999572753906 0 -22.897100448608398
f 259 257 263 261
f 264 258 260 262
f 257 259 260 258
f 259 261 262 260
f 261 263 264 262
f 263 257 258 264
g object_29
v 18.053604125976562 -5.8000001907348633 -30.997100830078125
v 18.053604125976562 0 -30.997100830078125
v 18.053604125976562 -5.8000001907348633 -22.897100448608398
v 18.053604125976562 0 -22.897100448608398
v 29.722999572753906 -5.8000001907348633 -22.897100448608398
v 29.722999572753906 0 -22.897100448608398
v 29.722999572753906 -5.8000001907348633 -30.997100830078125
v 29.722999572753906 0 -30.997100830078125
f 267 265 271 269
f 272 266 268 270
f 265 267 268 266
f 267 269 270 268
f 269 271 272 270
f 271 265 266 272
g object_30
v 18.053604125976562 -5.8000001907348633 -38.798744201660156
v 18.053604125976562 0 -38.798744201660156
v 18.053604125976562 -5.8000001907348633 -30.997100830078125
v 18.053604125976562 0 -30.997100830078125
v 29.722999572753906 -5.8000001907348633 -30.997100830078125
v 29.722999572753906 0 -30.997100830078125
v 29.722999572753906 -5.8000001907348633 -38.798744201660156
v 29.722999572753906 0 -38.798744201660156
f 275 273 279 277
f 280 274 276 278
f 273 275 276 274
f 275 277 278 276
f 277 279 280 278
f 279 273 274 280
g object_31
v 18.053604125976562 -5.8000001907348633 -48.688873291015625
v 18.053604125976562 0 -48.688873291015625
v 18.053604125976562 -5.8000001907348633 -38.798744201660156
v 18.053604125976562 0 -38.798744201660156
v 29.722999572753906 -5.8000001907348633 -38.798744201660156
v 29.722999572753906 0 -38.798744201660156
v 29.722999572753906 -5.8000001907348633 -48.688873291015625
v 29.722999572753906 0 -48.688873291015625
f 283 281 287 285
f 288 282 284 286
f 281 283 284 282
f 283 285 286 284
f 285 287 288 286
f 287 281 282 288
g object_32
v 5.4465517997741699 -5.8000001907348633 -22.897100448608398
v 5.4465517997741699 0 -22.897100448608398
v 5.4465517997741699 -5.8000001907348633 -15.095454216003418
v 5.4465517997741699 0 -15.095454216003418
v 18.053604125976562 -5.8000001907348633 -15.095454216003418
v 18.053604125976562 0 -15.095454216003418
v 18.053604125976562 -5.8000001907348633 -22.897100448608398
v 18.053604125976562 0 -22.897100448608398
f 291 289 295 293
f 296 290 292 294
f 289 291 292 290
f 291 293 294 292
f 293 295 296 294
f 295 289 290 296
g object_33
v 5.4465517997741699 -5.8000001907348633 -30.997100830078125
v 5.4465517997741699 0 -30.997100830078125
v 5.4465517997741699 -5.8000001907348633 -22.897100448608398
v 5.4465517997741699 0 -22.897100448608398
v 18.053604125976562 -5.8000001907348633 -22.897100448608398
v 18.053604125976562 0 -22.897100448608398
v 18.053604125976562 -5.8000001907348633 -30.997100830078125
v 18.053604125976562 0 -30.997100830078125
f 299 297 303 301
f 304 298 300 302
f 297 299 300 298
f 299 301 302 300
f 301 303 304 302
f 303 297 298 304
g object_34
v 5.4465517997741699 -5.8000001907348633 -38.798744201660156
v 5.4465517997741699 0 -38.798744201660156
v 5.4465517997741699 -5.8000001907348633 -30.997100830078125
v 5.4465517997741699 0 -30.997100830078125
v 18.053604125976562 -5.8000001907348633 -30.997100830078125
v 18.053604125976562 0 -30.997100830078125
v 18.053604125976562 -5.8000001907348633 -38.798744201660156
v 18.053604125976562 0 -38.798744201660156
f 307 305 311 309
f 312 306 308 310
f 305 307 308 306
f 307 309 310 308
f 309 311 312 310
f 311 305 306 312
g object_35
v 5.4465517997741699 -5.8000001907348633 -48.688873291015625
v 5.4465517997741699 0 -48.688873291015625
v 5.4465517997741699 -5.8000001907348633 -38.798744201660156
v 5.4465517997741699 0 -38.798744201660156
v 18.053604125976562 -5.8000001907348633 -38.798744201660156
v 18.053604125976562 0 -38.798744201660156
v 18.053604125976562 -5.8000001907348633 -48.688873291015625
v 18.053604125976562 0 -48.688873291015625
f 315 313 319 317
f 320 314 316 318
f 313 315 316 314
f 315 317 318 316
f 317 319 320 318
f 319 313 314 320
