# Rhino

g object_1
v 39.636676788330078 5.6999998092651367 -59.163009643554688
v 39.636676788330078 11 -59.163009643554688
v 39.636676788330078 5.6999998092651367 -52.980094909667969
v 39.636676788330078 11 -52.980094909667969
v 39.636676788330078 5.6999998092651367 -56.071552276611328
v 39.636676788330078 8.3500003814697266 -52.980094909667969
v 39.636676788330078 11 -56.071552276611328
v 39.636676788330078 8.3500003814697266 -59.163009643554688
v 47.584327697753906 5.6999998092651367 -52.980094909667969
v 47.584327697753906 11 -52.980094909667969
v 43.610500335693359 5.6999998092651367 -52.980094909667969
v 47.584327697753906 8.3500003814697266 -52.980094909667969
v 43.610500335693359 11 -52.980094909667969
v 47.584327697753906 5.6999998092651367 -59.163009643554688
v 47.584327697753906 11 -59.163009643554688
v 47.584327697753906 5.6999998092651367 -56.071552276611328
v 47.584327697753906 8.3500003814697266 -59.163009643554688
v 47.584327697753906 11 -56.071552276611328
v 43.610500335693359 5.6999998092651367 -59.163009643554688
v 43.610500335693359 11 -59.163009643554688
f 8 1 5 3 6 4 7 2
f 6 3 11 9 12 10 13 4
f 12 9 16 14 17 15 18 10
f 17 14 19 1 8 2 20 15
f 5 1 19 14 16 9 11 3
f 18 15 20 2 7 4 13 10
g object_2
v 57.537929534912109 5.6999998092651367 -48.688873291015625
v 57.537929534912109 11 -48.688873291015625
v 63.035266876220703 5.6999998092651367 -48.688873291015625
v 63.035266876220703 11 -48.688873291015625
v 60.286598205566406 5.6999998092651367 -48.688873291015625
v 63.035266876220703 8.3500003814697266 -48.688873291015625
v 60.286598205566406 11 -48.688873291015625
v 57.537929534912109 8.3500003814697266 -48.688873291015625
v 63.035266876220703 5.6999998092651367 -59.163009643554688
v 63.035266876220703 11 -59.163009643554688
v 63.035266876220703 5.6999998092651367 -53.925941467285156
v 63.035266876220703 8.3500003814697266 -59.163009643554688
v 63.035266876220703 11 -53.925941467285156
v 57.537929534912109 5.6999998092651367 -59.163009643554688
v 57.537929534912109 11 -59.163009643554688
v 60.286598205566406 5.6999998092651367 -59.163009643554688
v 57.537929534912109 8.3500003814697266 -59.163009643554688
v 60.286598205566406 11 -59.163009643554688
v 57.537929534912109 5.6999998092651367 -53.925941467285156
v 57.537929534912109 11 -53.925941467285156
f 28 21 25 23 26 24 27 22
f 33 24 26 23 31 29 32 30
f 32 29 36 34 37 35 38 30
f 40 35 37 34 39 21 28 22
f 25 21 39 34 36 29 31 23
f 40 22 27 24 33 30 38 35
g object_3
v 51.037616729736328 5.6999998092651367 -48.688873291015625
v 51.037616729736328 11 -48.688873291015625
v 57.537929534912109 5.6999998092651367 -48.688873291015625
v 57.537929534912109 11 -48.688873291015625
v 54.287773132324219 5.6999998092651367 -48.688873291015625
v 57.537929534912109 8.3500003814697266 -48.688873291015625
v 54.287773132324219 11 -48.688873291015625
v 51.037616729736328 8.3500003814697266 -48.688873291015625
v 57.537929534912109 5.6999998092651367 -59.163009643554688
v 57.537929534912109 11 -59.163009643554688
v 57.537929534912109 5.6999998092651367 -53.925941467285156
v 57.537929534912109 8.3500003814697266 -59.163009643554688
v 57.537929534912109 11 -53.925941467285156
v 51.037616729736328 5.6999998092651367 -59.163009643554688
v 51.037616729736328 11 -59.163009643554688
v 54.287773132324219 5.6999998092651367 -59.163009643554688
v 51.037616729736328 8.3500003814697266 -59.163009643554688
v 54.287773132324219 11 -59.163009643554688
v 51.037616729736328 5.6999998092651367 -53.925941467285156
v 51.037616729736328 11 -53.925941467285156
f 48 41 45 43 46 44 47 42
f 53 44 46 43 51 49 52 50
f 52 49 56 54 57 55 58 50
f 60 55 57 54 59 41 48 42
f 45 41 59 54 56 49 51 43
f 60 42 47 44 53 50 58 55
g object_4
v 47.584327697753906 5.6999998092651367 -48.688873291015625
v 47.584327697753906 11 -48.688873291015625
v 51.037616729736328 5.6999998092651367 -48.688873291015625
v 51.037616729736328 11 -48.688873291015625
v 51.037616729736328 8.3500003814697266 -48.688873291015625
v 47.584327697753906 8.3500003814697266 -48.688873291015625
v 51.037616729736328 5.6999998092651367 -59.163009643554688
v 51.037616729736328 11 -59.163009643554688
v 51.037616729736328 11 -53.925941467285156
v 51.037616729736328 5.6999998092651367 -53.925941467285156
v 51.037616729736328 8.3500003814697266 -59.163009643554688
v 47.584327697753906 5.6999998092651367 -59.163009643554688
v 47.584327697753906 11 -59.163009643554688
v 47.584327697753906 8.3500003814697266 -59.163009643554688
v 47.584327697753906 11 -53.925941467285156
v 47.584327697753906 5.6999998092651367 -53.925941467285156
f 66 61 63 65 64 62
f 65 63 70 67 71 68 69 64
f 71 67 72 74 73 68
f 75 73 74 72 76 61 66 62
f 70 63 61 76 72 67
f 75 62 64 69 68 73
g object_5
v 35.434326171875 5.6999998092651367 -59.163009643554688
v 35.434326171875 11 -59.163009643554688
v 35.434326171875 5.6999998092651367 -48.688873291015625
v 35.434326171875 11 -48.688873291015625
v 35.434326171875 5.6999998092651367 -53.925941467285156
v 35.434326171875 8.3500003814697266 -48.688873291015625
v 35.434326171875 11 -53.925941467285156
v 35.434326171875 8.3500003814697266 -59.163009643554688
v 39.636676788330078 5.6999998092651367 -48.688873291015625
v 39.636676788330078 11 -48.688873291015625
v 37.535503387451172 5.6999998092651367 -48.688873291015625
v 39.636676788330078 8.3500003814697266 -48.688873291015625
v 37.535503387451172 11 -48.688873291015625
v 39.636676788330078 5.6999998092651367 -59.163009643554688
v 39.636676788330078 11 -59.163009643554688
v 39.636676788330078 11 -53.925941467285156
v 39.636676788330078 5.6999998092651367 -53.925941467285156
v 39.636676788330078 8.3500003814697266 -59.163009643554688
v 37.535503387451172 5.6999998092651367 -59.163009643554688
v 37.535503387451172 11 -59.163009643554688
f 83 78 84 77 81 79 82 80
f 82 79 87 85 88 86 89 80
f 88 85 93 90 94 91 92 86
f 94 90 95 77 84 78 96 91
f 81 77 95 90 93 85 87 79
f 96 78 83 80 89 86 92 91
g object_6
v 57.537929534912109 5.6999998092651367 -38.798744201660156
v 57.537929534912109 11 -38.798744201660156
v 63.035266876220703 5.6999998092651367 -38.798744201660156
v 63.035266876220703 11 -38.798744201660156
v 60.286598205566406 5.6999998092651367 -38.798744201660156
v 63.035266876220703 8.3500003814697266 -38.798744201660156
v 60.286598205566406 11 -38.798744201660156
v 57.537929534912109 8.3500003814697266 -38.798744201660156
v 63.035266876220703 5.6999998092651367 -48.688873291015625
v 63.035266876220703 11 -48.688873291015625
v 63.035266876220703 5.6999998092651367 -43.743808746337891
v 63.035266876220703 8.3500003814697266 -48.688873291015625
v 63.035266876220703 11 -43.743808746337891
v 57.537929534912109 5.6999998092651367 -48.688873291015625
v 57.537929534912109 11 -48.688873291015625
v 60.286598205566406 5.6999998092651367 -48.688873291015625
v 57.537929534912109 8.3500003814697266 -48.688873291015625
v 60.286598205566406 11 -48.688873291015625
v 57.537929534912109 5.6999998092651367 -43.743808746337891
v 57.537929534912109 11 -43.743808746337891
f 104 97 101 99 102 100 103 98
f 109 100 102 99 107 105 108 106
f 108 105 112 110 113 111 114 106
f 116 111 113 110 115 97 104 98
f 101 97 115 110 112 105 107 99
f 116 98 103 100 109 106 114 111
g object_7
v 57.537929534912109 5.6999998092651367 -15.095454216003418
v 57.537929534912109 11 -15.095454216003418
v 63.035266876220703 5.6999998092651367 -15.095454216003418
v 63.035266876220703 11 -15.095454216003418
v 60.286598205566406 5.6999998092651367 -15.095454216003418
v 63.035266876220703 8.3500003814697266 -15.095454216003418
v 60.286598205566406 11 -15.095454216003418
v 57.537929534912109 8.3500003814697266 -15.095454216003418
v 63.035266876220703 5.6999998092651367 -22.897100448608398
v 63.035266876220703 11 -22.897100448608398
v 63.035266876220703 5.6999998092651367 -18.99627685546875
v 63.035266876220703 8.3500003814697266 -22.897100448608398
v 63.035266876220703 11 -18.99627685546875
v 57.537929534912109 5.6999998092651367 -22.897100448608398
v 57.537929534912109 11 -22.897100448608398
v 60.286598205566406 5.6999998092651367 -22.897100448608398
v 57.537929534912109 8.3500003814697266 -22.897100448608398
v 60.286598205566406 11 -22.897100448608398
v 57.537929534912109 5.6999998092651367 -18.99627685546875
v 57.537929534912109 11 -18.99627685546875
f 124 117 121 119 122 120 123 118
f 129 120 122 119 127 125 128 126
f 128 125 132 130 133 131 134 126
f 136 131 133 130 135 117 124 118
f 121 117 135 130 132 125 127 119
f 136 118 123 120 129 126 134 131
g object_8
v 57.537929534912109 5.6999998092651367 -4.3987460136413574
v 57.537929534912109 11 -4.3987460136413574
v 63.035266876220703 5.6999998092651367 -4.3987460136413574
v 63.035266876220703 11 -4.3987460136413574
v 60.286598205566406 5.6999998092651367 -4.3987460136413574
v 63.035266876220703 8.3500003814697266 -4.3987460136413574
v 60.286598205566406 11 -4.3987460136413574
v 57.537929534912109 8.3500003814697266 -4.3987460136413574
v 63.035266876220703 5.6999998092651367 -15.095454216003418
v 63.035266876220703 11 -15.095454216003418
v 63.035266876220703 11 -9.7470998764038086
v 63.035266876220703 5.6999998092651367 -9.7470998764038086
v 63.035266876220703 8.3500003814697266 -15.095454216003418
v 57.537929534912109 5.6999998092651367 -15.095454216003418
v 57.537929534912109 11 -15.095454216003418
v 60.286598205566406 5.6999998092651367 -15.095454216003418
v 57.537929534912109 8.3500003814697266 -15.095454216003418
v 60.286598205566406 11 -15.095454216003418
v 57.537929534912109 11 -9.7470998764038086
v 57.537929534912109 5.6999998092651367 -9.7470998764038086
f 144 137 141 139 142 140 143 138
f 142 139 148 145 149 146 147 140
f 149 145 152 150 153 151 154 146
f 153 150 156 137 144 138 155 151
f 141 137 156 150 152 145 148 139
f 155 138 143 140 147 146 154 151
g object_9
v 57.537929534912109 5.6999998092651367 -30.997100830078125
v 57.537929534912109 11 -30.997100830078125
v 63.035266876220703 5.6999998092651367 -30.997100830078125
v 63.035266876220703 11 -30.997100830078125
v 60.286598205566406 5.6999998092651367 -30.997100830078125
v 63.035266876220703 8.3500003814697266 -30.997100830078125
v 60.286598205566406 11 -30.997100830078125
v 57.537929534912109 8.3500003814697266 -30.997100830078125
v 63.035266876220703 5.6999998092651367 -38.798744201660156
v 63.035266876220703 11 -38.798744201660156
v 63.035266876220703 5.6999998092651367 -34.897922515869141
v 63.035266876220703 8.3500003814697266 -38.798744201660156
v 63.035266876220703 11 -34.897922515869141
v 57.537929534912109 5.6999998092651367 -38.798744201660156
v 57.537929534912109 11 -38.798744201660156
v 60.286598205566406 5.6999998092651367 -38.798744201660156
v 57.537929534912109 8.3500003814697266 -38.798744201660156
v 60.286598205566406 11 -38.798744201660156
v 57.537929534912109 5.6999998092651367 -34.897922515869141
v 57.537929534912109 11 -34.897922515869141
f 164 157 161 159 162 160 163 158
f 162 159 167 165 168 166 169 160
f 168 165 172 170 173 171 174 166
f 173 170 175 157 164 158 176 171
f 161 157 175 170 172 165 167 159
f 176 158 163 160 169 166 174 171
g object_10
v 57.537929534912109 5.6999998092651367 -22.897100448608398
v 57.537929534912109 11 -22.897100448608398
v 63.035266876220703 5.6999998092651367 -22.897100448608398
v 63.035266876220703 11 -22.897100448608398
v 60.286598205566406 5.6999998092651367 -22.897100448608398
v 63.035266876220703 8.3500003814697266 -22.897100448608398
v 60.286598205566406 11 -22.897100448608398
v 57.537929534912109 8.3500003814697266 -22.897100448608398
v 63.035266876220703 5.6999998092651367 -30.997100830078125
v 63.035266876220703 11 -30.997100830078125
v 63.035266876220703 5.6999998092651367 -26.947099685668945
v 63.035266876220703 8.3500003814697266 -30.997100830078125
v 63.035266876220703 11 -26.947099685668945
v 57.537929534912109 5.6999998092651367 -30.997100830078125
v 57.537929534912109 11 -30.997100830078125
v 60.286598205566406 5.6999998092651367 -30.997100830078125
v 57.537929534912109 8.3500003814697266 -30.997100830078125
v 60.286598205566406 11 -30.997100830078125
v 57.537929534912109 5.6999998092651367 -26.947099685668945
v 57.537929534912109 11 -26.947099685668945
f 184 177 181 179 182 180 183 178
f 182 179 187 185 188 186 189 180
f 188 185 192 190 193 191 194 186
f 196 191 193 190 195 177 184 178
f 181 177 195 190 192 185 187 179
f 196 178 183 180 189 186 194 191
g object_11
v 51.037616729736328 5.6999998092651367 -38.798744201660156
v 51.037616729736328 11 -38.798744201660156
v 57.537929534912109 5.6999998092651367 -38.798744201660156
v 57.537929534912109 11 -38.798744201660156
v 54.287773132324219 5.6999998092651367 -38.798744201660156
v 57.537929534912109 8.3500003814697266 -38.798744201660156
v 54.287773132324219 11 -38.798744201660156
v 51.037616729736328 8.3500003814697266 -38.798744201660156
v 57.537929534912109 5.6999998092651367 -48.688873291015625
v 57.537929534912109 11 -48.688873291015625
v 57.537929534912109 5.6999998092651367 -43.743808746337891
v 57.537929534912109 8.3500003814697266 -48.688873291015625
v 57.537929534912109 11 -43.743808746337891
v 51.037616729736328 5.6999998092651367 -48.688873291015625
v 51.037616729736328 11 -48.688873291015625
v 54.287773132324219 5.6999998092651367 -48.688873291015625
v 51.037616729736328 8.3500003814697266 -48.688873291015625
v 54.287773132324219 11 -48.688873291015625
v 51.037616729736328 5.6999998092651367 -43.743808746337891
v 51.037616729736328 11 -43.743808746337891
f 204 197 201 199 202 200 203 198
f 209 200 202 199 207 205 208 206
f 208 205 212 210 213 211 214 206
f 216 211 213 210 215 197 204 198
f 201 197 215 210 212 205 207 199
f 216 198 203 200 209 206 214 211
g object_12
v 47.584327697753906 5.6999998092651367 -38.798744201660156
v 47.584327697753906 11 -38.798744201660156
v 51.037616729736328 5.6999998092651367 -38.798744201660156
v 51.037616729736328 11 -38.798744201660156
v 51.037616729736328 8.3500003814697266 -38.798744201660156
v 47.584327697753906 8.3500003814697266 -38.798744201660156
v 51.037616729736328 5.6999998092651367 -48.688873291015625
v 51.037616729736328 11 -48.688873291015625
v 51.037616729736328 5.6999998092651367 -43.743808746337891
v 51.037616729736328 8.3500003814697266 -48.688873291015625
v 51.037616729736328 11 -43.743808746337891
v 47.584327697753906 5.6999998092651367 -48.688873291015625
v 47.584327697753906 11 -48.688873291015625
v 47.584327697753906 8.3500003814697266 -48.688873291015625
v 47.584327697753906 5.6999998092651367 -43.743808746337891
v 47.584327697753906 11 -43.743808746337891
f 222 217 219 221 220 218
f 221 219 225 223 226 224 227 220
f 226 223 228 230 229 224
f 222 218 232 229 230 228 231 217
f 225 219 217 231 228 223
f 232 218 220 227 224 229
g object_13
v 51.037616729736328 5.6999998092651367 -15.095454216003418
v 51.037616729736328 11 -15.095454216003418
v 57.537929534912109 5.6999998092651367 -15.095454216003418
v 57.537929534912109 11 -15.095454216003418
v 54.287773132324219 5.6999998092651367 -15.095454216003418
v 57.537929534912109 8.3500003814697266 -15.095454216003418
v 54.287773132324219 11 -15.095454216003418
v 51.037616729736328 8.3500003814697266 -15.095454216003418
v 57.537929534912109 5.6999998092651367 -22.897100448608398
v 57.537929534912109 11 -22.897100448608398
v 57.537929534912109 5.6999998092651367 -18.99627685546875
v 57.537929534912109 8.3500003814697266 -22.897100448608398
v 57.537929534912109 11 -18.99627685546875
v 51.037616729736328 5.6999998092651367 -22.897100448608398
v 51.037616729736328 11 -22.897100448608398
v 54.287773132324219 5.6999998092651367 -22.897100448608398
v 51.037616729736328 8.3500003814697266 -22.897100448608398
v 54.287773132324219 11 -22.897100448608398
v 51.037616729736328 5.6999998092651367 -18.99627685546875
v 51.037616729736328 11 -18.99627685546875
f 240 233 237 235 238 236 239 234
f 245 236 238 235 243 241 244 242
f 244 241 248 246 249 247 250 242
f 252 247 249 246 251 233 240 234
f 237 233 251 246 248 241 243 235
f 252 234 239 236 245 242 250 247
g object_14
v 51.037616729736328 5.6999998092651367 -4.3987460136413574
v 51.037616729736328 11 -4.3987460136413574
v 57.537929534912109 5.6999998092651367 -4.3987460136413574
v 57.537929534912109 11 -4.3987460136413574
v 54.287773132324219 5.6999998092651367 -4.3987460136413574
v 57.537929534912109 8.3500003814697266 -4.3987460136413574
v 54.287773132324219 11 -4.3987460136413574
v 51.037616729736328 8.3500003814697266 -4.3987460136413574
v 57.537929534912109 5.6999998092651367 -15.095454216003418
v 57.537929534912109 11 -15.095454216003418
v 57.537929534912109 11 -9.7470998764038086
v 57.537929534912109 5.6999998092651367 -9.7470998764038086
v 57.537929534912109 8.3500003814697266 -15.095454216003418
v 51.037616729736328 5.6999998092651367 -15.095454216003418
v 51.037616729736328 11 -15.095454216003418
v 54.287773132324219 5.6999998092651367 -15.095454216003418
v 51.037616729736328 8.3500003814697266 -15.095454216003418
v 54.287773132324219 11 -15.095454216003418
v 51.037616729736328 11 -9.7470998764038086
v 51.037616729736328 5.6999998092651367 -9.7470998764038086
f 260 253 257 255 258 256 259 254
f 258 255 264 261 265 262 263 256
f 265 261 268 266 269 267 270 262
f 269 266 272 253 260 254 271 267
f 257 253 272 266 268 261 264 255
f 271 254 259 256 263 262 270 267
g object_15
v 51.037616729736328 5.6999998092651367 -30.997100830078125
v 51.037616729736328 11 -30.997100830078125
v 57.537929534912109 5.6999998092651367 -30.997100830078125
v 57.537929534912109 11 -30.997100830078125
v 54.287773132324219 5.6999998092651367 -30.997100830078125
v 57.537929534912109 8.3500003814697266 -30.997100830078125
v 54.287773132324219 11 -30.997100830078125
v 51.037616729736328 8.3500003814697266 -30.997100830078125
v 57.537929534912109 5.6999998092651367 -38.798744201660156
v 57.537929534912109 11 -38.798744201660156
v 57.537929534912109 5.6999998092651367 -34.897922515869141
v 57.537929534912109 8.3500003814697266 -38.798744201660156
v 57.537929534912109 11 -34.897922515869141
v 51.037616729736328 5.6999998092651367 -38.798744201660156
v 51.037616729736328 11 -38.798744201660156
v 54.287773132324219 5.6999998092651367 -38.798744201660156
v 51.037616729736328 8.3500003814697266 -38.798744201660156
v 54.287773132324219 11 -38.798744201660156
v 51.037616729736328 5.6999998092651367 -34.897922515869141
v 51.037616729736328 11 -34.897922515869141
f 280 273 277 275 278 276 279 274
f 278 275 283 281 284 282 285 276
f 284 281 288 286 289 287 290 282
f 292 287 289 286 291 273 280 274
f 277 273 291 286 288 281 283 275
f 292 274 279 276 285 282 290 287
g object_16
v 51.037616729736328 5.6999998092651367 -22.897100448608398
v 51.037616729736328 11 -22.897100448608398
v 57.537929534912109 5.6999998092651367 -22.897100448608398
v 57.537929534912109 11 -22.897100448608398
v 54.287773132324219 5.6999998092651367 -22.897100448608398
v 57.537929534912109 8.3500003814697266 -22.897100448608398
v 54.287773132324219 11 -22.897100448608398
v 51.037616729736328 8.3500003814697266 -22.897100448608398
v 57.537929534912109 5.6999998092651367 -30.997100830078125
v 57.537929534912109 11 -30.997100830078125
v 57.537929534912109 5.6999998092651367 -26.947099685668945
v 57.537929534912109 8.3500003814697266 -30.997100830078125
v 57.537929534912109 11 -26.947099685668945
v 51.037616729736328 5.6999998092651367 -30.997100830078125
v 51.037616729736328 11 -30.997100830078125
v 54.287773132324219 5.6999998092651367 -30.997100830078125
v 51.037616729736328 8.3500003814697266 -30.997100830078125
v 54.287773132324219 11 -30.997100830078125
v 51.037616729736328 5.6999998092651367 -26.947099685668945
v 51.037616729736328 11 -26.947099685668945
f 300 293 297 295 298 296 299 294
f 298 295 303 301 304 302 305 296
f 304 301 308 306 309 307 310 302
f 312 307 309 306 311 293 300 294
f 297 293 311 306 308 301 303 295
f 312 294 299 296 305 302 310 307
g object_17
v 35.434326171875 5.6999998092651367 -22.897100448608398
v 35.434326171875 11 -22.897100448608398
v 35.434326171875 5.6999998092651367 -15.095454216003418
v 35.434326171875 11 -15.095454216003418
v 35.434326171875 5.6999998092651367 -18.99627685546875
v 35.434326171875 11 -18.99627685546875
v 44.537303924560547 5.6999998092651367 -15.095454216003418
v 44.537303924560547 11 -15.095454216003418
v 39.985813140869141 5.6999998092651367 -15.095454216003418
v 39.985813140869141 11 -15.095454216003418
v 44.537303924560547 5.6999998092651367 -22.897100448608398
v 44.537303924560547 11 -22.897100448608398
v 44.537303924560547 5.6999998092651367 -18.99627685546875
v 44.537303924560547 11 -18.99627685546875
v 39.985813140869141 5.6999998092651367 -22.897100448608398
v 39.985813140869141 11 -22.897100448608398
f 314 313 317 315 316 318
f 316 315 321 319 320 322
f 326 320 319 325 323 324
f 324 323 327 313 314 328
f 327 323 325 319 321 315 317 313
f 322 320 326 324 328 314 318 316
g object_18
v 44.537303924560547 5.6999998092651367 -15.095454216003418
v 44.537303924560547 11 -15.095454216003418
v 51.037616729736328 5.6999998092651367 -15.095454216003418
v 51.037616729736328 11 -15.095454216003418
v 47.787460327148438 5.6999998092651367 -15.095454216003418
v 51.037616729736328 8.3500003814697266 -15.095454216003418
v 47.787460327148438 11 -15.095454216003418
v 44.537303924560547 8.3500003814697266 -15.095454216003418
v 51.037616729736328 5.6999998092651367 -22.897100448608398
v 51.037616729736328 11 -22.897100448608398
v 51.037616729736328 5.6999998092651367 -18.99627685546875
v 51.037616729736328 8.3500003814697266 -22.897100448608398
v 51.037616729736328 11 -18.99627685546875
v 44.537303924560547 5.6999998092651367 -22.897100448608398
v 44.537303924560547 11 -22.897100448608398
v 47.787460327148438 5.6999998092651367 -22.897100448608398
v 44.537303924560547 8.3500003814697266 -22.897100448608398
v 47.787460327148438 11 -22.897100448608398
v 44.537303924560547 5.6999998092651367 -18.99627685546875
v 44.537303924560547 11 -18.99627685546875
f 336 329 333 331 334 332 335 330
f 341 332 334 331 339 337 340 338
f 340 337 344 342 345 343 346 338
f 348 343 345 342 347 329 336 330
f 333 329 347 342 344 337 339 331
f 348 330 335 332 341 338 346 343
g object_19
v 5.4465517997741699 5.6999998092651367 -22.897100448608398
v 5.4465517997741699 11 -22.897100448608398
v 5.4465517997741699 5.6999998092651367 -15.095454216003418
v 5.4465517997741699 11 -15.095454216003418
v 5.4465517997741699 5.6999998092651367 -18.99627685546875
v 5.4465517997741699 8.3500003814697266 -15.095454216003418
v 5.4465517997741699 11 -18.99627685546875
v 5.4465517997741699 8.3500003814697266 -22.897100448608398
v 11.743730545043945 5.6999998092651367 -15.095454216003418
v 11.743730545043945 11 -15.095454216003418
v 8.5951414108276367 5.6999998092651367 -15.095454216003418
v 11.743730545043945 8.3500003814697266 -15.095454216003418
v 8.5951414108276367 11 -15.095454216003418
v 11.743730545043945 5.6999998092651367 -22.897100448608398
v 11.743730545043945 11 -22.897100448608398
v 11.743730545043945 5.6999998092651367 -18.99627685546875
v 11.743730545043945 8.3500003814697266 -22.897100448608398
v 11.743730545043945 11 -18.99627685546875
v 8.5951414108276367 5.6999998092651367 -22.897100448608398
v 8.5951414108276367 11 -22.897100448608398
f 356 349 353 351 354 352 355 350
f 354 351 359 357 360 358 361 352
f 360 357 364 362 365 363 366 358
f 365 362 367 349 356 350 368 363
f 353 349 367 362 364 357 359 351
f 368 350 355 352 361 358 366 363
g object_20
v 18.053604125976562 5.6999998092651367 -15.095454216003418
v 18.053604125976562 11 -15.095454216003418
v 18.053604125976562 5.6999998092651367 -4.3987460136413574
v 18.053604125976562 11 -4.3987460136413574
v 18.053604125976562 5.6999998092651367 -9.7470998764038086
v 18.053604125976562 8.3500003814697266 -4.3987460136413574
v 18.053604125976562 11 -9.7470998764038086
v 18.053604125976562 8.3500003814697266 -15.095454216003418
v 23.729909896850586 5.6999998092651367 -4.3987460136413574
v 23.729909896850586 11 -4.3987460136413574
v 20.891757965087891 5.6999998092651367 -4.3987460136413574
v 23.729909896850586 8.3500003814697266 -4.3987460136413574
v 20.891757965087891 11 -4.3987460136413574
v 23.729909896850586 5.6999998092651367 -15.095454216003418
v 23.729909896850586 11 -15.095454216003418
v 23.729909896850586 11 -9.7470998764038086
v 23.729909896850586 5.6999998092651367 -9.7470998764038086
v 23.729909896850586 8.3500003814697266 -15.095454216003418
v 20.891757965087891 5.6999998092651367 -15.095454216003418
v 20.891757965087891 11 -15.095454216003418
f 375 370 376 369 373 371 374 372
f 374 371 379 377 380 378 381 372
f 380 377 385 382 386 383 384 378
f 386 382 387 369 376 370 388 383
f 387 382 385 377 379 371 373 369
f 388 370 375 372 381 378 384 383
g object_21
v 11.743730545043945 5.6999998092651367 -15.095454216003418
v 11.743730545043945 11 -15.095454216003418
v 11.743730545043945 5.6999998092651367 -4.3987460136413574
v 11.743730545043945 11 -4.3987460136413574
v 11.743730545043945 5.6999998092651367 -9.7470998764038086
v 11.743730545043945 8.3500003814697266 -4.3987460136413574
v 11.743730545043945 11 -9.7470998764038086
v 11.743730545043945 8.3500003814697266 -15.095454216003418
v 18.053604125976562 5.6999998092651367 -4.3987460136413574
v 18.053604125976562 11 -4.3987460136413574
v 14.898667335510254 5.6999998092651367 -4.3987460136413574
v 18.053604125976562 8.3500003814697266 -4.3987460136413574
v 14.898667335510254 11 -4.3987460136413574
v 18.053604125976562 5.6999998092651367 -15.095454216003418
v 18.053604125976562 11 -15.095454216003418
v 18.053604125976562 11 -9.7470998764038086
v 18.053604125976562 5.6999998092651367 -9.7470998764038086
v 18.053604125976562 8.3500003814697266 -15.095454216003418
v 14.898667335510254 5.6999998092651367 -15.095454216003418
v 14.898667335510254 11 -15.095454216003418
f 396 389 393 391 394 392 395 390
f 394 391 399 397 400 398 401 392
f 400 397 405 402 406 403 404 398
f 406 402 407 389 396 390 408 403
f 393 389 407 402 405 397 399 391
f 404 403 408 390 395 392 401 398
g object_22
v 35.434326171875 5.6999998092651367 -15.095454216003418
v 35.434326171875 11 -15.095454216003418
v 35.434326171875 5.6999998092651367 -4.3987460136413574
v 35.434326171875 11 -4.3987460136413574
v 35.434326171875 5.6999998092651367 -9.7470998764038086
v 35.434326171875 11 -9.7470998764038086
v 44.537303924560547 5.6999998092651367 -4.3987460136413574
v 44.537303924560547 11 -4.3987460136413574
v 39.985813140869141 5.6999998092651367 -4.3987460136413574
v 39.985813140869141 11 -4.3987460136413574
v 44.537303924560547 5.6999998092651367 -15.095454216003418
v 44.537303924560547 11 -15.095454216003418
v 44.537303924560547 5.6999998092651367 -9.7470998764038086
v 44.537303924560547 11 -9.7470998764038086
v 39.985813140869141 5.6999998092651367 -15.095454216003418
v 39.985813140869141 11 -15.095454216003418
f 410 409 413 411 412 414
f 412 411 417 415 416 418
f 416 415 421 419 420 422
f 420 419 423 409 410 424
f 413 409 423 419 421 415 417 411
f 424 410 414 412 418 416 422 420
g object_23
v 29.722999572753906 5.6999998092651367 -15.095454216003418
v 29.722999572753906 11 -15.095454216003418
v 29.722999572753906 5.6999998092651367 -4.3987460136413574
v 29.722999572753906 11 -4.3987460136413574
v 29.722999572753906 5.6999998092651367 -9.7470998764038086
v 29.722999572753906 8.3500003814697266 -4.3987460136413574
v 29.722999572753906 11 -9.7470998764038086
v 29.722999572753906 8.3500003814697266 -15.095454216003418
v 35.434326171875 5.6999998092651367 -4.3987460136413574
v 35.434326171875 11 -4.3987460136413574
v 32.578662872314453 5.6999998092651367 -4.3987460136413574
v 35.434326171875 8.3500003814697266 -4.3987460136413574
v 32.578662872314453 11 -4.3987460136413574
v 35.434326171875 5.6999998092651367 -15.095454216003418
v 35.434326171875 11 -15.095454216003418
v 35.434326171875 11 -9.7470998764038086
v 35.434326171875 5.6999998092651367 -9.7470998764038086
v 35.434326171875 8.3500003814697266 -15.095454216003418
v 32.578662872314453 5.6999998092651367 -15.095454216003418
v 32.578662872314453 11 -15.095454216003418
f 432 425 429 427 430 428 431 426
f 430 427 435 433 436 434 437 428
f 436 433 441 438 442 439 440 434
f 442 438 443 425 432 426 444 439
f 443 438 441 433 435 427 429 425
f 437 434 440 439 444 426 431 428
g object_24
v 5.4465517997741699 5.6999998092651367 -15.095454216003418
v 5.4465517997741699 11 -15.095454216003418
v 5.4465517997741699 5.6999998092651367 -4.3987460136413574
v 5.4465517997741699 11 -4.3987460136413574
v 5.4465517997741699 5.6999998092651367 -9.7470998764038086
v 5.4465517997741699 8.3500003814697266 -4.3987460136413574
v 5.4465517997741699 11 -9.7470998764038086
v 5.4465517997741699 8.3500003814697266 -15.095454216003418
v 11.743730545043945 5.6999998092651367 -4.3987460136413574
v 11.743730545043945 11 -4.3987460136413574
v 8.5951414108276367 5.6999998092651367 -4.3987460136413574
v 11.743730545043945 8.3500003814697266 -4.3987460136413574
v 8.5951414108276367 11 -4.3987460136413574
v 11.743730545043945 5.6999998092651367 -15.095454216003418
v 11.743730545043945 11 -15.095454216003418
v 11.743730545043945 11 -9.7470998764038086
v 11.743730545043945 5.6999998092651367 -9.7470998764038086
v 11.743730545043945 8.3500003814697266 -15.095454216003418
v 8.5951414108276367 5.6999998092651367 -15.095454216003418
v 8.5951414108276367 11 -15.095454216003418
f 452 445 449 447 450 448 451 446
f 450 447 455 453 456 454 457 448
f 456 453 461 458 462 459 460 454
f 462 458 463 445 452 446 464 459
f 463 458 461 453 455 447 449 445
f 457 454 460 459 464 446 451 448
g object_25
v 23.729909896850586 5.6999998092651367 -15.095454216003418
v 23.729909896850586 11 -15.095454216003418
v 23.729909896850586 5.6999998092651367 -4.3987460136413574
v 23.729909896850586 11 -4.3987460136413574
v 23.729909896850586 5.6999998092651367 -9.7470998764038086
v 23.729909896850586 8.3500003814697266 -4.3987460136413574
v 23.729909896850586 11 -9.7470998764038086
v 23.729909896850586 8.3500003814697266 -15.095454216003418
v 29.722999572753906 5.6999998092651367 -4.3987460136413574
v 29.722999572753906 11 -4.3987460136413574
v 26.72645378112793 5.6999998092651367 -4.3987460136413574
v 29.722999572753906 8.3500003814697266 -4.3987460136413574
v 26.72645378112793 11 -4.3987460136413574
v 29.722999572753906 5.6999998092651367 -15.095454216003418
v 29.722999572753906 11 -15.095454216003418
v 29.722999572753906 11 -9.7470998764038086
v 29.722999572753906 5.6999998092651367 -9.7470998764038086
v 29.722999572753906 8.3500003814697266 -15.095454216003418
v 26.72645378112793 5.6999998092651367 -15.095454216003418
v 26.72645378112793 11 -15.095454216003418
f 472 465 469 467 470 468 471 466
f 470 467 475 473 476 474 477 468
f 476 473 481 478 482 479 480 474
f 482 478 483 465 472 466 484 479
f 483 478 481 473 475 467 469 465
f 477 474 480 479 484 466 471 468
g object_26
v 44.537303924560547 5.6999998092651367 -4.3987460136413574
v 44.537303924560547 11 -4.3987460136413574
v 51.037616729736328 5.6999998092651367 -4.3987460136413574
v 51.037616729736328 11 -4.3987460136413574
v 47.787460327148438 5.6999998092651367 -4.3987460136413574
v 51.037616729736328 8.3500003814697266 -4.3987460136413574
v 47.787460327148438 11 -4.3987460136413574
v 44.537303924560547 8.3500003814697266 -4.3987460136413574
v 51.037616729736328 5.6999998092651367 -15.095454216003418
v 51.037616729736328 11 -15.095454216003418
v 51.037616729736328 11 -9.7470998764038086
v 51.037616729736328 5.6999998092651367 -9.7470998764038086
v 51.037616729736328 8.3500003814697266 -15.095454216003418
v 44.537303924560547 5.6999998092651367 -15.095454216003418
v 44.537303924560547 11 -15.095454216003418
v 47.787460327148438 5.6999998092651367 -15.095454216003418
v 44.537303924560547 8.3500003814697266 -15.095454216003418
v 47.787460327148438 11 -15.095454216003418
v 44.537303924560547 11 -9.7470998764038086
v 44.537303924560547 5.6999998092651367 -9.7470998764038086
f 492 485 489 487 490 488 491 486
f 490 487 496 493 497 494 495 488
f 497 493 500 498 501 499 502 494
f 501 498 504 485 492 486 503 499
f 489 485 504 498 500 493 496 487
f 503 486 491 488 495 494 502 499
g object_27
v 18.053604125976562 5.6999998092651367 -48.688873291015625
v 18.053604125976562 11 -48.688873291015625
v 18.053604125976562 5.6999998092651367 -38.798744201660156
v 18.053604125976562 11 -38.798744201660156
v 23.729909896850586 5.6999998092651367 -38.798744201660156
v 23.729909896850586 11 -38.798744201660156
v 23.729909896850586 5.6999998092651367 -48.688873291015625
v 23.729909896850586 11 -48.688873291015625
f 507 505 511 509
f 512 506 508 510
f 505 507 508 506
f 507 509 510 508
f 509 511 512 510
f 511 505 506 512
g object_28
v 11.743730545043945 5.6999998092651367 -48.688873291015625
v 11.743730545043945 11 -48.688873291015625
v 11.743730545043945 5.6999998092651367 -38.798744201660156
v 11.743730545043945 11 -38.798744201660156
v 18.053604125976562 5.6999998092651367 -38.798744201660156
v 18.053604125976562 11 -38.798744201660156
v 18.053604125976562 5.6999998092651367 -48.688873291015625
v 18.053604125976562 11 -48.688873291015625
f 515 513 519 517
f 520 514 516 518
f 513 515 516 514
f 515 517 518 516
f 517 519 520 518
f 519 513 514 520
g object_29
v 35.434326171875 5.6999998092651367 -48.688873291015625
v 35.434326171875 11 -48.688873291015625
v 35.434326171875 5.6999998092651367 -38.798744201660156
v 35.434326171875 11 -38.798744201660156
v 35.434326171875 5.6999998092651367 -43.743808746337891
v 35.434326171875 8.3500003814697266 -38.798744201660156
v 35.434326171875 11 -43.743808746337891
v 35.434326171875 8.3500003814697266 -48.688873291015625
v 39.636676788330078 5.6999998092651367 -38.798744201660156
v 39.636676788330078 11 -38.798744201660156
v 37.535503387451172 5.6999998092651367 -38.798744201660156
v 39.636676788330078 8.3500003814697266 -38.798744201660156
v 37.535503387451172 11 -38.798744201660156
v 39.636676788330078 5.6999998092651367 -48.688873291015625
v 39.636676788330078 11 -48.688873291015625
v 39.636676788330078 5.6999998092651367 -43.743808746337891
v 39.636676788330078 8.3500003814697266 -48.688873291015625
v 39.636676788330078 11 -43.743808746337891
v 37.535503387451172 5.6999998092651367 -48.688873291015625
v 37.535503387451172 11 -48.688873291015625
f 526 524 527 522 528 521 525 523
f 526 523 531 529 532 530 533 524
f 532 529 536 534 537 535 538 530
f 537 534 539 521 528 522 540 535
f 525 521 539 534 536 529 531 523
f 540 522 527 524 533 530 538 535
g object_30
v 29.722999572753906 5.6999998092651367 -48.688873291015625
v 29.722999572753906 11 -48.688873291015625
v 29.722999572753906 5.6999998092651367 -38.798744201660156
v 29.722999572753906 11 -38.798744201660156
v 35.434326171875 5.6999998092651367 -38.798744201660156
v 35.434326171875 11 -38.798744201660156
v 35.434326171875 5.6999998092651367 -48.688873291015625
v 35.434326171875 11 -48.688873291015625
f 543 541 547 545
f 548 542 544 546
f 541 543 544 542
f 543 545 546 544
f 545 547 548 546
f 547 541 542 548
g object_31
v 23.729909896850586 5.6999998092651367 -48.688873291015625
v 23.729909896850586 11 -48.688873291015625
v 23.729909896850586 5.6999998092651367 -38.798744201660156
v 23.729909896850586 11 -38.798744201660156
v 29.722999572753906 5.6999998092651367 -38.798744201660156
v 29.722999572753906 11 -38.798744201660156
v 29.722999572753906 5.6999998092651367 -48.688873291015625
v 29.722999572753906 11 -48.688873291015625
f 551 549 555 553
f 556 550 552 554
f 549 551 552 550
f 551 553 554 552
f 553 555 556 554
f 555 549 550 556
g object_32
v 5.4465517997741699 5.6999998092651367 -48.688873291015625
v 5.4465517997741699 11 -48.688873291015625
v 5.4465517997741699 5.6999998092651367 -38.798744201660156
v 5.4465517997741699 11 -38.798744201660156
v 11.743730545043945 5.6999998092651367 -38.798744201660156
v 11.743730545043945 11 -38.798744201660156
v 11.743730545043945 5.6999998092651367 -48.688873291015625
v 11.743730545043945 11 -48.688873291015625
f 559 557 563 561
f 564 558 560 562
f 557 559 560 558
f 559 561 562 560
f 561 563 564 562
f 563 557 558 564
g object_33
v 11.743730545043945 5.6999998092651367 -38.798744201660156
v 11.743730545043945 11 -38.798744201660156
v 11.743730545043945 5.6999998092651367 -30.997100830078125
v 11.743730545043945 11 -30.997100830078125
v 11.743730545043945 5.6999998092651367 -34.897922515869141
v 11.743730545043945 8.3500003814697266 -30.997100830078125
v 11.743730545043945 11 -34.897922515869141
v 11.743730545043945 8.3500003814697266 -38.798744201660156
v 18.053604125976562 5.6999998092651367 -30.997100830078125
v 18.053604125976562 11 -30.997100830078125
v 14.898667335510254 5.6999998092651367 -30.997100830078125
v 18.053604125976562 8.3500003814697266 -30.997100830078125
v 14.898667335510254 11 -30.997100830078125
v 18.053604125976562 5.6999998092651367 -38.798744201660156
v 18.053604125976562 11 -38.798744201660156
v 18.053604125976562 5.6999998092651367 -34.897922515869141
v 18.053604125976562 8.3500003814697266 -38.798744201660156
v 18.053604125976562 11 -34.897922515869141
v 14.898667335510254 5.6999998092651367 -38.798744201660156
v 14.898667335510254 11 -38.798744201660156
f 572 565 569 567 570 568 571 566
f 570 567 575 573 576 574 577 568
f 581 579 582 574 576 573 580 578
f 581 578 583 565 572 566 584 579
f 569 565 583 578 580 573 575 567
f 584 566 571 568 577 574 582 579
g object_34
v 35.434326171875 5.6999998092651367 -38.798744201660156
v 35.434326171875 11 -38.798744201660156
v 35.434326171875 5.6999998092651367 -30.997100830078125
v 35.434326171875 11 -30.997100830078125
v 35.434326171875 5.6999998092651367 -34.897922515869141
v 35.434326171875 11 -34.897922515869141
v 44.537303924560547 5.6999998092651367 -30.997100830078125
v 44.537303924560547 11 -30.997100830078125
v 39.985813140869141 5.6999998092651367 -30.997100830078125
v 39.985813140869141 11 -30.997100830078125
v 44.537303924560547 5.6999998092651367 -38.798744201660156
v 44.537303924560547 11 -38.798744201660156
v 44.537303924560547 5.6999998092651367 -34.897922515869141
v 44.537303924560547 11 -34.897922515869141
v 39.985813140869141 5.6999998092651367 -38.798744201660156
v 39.985813140869141 11 -38.798744201660156
f 585 589 587 588 590 586
f 588 587 593 591 592 594
f 598 592 591 597 595 596
f 596 595 599 585 586 600
f 589 585 599 595 597 591 593 587
f 600 586 590 588 594 592 598 596
g object_35
v 44.537303924560547 5.6999998092651367 -30.997100830078125
v 44.537303924560547 11 -30.997100830078125
v 51.037616729736328 5.6999998092651367 -30.997100830078125
v 51.037616729736328 11 -30.997100830078125
v 47.787460327148438 5.6999998092651367 -30.997100830078125
v 51.037616729736328 8.3500003814697266 -30.997100830078125
v 47.787460327148438 11 -30.997100830078125
v 44.537303924560547 8.3500003814697266 -30.997100830078125
v 51.037616729736328 5.6999998092651367 -38.798744201660156
v 51.037616729736328 11 -38.798744201660156
v 51.037616729736328 5.6999998092651367 -34.897922515869141
v 51.037616729736328 8.3500003814697266 -38.798744201660156
v 51.037616729736328 11 -34.897922515869141
v 44.537303924560547 5.6999998092651367 -38.798744201660156
v 44.537303924560547 11 -38.798744201660156
v 47.787460327148438 5.6999998092651367 -38.798744201660156
v 44.537303924560547 8.3500003814697266 -38.798744201660156
v 47.787460327148438 11 -38.798744201660156
v 44.537303924560547 5.6999998092651367 -34.897922515869141
v 44.537303924560547 11 -34.897922515869141
f 608 601 605 603 606 604 607 602
f 606 603 611 609 612 610 613 604
f 612 609 616 614 617 615 618 610
f 617 614 619 601 608 602 620 615
f 605 601 619 614 616 609 611 603
f 620 602 607 604 613 610 618 615
g object_36
v 5.4465517997741699 5.6999998092651367 -38.798744201660156
v 5.4465517997741699 11 -38.798744201660156
v 5.4465517997741699 5.6999998092651367 -30.997100830078125
v 5.4465517997741699 11 -30.997100830078125
v 5.4465517997741699 5.6999998092651367 -34.897922515869141
v 5.4465517997741699 8.3500003814697266 -30.997100830078125
v 5.4465517997741699 11 -34.897922515869141
v 5.4465517997741699 8.3500003814697266 -38.798744201660156
v 11.743730545043945 5.6999998092651367 -30.997100830078125
v 11.743730545043945 11 -30.997100830078125
v 8.5951414108276367 5.6999998092651367 -30.997100830078125
v 11.743730545043945 8.3500003814697266 -30.997100830078125
v 8.5951414108276367 11 -30.997100830078125
v 11.743730545043945 5.6999998092651367 -38.798744201660156
v 11.743730545043945 11 -38.798744201660156
v 11.743730545043945 5.6999998092651367 -34.897922515869141
v 11.743730545043945 8.3500003814697266 -38.798744201660156
v 11.743730545043945 11 -34.897922515869141
v 8.5951414108276367 5.6999998092651367 -38.798744201660156
v 8.5951414108276367 11 -38.798744201660156
f 628 621 625 623 626 624 627 622
f 626 623 631 629 632 630 633 624
f 638 630 632 629 636 634 637 635
f 637 634 639 621 628 622 640 635
f 625 621 639 634 636 629 631 623
f 640 622 627 624 633 630 638 635
g object_37
v 11.743730545043945 5.6999998092651367 -30.997100830078125
v 11.743730545043945 11 -30.997100830078125
v 11.743730545043945 5.6999998092651367 -22.897100448608398
v 11.743730545043945 11 -22.897100448608398
v 11.743730545043945 5.6999998092651367 -26.947099685668945
v 11.743730545043945 8.3500003814697266 -22.897100448608398
v 11.743730545043945 11 -26.947099685668945
v 11.743730545043945 8.3500003814697266 -30.997100830078125
v 18.053604125976562 5.6999998092651367 -22.897100448608398
v 18.053604125976562 11 -22.897100448608398
v 14.898667335510254 5.6999998092651367 -22.897100448608398
v 18.053604125976562 8.3500003814697266 -22.897100448608398
v 14.898667335510254 11 -22.897100448608398
v 18.053604125976562 5.6999998092651367 -30.997100830078125
v 18.053604125976562 11 -30.997100830078125
v 18.053604125976562 5.6999998092651367 -26.947099685668945
v 18.053604125976562 8.3500003814697266 -30.997100830078125
v 18.053604125976562 11 -26.947099685668945
v 14.898667335510254 5.6999998092651367 -30.997100830078125
v 14.898667335510254 11 -30.997100830078125
f 648 641 645 643 646 644 647 642
f 646 643 651 649 652 650 653 644
f 652 649 656 654 657 655 658 650
f 657 654 659 641 648 642 660 655
f 645 641 659 654 656 649 651 643
f 660 642 647 644 653 650 658 655
g object_38
v 35.434326171875 5.6999998092651367 -30.997100830078125
v 35.434326171875 11 -30.997100830078125
v 35.434326171875 5.6999998092651367 -22.897100448608398
v 35.434326171875 11 -22.897100448608398
v 35.434326171875 5.6999998092651367 -26.947099685668945
v 35.434326171875 11 -26.947099685668945
v 44.537303924560547 5.6999998092651367 -22.897100448608398
v 44.537303924560547 11 -22.897100448608398
v 39.985813140869141 5.6999998092651367 -22.897100448608398
v 39.985813140869141 11 -22.897100448608398
v 44.537303924560547 5.6999998092651367 -30.997100830078125
v 44.537303924560547 11 -30.997100830078125
v 44.537303924560547 5.6999998092651367 -26.947099685668945
v 44.537303924560547 11 -26.947099685668945
v 39.985813140869141 5.6999998092651367 -30.997100830078125
v 39.985813140869141 11 -30.997100830078125
f 662 661 665 663 664 666
f 664 663 669 667 668 670
f 674 668 667 673 671 672
f 672 671 675 661 662 676
f 665 661 675 671 673 667 669 663
f 676 662 666 664 670 668 674 672
g object_39
v 44.537303924560547 5.6999998092651367 -22.897100448608398
v 44.537303924560547 11 -22.897100448608398
v 51.037616729736328 5.6999998092651367 -22.897100448608398
v 51.037616729736328 11 -22.897100448608398
v 47.787460327148438 5.6999998092651367 -22.897100448608398
v 51.037616729736328 8.3500003814697266 -22.897100448608398
v 47.787460327148438 11 -22.897100448608398
v 44.537303924560547 8.3500003814697266 -22.897100448608398
v 51.037616729736328 5.6999998092651367 -30.997100830078125
v 51.037616729736328 11 -30.997100830078125
v 51.037616729736328 5.6999998092651367 -26.947099685668945
v 51.037616729736328 8.3500003814697266 -30.997100830078125
v 51.037616729736328 11 -26.947099685668945
v 44.537303924560547 5.6999998092651367 -30.997100830078125
v 44.537303924560547 11 -30.997100830078125
v 47.787460327148438 5.6999998092651367 -30.997100830078125
v 44.537303924560547 8.3500003814697266 -30.997100830078125
v 47.787460327148438 11 -30.997100830078125
v 44.537303924560547 5.6999998092651367 -26.947099685668945
v 44.537303924560547 11 -26.947099685668945
f 684 677 681 679 682 680 683 678
f 682 679 687 685 688 686 689 680
f 688 685 692 690 693 691 694 686
f 696 691 693 690 695 677 684 678
f 681 677 695 690 692 685 687 679
f 696 678 683 680 689 686 694 691
g object_40
v 5.4465517997741699 5.6999998092651367 -30.997100830078125
v 5.4465517997741699 11 -30.997100830078125
v 5.4465517997741699 5.6999998092651367 -22.897100448608398
v 5.4465517997741699 11 -22.897100448608398
v 5.4465517997741699 5.6999998092651367 -26.947099685668945
v 5.4465517997741699 8.3500003814697266 -22.897100448608398
v 5.4465517997741699 11 -26.947099685668945
v 5.4465517997741699 8.3500003814697266 -30.997100830078125
v 11.743730545043945 5.6999998092651367 -22.897100448608398
v 11.743730545043945 11 -22.897100448608398
v 8.5951414108276367 5.6999998092651367 -22.897100448608398
v 11.743730545043945 8.3500003814697266 -22.897100448608398
v 8.5951414108276367 11 -22.897100448608398
v 11.743730545043945 5.6999998092651367 -30.997100830078125
v 11.743730545043945 11 -30.997100830078125
v 11.743730545043945 5.6999998092651367 -26.947099685668945
v 11.743730545043945 8.3500003814697266 -30.997100830078125
v 11.743730545043945 11 -26.947099685668945
v 8.5951414108276367 5.6999998092651367 -30.997100830078125
v 8.5951414108276367 11 -30.997100830078125
f 704 697 701 699 702 700 703 698
f 702 699 707 705 708 706 709 700
f 708 705 712 710 713 711 714 706
f 713 710 715 697 704 698 716 711
f 701 697 715 710 712 705 707 699
f 716 698 703 700 709 706 714 711
