# Rhino

mtllib gf-floor-plan.mtl
o object_1
usemtl Default
v 425.40338134765625 0 -23.232561111450195
v 425.40338134765625 0 -19.923873901367188
v 425.40338134765625 0 -16.61518669128418
v 425.40338134765625 0 -13.306499481201172
v 425.40338134765625 0 -9.9978122711181641
v 431.33282470703125 0 -19.923873901367188
v 431.33282470703125 0 -6.6891250610351562
v 431.33282470703125 0 -3.3804378509521484
v 437.26223754882812 0 -6.6891250610351562
v 437.26223754882812 0 -3.3804378509521484
v 449.12109375 0 -19.923873901367188
v 449.12109375 0 -16.61518669128418
v 449.12109375 0 -6.6891250610351562
v 449.12109375 0 -3.3804378509521484
v 455.050537109375 0 -19.923873901367188
v 460.97994995117188 0 -6.6891250610351562
v 460.97994995117188 0 -3.3804378509521484
v 466.90939331054688 0 -19.923873901367188
v 466.90939331054688 0 -16.61518669128418
v 484.69766235351562 0 -9.9978122711181641
v 484.69766235351562 0 -6.6891250610351562
v 484.69766235351562 0 -3.3804378509521484
v 490.62710571289062 0 -19.923873901367188
v 490.62710571289062 0 -16.61518669128418
v 490.62710571289062 0 -13.306499481201172
v 490.62710571289062 0 -6.6891250610351562
v 490.62710571289062 0 -3.3804378509521484
v 489.19149780273438 0 -20.430110931396484
v 489.01724243164062 0 -20.430110931396484
v 490.62710571289062 0 -21.578216552734375
v 487.66238403320312 0 -19.923873901367188
v 487.66238403320312 0 -21.578216552734375
v 490.62710571289062 0 -20.751045227050781
v 489.14474487304688 0 -19.923873901367188
v 487.66238403320312 0 -20.751045227050781
v 489.14474487304688 0 -20.751045227050781
v 493.591796875 0 -19.923873901367188
v 493.591796875 0 -21.578216552734375
v 490.62710571289062 0 -18.269529342651367
v 487.66238403320312 0 -18.269529342651367
v 489.88592529296875 0 -19.923873901367188
v 489.88592529296875 0 -20.751045227050781
v 493.591796875 0 -20.751045227050781
v 492.10943603515625 0 -19.923873901367188
v 492.10943603515625 0 -21.578216552734375
v 492.10943603515625 0 -20.751045227050781
v 493.591796875 0 -16.61518669128418
v 493.591796875 0 -18.269529342651367
v 490.62710571289062 0 -19.096700668334961
v 489.14474487304688 0 -18.269529342651367
v 487.66238403320312 0 -19.096700668334961
v 489.14474487304688 0 -19.096700668334961
v 489.14474487304688 0 -20.544252395629883
v 488.403564453125 0 -19.923873901367188
v 488.403564453125 0 -20.751045227050781
v 488.403564453125 0 -20.337459564208984
v 490.62710571289062 0 -21.164630889892578
v 489.88592529296875 0 -21.578216552734375
v 489.88592529296875 0 -21.164630889892578
v 488.77413940429688 0 -20.337459564208984
v 488.403564453125 0 -20.544252395629883
v 488.77413940429688 0 -20.751045227050781
v 488.77413940429688 0 -20.544252395629883
v 487.66238403320312 0 -21.164630889892578
v 488.403564453125 0 -21.578216552734375
v 488.403564453125 0 -21.164630889892578
v 489.01724243164062 0 -20.030109405517578
v 490.83731079101562 0 -20.030109405517578
v 490.83731079101562 0 -20.430110931396484
v 491.36825561523438 0 -19.923873901367188
v 491.36825561523438 0 -20.751045227050781
v 493.591796875 0 -19.096700668334961
v 492.10943603515625 0 -18.269529342651367
v 492.10943603515625 0 -19.096700668334961
v 489.59149169921875 0 -20.430110931396484
v 489.59149169921875 0 -23.355926513671875
v 489.59149169921875 0 -26.281742095947266
v 492.38174438476562 0 -26.281742095947266
v 492.38174438476562 0 -23.355926513671875
v 492.38174438476562 0 -20.430110931396484
v 492.1527099609375 0 -20.430110931396484
v 492.85061645507812 0 -19.923873901367188
v 495.07415771484375 0 -19.923873901367188
v 495.07415771484375 0 -21.578216552734375
v 495.07415771484375 0 -20.751045227050781
v 492.1527099609375 0 -20.030109405517578
v 494.37533569335938 0 -20.030109405517578
v 494.37533569335938 0 -20.430110931396484
v 494.33297729492188 0 -19.923873901367188
v 494.33297729492188 0 -20.751045227050781
v 495.07415771484375 0 -18.269529342651367
v 495.07415771484375 0 -19.096700668334961
v 492.78176879882812 0 -20.430110931396484
v 492.78176879882812 0 -23.355926513671875
v 492.78176879882812 0 -26.281742095947266
v 495.80081176757812 0 -26.281742095947266
v 495.80081176757812 0 -23.355926513671875
v 495.80081176757812 0 -20.430110931396484
v 495.37533569335938 0 -20.430110931396484
v 495.37533569335938 0 -20.030109405517578
v 495.80081176757812 0 -20.030109405517578
v 495.80081176757812 0 -16.719390869140625
v 495.80081176757812 0 -13.408671379089355
v 491.8675537109375 0 -13.408671379089355
v 491.8675537109375 0 -13.008670806884766
v 490.62710571289062 0 -14.960842132568359
v 493.591796875 0 -14.960842132568359
v 493.591796875 0 -14.133670806884766
v 490.62710571289062 0 -14.133670806884766
v 492.10943603515625 0 -14.960842132568359
v 492.10943603515625 0 -14.133670806884766
v 490.62710571289062 0 -11.652155876159668
v 487.66238403320312 0 -14.960842132568359
v 492.10943603515625 0 -13.720085144042969
v 491.36825561523438 0 -13.306499481201172
v 490.62710571289062 0 -13.720085144042969
v 491.36825561523438 0 -14.133670806884766
v 491.36825561523438 0 -13.720085144042969
v 492.10943603515625 0 -11.652155876159668
v 490.62710571289062 0 -12.479327201843262
v 492.10943603515625 0 -12.479327201843262
v 487.66238403320312 0 -9.9978122711181641
v 484.69766235351562 0 -11.652155876159668
v 487.66238403320312 0 -11.652155876159668
v 489.14474487304688 0 -13.306499481201172
v 487.66238403320312 0 -14.133670806884766
v 489.14474487304688 0 -14.960842132568359
v 489.14474487304688 0 -14.133670806884766
v 491.36825561523438 0 -12.479327201843262
v 490.62710571289062 0 -12.892912864685059
v 491.36825561523438 0 -12.892912864685059
v 489.14474487304688 0 -11.652155876159668
v 487.66238403320312 0 -12.479327201843262
v 489.14474487304688 0 -12.479327201843262
v 492.44204711914062 0 -13.008670806884766
v 492.44204711914062 0 -10.525787353515625
v 489.03713989257812 0 -10.525787353515625
v 485.63223266601562 0 -10.525787353515625
v 485.63223266601562 0 -10.125786781311035
v 487.66238403320312 0 -10.824983596801758
v 486.18002319335938 0 -9.9978122711181641
v 484.69766235351562 0 -10.824983596801758
v 486.18002319335938 0 -11.652155876159668
v 486.18002319335938 0 -10.824983596801758
v 490.62710571289062 0 -8.3434686660766602
v 487.66238403320312 0 -6.6891250610351562
v 484.69766235351562 0 -8.3434686660766602
v 487.66238403320312 0 -8.3434686660766602
v 481.73294067382812 0 -11.652155876159668
v 485.4388427734375 0 -9.9978122711181641
v 484.69766235351562 0 -10.411397933959961
v 485.4388427734375 0 -10.824983596801758
v 485.4388427734375 0 -10.411397933959961
v 487.66238403320312 0 -9.1706399917602539
v 486.18002319335938 0 -8.3434686660766602
v 484.69766235351562 0 -9.1706399917602539
v 486.18002319335938 0 -9.1706399917602539
v 481.73294067382812 0 -10.824983596801758
v 483.21530151367188 0 -11.652155876159668
v 483.21530151367188 0 -10.824983596801758
v 489.03713989257812 0 -10.125786781311035
v 492.44204711914062 0 -10.125786781311035
v 492.44204711914062 0 -6.8609433174133301
v 492.44204711914062 0 -3.5960993766784668
v 492.44204711914062 0 -0.331255704164505
v 489.3502197265625 0 -0.331255704164505
v 486.25839233398438 0 -0.331255704164505
v 483.16653442382812 0 -0.331255704164505
v 483.16653442382812 0 -3.6965229511260986
v 483.16653442382812 0 -7.0617899894714355
v 483.16653442382812 0 -10.427057266235352
v 479.62701416015625 0 -10.427057266235352
v 476.0875244140625 0 -10.427057266235352
v 472.54800415039062 0 -10.427057266235352
v 472.54800415039062 0 -7.696037769317627
v 472.947998046875 0 -7.696037769317627
v 471.3564453125 0 -8.3434686660766602
v 471.3564453125 0 -7.5162968635559082
v 475.80352783203125 0 -8.3434686660766602
v 472.09762573242188 0 -7.5162968635559082
v 471.3564453125 0 -7.9298825263977051
v 472.09762573242188 0 -8.3434686660766602
v 472.09762573242188 0 -7.9298825263977051
v 475.80352783203125 0 -7.5162968635559082
v 474.3211669921875 0 -8.3434686660766602
v 474.3211669921875 0 -7.5162968635559082
v 478.76824951171875 0 -5.0347814559936523
v 475.80352783203125 0 -3.3804378509521484
v 475.80352783203125 0 -5.0347814559936523
v 474.3211669921875 0 -7.9298825263977051
v 473.57998657226562 0 -7.5162968635559082
v 473.57998657226562 0 -8.3434686660766602
v 473.57998657226562 0 -7.9298825263977051
v 475.80352783203125 0 -9.1706399917602539
v 474.3211669921875 0 -9.1706399917602539
v 472.947998046875 0 -10.027056694030762
v 476.19796752929688 0 -10.027056694030762
v 479.44790649414062 0 -10.027056694030762
v 479.44790649414062 0 -6.6626181602478027
v 475.99795532226562 0 -6.6626181602478027
v 472.54800415039062 0 -6.6626181602478027
v 472.54800415039062 0 -4.2809891700744629
v 472.54800415039062 0 -1.8993602991104126
v 472.947998046875 0 -1.8993602991104126
v 472.83880615234375 0 -1.7260943651199341
v 471.3564453125 0 -1.7260943651199341
v 471.3564453125 0 -2.5532660484313965
v 478.76824951171875 0 -1.7260943651199341
v 475.80352783203125 0 -1.7260943651199341
v 472.09762573242188 0 -1.7260943651199341
v 471.3564453125 0 -2.1396801471710205
v 472.09762573242188 0 -2.5532660484313965
v 472.09762573242188 0 -2.1396801471710205
v 475.80352783203125 0 -2.5532660484313965
v 474.3211669921875 0 -1.7260943651199341
v 474.3211669921875 0 -3.3804378509521484
v 474.3211669921875 0 -2.5532660484313965
v 472.83880615234375 0 -0.8989226222038269
v 471.3564453125 0 -0.8989226222038269
v 474.3211669921875 0 -2.1396801471710205
v 473.57998657226562 0 -1.7260943651199341
v 473.57998657226562 0 -2.5532660484313965
v 473.57998657226562 0 -2.1396801471710205
v 475.80352783203125 0 -0.8989226222038269
v 474.3211669921875 0 -0.8989226222038269
v 472.947998046875 0 -6.2626180648803711
v 476.19796752929688 0 -6.2626180648803711
v 479.44790649414062 0 -6.2626180648803711
v 479.44790649414062 0 -3.2969367504119873
v 479.44790649414062 0 -0.331255704164505
v 476.22564697265625 0 -0.331255704164505
v 473.00341796875 0 -0.331255704164505
v 469.78115844726562 0 -0.331255704164505
v 469.78115844726562 0 -3.6965229511260986
v 469.78115844726562 0 -7.0617899894714355
v 469.78115844726562 0 -10.427057266235352
v 466.3321533203125 0 -10.427057266235352
v 462.88314819335938 0 -10.427057266235352
v 459.43411254882812 0 -10.427057266235352
v 459.43411254882812 0 -6.820702075958252
v 459.83413696289062 0 -6.820702075958252
v 460.97994995117188 0 -8.3434686660766602
v 458.01522827148438 0 -6.6891250610351562
v 460.97994995117188 0 -7.5162968635559082
v 458.01522827148438 0 -7.5162968635559082
v 463.94467163085938 0 -6.6891250610351562
v 463.94467163085938 0 -8.3434686660766602
v 458.75640869140625 0 -6.6891250610351562
v 458.01522827148438 0 -7.1027107238769531
v 458.75640869140625 0 -7.5162968635559082
v 458.75640869140625 0 -7.1027107238769531
v 463.94467163085938 0 -3.3804378509521484
v 452.0858154296875 0 -6.6891250610351562
v 452.0858154296875 0 -8.3434686660766602
v 460.97994995117188 0 -7.1027107238769531
v 460.23876953125 0 -6.6891250610351562
v 460.23876953125 0 -7.5162968635559082
v 460.23876953125 0 -7.1027107238769531
v 463.94467163085938 0 -7.5162968635559082
v 462.46231079101562 0 -6.6891250610351562
v 462.46231079101562 0 -8.3434686660766602
v 462.46231079101562 0 -7.5162968635559082
v 459.83413696289062 0 -10.027056694030762
v 462.9373779296875 0 -10.027056694030762
v 466.0406494140625 0 -10.027056694030762
v 466.0406494140625 0 -5.8124208450317383
v 462.73739624023438 0 -5.8124208450317383
v 459.43411254882812 0 -5.8124208450317383
v 459.43411254882812 0 -1.8937634229660034
v 459.83413696289062 0 -1.8937634229660034
v 460.97994995117188 0 -1.7260943651199341
v 458.01522827148438 0 -1.7260943651199341
v 460.97994995117188 0 -2.5532660484313965
v 459.49758911132812 0 -1.7260943651199341
v 458.01522827148438 0 -2.5532660484313965
v 463.94467163085938 0 -1.7260943651199341
v 458.75640869140625 0 -1.7260943651199341
v 458.01522827148438 0 -2.1396801471710205
v 458.75640869140625 0 -2.5532660484313965
v 458.75640869140625 0 -2.1396801471710205
v 460.97994995117188 0 -0.8989226222038269
v 458.01522827148438 0 -0.8989226222038269
v 459.49758911132812 0 -0.8989226222038269
v 449.12109375 0 -1.7260943651199341
v 452.0858154296875 0 -3.3804378509521484
v 452.0858154296875 0 -1.7260943651199341
v 460.97994995117188 0 -2.1396801471710205
v 460.23876953125 0 -1.7260943651199341
v 460.23876953125 0 -2.5532660484313965
v 460.23876953125 0 -2.1396801471710205
v 463.94467163085938 0 -2.5532660484313965
v 462.46231079101562 0 -1.7260943651199341
v 462.46231079101562 0 -3.3804378509521484
v 462.46231079101562 0 -2.5532660484313965
v 459.83413696289062 0 -5.4124207496643066
v 462.9373779296875 0 -5.4124207496643066
v 466.0406494140625 0 -5.4124207496643066
v 466.0406494140625 0 -2.8718383312225342
v 466.0406494140625 0 -0.331255704164505
v 462.9189453125 0 -0.331255704164505
v 459.7972412109375 0 -0.331255704164505
v 456.675537109375 0 -0.331255704164505
v 456.675537109375 0 -3.6965229511260986
v 456.675537109375 0 -7.0617899894714355
v 456.675537109375 0 -10.427057266235352
v 452.81686401367188 0 -10.427057266235352
v 448.95819091796875 0 -10.427057266235352
v 448.95819091796875 0 -7.1744627952575684
v 449.35818481445312 0 -7.1744627952575684
v 446.1563720703125 0 -6.6891250610351562
v 447.63873291015625 0 -6.6891250610351562
v 447.63873291015625 0 -8.3434686660766602
v 447.63873291015625 0 -7.5162968635559082
v 449.12109375 0 -5.0347814559936523
v 446.1563720703125 0 -3.3804378509521484
v 446.1563720703125 0 -5.0347814559936523
v 448.37991333007812 0 -6.6891250610351562
v 447.63873291015625 0 -7.1027107238769531
v 448.37991333007812 0 -7.5162968635559082
v 448.37991333007812 0 -7.1027107238769531
v 452.0858154296875 0 -7.5162968635559082
v 450.60345458984375 0 -6.6891250610351562
v 450.60345458984375 0 -8.3434686660766602
v 450.60345458984375 0 -7.5162968635559082
v 452.0858154296875 0 -5.0347814559936523
v 447.63873291015625 0 -5.0347814559936523
v 447.63873291015625 0 -5.8619532585144043
v 450.60345458984375 0 -7.1027107238769531
v 449.86227416992188 0 -6.6891250610351562
v 449.86227416992188 0 -7.5162968635559082
v 449.86227416992188 0 -7.1027107238769531
v 450.60345458984375 0 -5.0347814559936523
v 449.35818481445312 0 -10.027056694030762
v 453.0892333984375 0 -10.027056694030762
v 453.0892333984375 0 -5.81982421875
v 449.2730712890625 0 -5.81982421875
v 449.2730712890625 0 -5.4198241233825684
v 449.86227416992188 0 -5.0347814559936523
v 452.0858154296875 0 -4.2076096534729004
v 450.60345458984375 0 -3.3804378509521484
v 449.12109375 0 -4.2076096534729004
v 450.60345458984375 0 -4.2076096534729004
v 453.0892333984375 0 -5.4198241233825684
v 453.0892333984375 0 -2.875540018081665
v 453.0892333984375 0 -0.331255704164505
v 449.83358764648438 0 -0.331255704164505
v 446.57797241210938 0 -0.331255704164505
v 443.32235717773438 0 -0.331255704164505
v 443.32235717773438 0 -2.9124994277954102
v 443.32235717773438 0 -5.4937429428100586
v 446.558349609375 0 -5.4937429428100586
v 446.558349609375 0 -5.9898104667663574
v 446.15835571289062 0 -5.9898104667663574
v 447.63873291015625 0 -6.2755389213562012
v 446.89755249023438 0 -5.8619532585144043
v 446.1563720703125 0 -6.2755389213562012
v 446.89755249023438 0 -6.6891250610351562
v 446.89755249023438 0 -6.2755389213562012
v 444.67404174804688 0 -5.0347814559936523
v 444.67404174804688 0 -6.6891250610351562
v 437.26223754882812 0 -5.0347814559936523
v 440.22695922851562 0 -6.6891250610351562
v 446.15835571289062 0 -5.8937430381774902
v 446.89755249023438 0 -6.0687460899353027
v 446.1563720703125 0 -6.0687460899353027
v 446.5269775390625 0 -6.2755389213562012
v 446.5269775390625 0 -6.0687460899353027
v 447.63873291015625 0 -5.4483671188354492
v 446.89755249023438 0 -5.0347814559936523
v 446.89755249023438 0 -5.4483671188354492
v 447.63873291015625 0 -3.3804378509521484
v 446.1563720703125 0 -4.2076096534729004
v 447.63873291015625 0 -4.2076096534729004
v 446.1563720703125 0 -1.7260943651199341
v 444.67404174804688 0 -6.2755389213562012
v 445.41522216796875 0 -6.6891250610351562
v 445.41522216796875 0 -6.2755389213562012
v 437.26223754882812 0 -8.3434686660766602
v 440.22695922851562 0 -8.3434686660766602
v 446.3416748046875 0 -6.0687460899353027
v 446.89755249023438 0 -5.6551604270935059
v 445.41522216796875 0 -5.0347814559936523
v 444.67404174804688 0 -3.3804378509521484
v 444.67404174804688 0 -4.2076096534729004
v 445.41522216796875 0 -6.0687460899353027
v 445.78579711914062 0 -6.2755389213562012
v 445.78579711914062 0 -6.0687460899353027
v 443.32235717773438 0 -5.8937430381774902
v 443.32235717773438 0 -6.9320516586303711
v 446.558349609375 0 -6.9320516586303711
v 446.558349609375 0 -7.3320517539978027
v 446.89755249023438 0 -7.5162968635559082
v 446.89755249023438 0 -7.1027107238769531
v 443.32235717773438 0 -7.3320517539978027
v 443.32235717773438 0 -8.377049446105957
v 446.558349609375 0 -8.377049446105957
v 446.558349609375 0 -8.7770500183105469
v 446.1563720703125 0 -9.1706399917602539
v 447.63873291015625 0 -9.9978122711181641
v 447.63873291015625 0 -9.1706399917602539
v 449.12109375 0 -11.652155876159668
v 443.19168090820312 0 -11.652155876159668
v 446.1563720703125 0 -11.652155876159668
v 447.63873291015625 0 -8.757054328918457
v 446.89755249023438 0 -8.3434686660766602
v 446.89755249023438 0 -9.1706399917602539
v 446.89755249023438 0 -8.757054328918457
v 444.67404174804688 0 -9.1706399917602539
v 443.32235717773438 0 -8.7770500183105469
v 443.32235717773438 0 -10.027056694030762
v 446.15835571289062 0 -10.027056694030762
v 446.15835571289062 0 -9.9469032287597656
v 449.12109375 0 -10.824983596801758
v 446.1563720703125 0 -10.824983596801758
v 447.63873291015625 0 -11.652155876159668
v 447.63873291015625 0 -10.824983596801758
v 455.050537109375 0 -11.652155876159668
v 452.0858154296875 0 -11.652155876159668
v 447.63873291015625 0 -10.411397933959961
v 446.89755249023438 0 -9.9978122711181641
v 446.89755249023438 0 -10.824983596801758
v 446.89755249023438 0 -10.411397933959961
v 443.19168090820312 0 -10.824983596801758
v 444.67404174804688 0 -11.652155876159668
v 444.67404174804688 0 -10.824983596801758
v 437.26223754882812 0 -11.652155876159668
v 440.22695922851562 0 -11.652155876159668
v 446.89755249023438 0 -10.204605102539062
v 447.63873291015625 0 -9.5842256546020508
v 446.1563720703125 0 -9.5842256546020508
v 446.89755249023438 0 -9.5842256546020508
v 445.41522216796875 0 -9.9978122711181641
v 445.41522216796875 0 -10.824983596801758
v 446.89755249023438 0 -9.7910194396972656
v 446.5269775390625 0 -9.5842256546020508
v 446.1563720703125 0 -9.7910194396972656
v 446.5269775390625 0 -9.7910194396972656
v 445.41522216796875 0 -9.1706399917602539
v 444.67404174804688 0 -9.5842256546020508
v 445.41522216796875 0 -9.5842256546020508
v 445.78579711914062 0 -9.9978122711181641
v 446.5269775390625 0 -9.8944158554077148
v 446.3416748046875 0 -9.7910194396972656
v 446.1563720703125 0 -9.8944158554077148
v 446.3416748046875 0 -9.8944158554077148
v 445.78579711914062 0 -9.5842256546020508
v 445.41522216796875 0 -9.7910194396972656
v 445.78579711914062 0 -9.7910194396972656
v 446.558349609375 0 -9.9469032287597656
v 446.558349609375 0 -10.427057266235352
v 443.35733032226562 0 -10.427057266235352
v 440.15631103515625 0 -10.427057266235352
v 436.95526123046875 0 -10.427057266235352
v 436.95526123046875 0 -10.027056694030762
v 431.33282470703125 0 -11.652155876159668
v 434.29754638671875 0 -11.652155876159668
v 437.26223754882812 0 -10.824983596801758
v 434.29754638671875 0 -10.824983596801758
v 435.77987670898438 0 -11.652155876159668
v 435.77987670898438 0 -10.824983596801758
v 434.29754638671875 0 -6.6891250610351562
v 431.33282470703125 0 -8.3434686660766602
v 434.29754638671875 0 -8.3434686660766602
v 436.52105712890625 0 -10.824983596801758
v 440.22695922851562 0 -10.824983596801758
v 438.74459838867188 0 -11.652155876159668
v 438.74459838867188 0 -10.824983596801758
v 437.26223754882812 0 -9.1706399917602539
v 435.77987670898438 0 -8.3434686660766602
v 435.77987670898438 0 -9.1706399917602539
v 439.93881225585938 0 -10.027056694030762
v 442.92236328125 0 -10.027056694030762
v 442.92236328125 0 -6.7951231002807617
v 442.92236328125 0 -3.5631895065307617
v 442.92236328125 0 -0.331255704164505
v 440.07177734375 0 -0.331255704164505
v 440.07177734375 0 -3.2001807689666748
v 440.07177734375 0 -6.0691061019897461
v 435.96478271484375 0 -6.0691061019897461
v 435.96478271484375 0 -5.6691060066223145
v 431.33282470703125 0 -5.0347814559936523
v 434.29754638671875 0 -5.0347814559936523
v 435.77987670898438 0 -5.0347814559936523
v 434.29754638671875 0 -5.8619532585144043
v 435.77987670898438 0 -6.6891250610351562
v 437.26223754882812 0 -6.2755389213562012
v 435.77987670898438 0 -6.2755389213562012
v 436.52105712890625 0 -6.6891250610351562
v 436.52105712890625 0 -6.2755389213562012
v 437.26223754882812 0 -7.5162968635559082
v 435.77987670898438 0 -7.5162968635559082
v 438.74459838867188 0 -6.6891250610351562
v 437.26223754882812 0 -5.4483671188354492
v 436.52105712890625 0 -5.0347814559936523
v 435.77987670898438 0 -5.4483671188354492
v 436.52105712890625 0 -5.4483671188354492
v 437.26223754882812 0 -4.2076096534729004
v 435.77987670898438 0 -3.3804378509521484
v 435.77987670898438 0 -4.2076096534729004
v 439.6717529296875 0 -5.6691060066223145
v 439.6717529296875 0 -3.000180721282959
v 439.6717529296875 0 -0.331255704164505
v 437.23193359375 0 -0.331255704164505
v 434.7921142578125 0 -0.331255704164505
v 434.7921142578125 0 -4.1326098442077637
v 434.7921142578125 0 -7.9339642524719238
v 434.39212036132812 0 -7.9339642524719238
v 435.77987670898438 0 -7.9298825263977051
v 435.0386962890625 0 -7.5162968635559082
v 435.0386962890625 0 -8.3434686660766602
v 435.0386962890625 0 -7.9298825263977051
v 432.815185546875 0 -6.6891250610351562
v 431.33282470703125 0 -7.5162968635559082
v 432.815185546875 0 -8.3434686660766602
v 432.815185546875 0 -7.5162968635559082
v 428.36810302734375 0 -6.6891250610351562
v 425.40338134765625 0 -8.3434686660766602
v 428.36810302734375 0 -8.3434686660766602
v 434.39212036132812 0 -4.1326098442077637
v 434.39212036132812 0 -0.331255704164505
v 430.47940063476562 0 -0.331255704164505
v 426.566650390625 0 -0.331255704164505
v 426.566650390625 0 -3.0416159629821777
v 426.566650390625 0 -5.7519760131835938
v 429.82235717773438 0 -5.7519760131835938
v 433.07803344726562 0 -5.7519760131835938
v 433.07803344726562 0 -6.1519761085510254
v 432.815185546875 0 -5.0347814559936523
v 428.36810302734375 0 -3.3804378509521484
v 428.36810302734375 0 -5.0347814559936523
v 434.29754638671875 0 -5.4483671188354492
v 433.55636596679688 0 -5.0347814559936523
v 432.815185546875 0 -5.4483671188354492
v 433.55636596679688 0 -5.8619532585144043
v 433.55636596679688 0 -5.4483671188354492
v 432.815185546875 0 -3.3804378509521484
v 431.33282470703125 0 -4.2076096534729004
v 432.815185546875 0 -4.2076096534729004
v 434.29754638671875 0 -6.2755389213562012
v 432.815185546875 0 -6.2755389213562012
v 433.55636596679688 0 -6.6891250610351562
v 433.55636596679688 0 -6.2755389213562012
v 429.82235717773438 0 -6.1519761085510254
v 426.566650390625 0 -6.1519761085510254
v 426.566650390625 0 -10.027056694030762
v 430.47940063476562 0 -10.027056694030762
v 434.39212036132812 0 -10.027056694030762
v 434.39212036132812 0 -9.2270574569702148
v 434.7921142578125 0 -9.2270574569702148
v 435.77987670898438 0 -9.5842256546020508
v 435.0386962890625 0 -9.1706399917602539
v 435.0386962890625 0 -9.5842256546020508
v 431.33282470703125 0 -9.1706399917602539
v 432.815185546875 0 -9.1706399917602539
v 434.7921142578125 0 -10.027056694030762
v 435.95526123046875 0 -10.027056694030762
v 435.95526123046875 0 -10.427057266235352
v 432.69241333007812 0 -10.427057266235352
v 429.42953491210938 0 -10.427057266235352
v 426.16665649414062 0 -10.427057266235352
v 426.16665649414062 0 -7.58221435546875
v 423.19818115234375 0 -7.58221435546875
v 420.22967529296875 0 -7.58221435546875
v 420.22967529296875 0 -10.08083438873291
v 423.7525634765625 0 -10.08083438873291
v 423.7525634765625 0 -10.480834007263184
v 425.40338134765625 0 -11.652155876159668
v 422.43869018554688 0 -13.306499481201172
v 422.43869018554688 0 -11.652155876159668
v 425.40338134765625 0 -10.824983596801758
v 422.43869018554688 0 -10.824983596801758
v 423.9210205078125 0 -11.652155876159668
v 423.9210205078125 0 -10.824983596801758
v 428.36810302734375 0 -13.306499481201172
v 428.36810302734375 0 -11.652155876159668
v 422.43869018554688 0 -8.3434686660766602
v 423.17987060546875 0 -10.824983596801758
v 425.40338134765625 0 -9.1706399917602539
v 423.9210205078125 0 -8.3434686660766602
v 422.43869018554688 0 -9.1706399917602539
v 423.9210205078125 0 -9.1706399917602539
v 420.95632934570312 0 -11.652155876159668
v 420.95632934570312 0 -10.824983596801758
v 420.22967529296875 0 -10.480834007263184
v 420.22967529296875 0 -14.431060791015625
v 420.22967529296875 0 -18.381288528442383
v 420.22967529296875 0 -22.331516265869141
v 420.22967529296875 0 -26.281742095947266
v 423.35711669921875 0 -26.281742095947266
v 426.48455810546875 0 -26.281742095947266
v 429.61199951171875 0 -26.281742095947266
v 429.61199951171875 0 -21.857385635375977
v 429.61199951171875 0 -17.433027267456055
v 429.61199951171875 0 -13.008670806884766
v 430.89547729492188 0 -13.008670806884766
v 430.89547729492188 0 -13.408671379089355
v 431.33282470703125 0 -12.479327201843262
v 429.8504638671875 0 -11.652155876159668
v 428.36810302734375 0 -12.479327201843262
v 429.8504638671875 0 -12.479327201843262
v 425.40338134765625 0 -14.960842132568359
v 428.36810302734375 0 -16.61518669128418
v 428.36810302734375 0 -14.960842132568359
v 431.33282470703125 0 -12.892912864685059
v 430.59164428710938 0 -12.479327201843262
v 430.59164428710938 0 -12.892912864685059
v 431.33282470703125 0 -14.133670806884766
v 428.36810302734375 0 -14.133670806884766
v 434.29754638671875 0 -12.479327201843262
v 432.815185546875 0 -11.652155876159668
v 432.815185546875 0 -12.479327201843262
v 431.33282470703125 0 -13.720085144042969
v 430.59164428710938 0 -14.133670806884766
v 430.59164428710938 0 -13.720085144042969
v 432.815185546875 0 -14.133670806884766
v 430.01199340820312 0 -13.408671379089355
v 430.01199340820312 0 -17.1416015625
v 431.94921875 0 -17.1416015625
v 431.94921875 0 -13.208671569824219
v 432.34921264648438 0 -13.208671569824219
v 432.815185546875 0 -12.892912864685059
v 432.07400512695312 0 -12.479327201843262
v 432.07400512695312 0 -12.892912864685059
v 432.34921264648438 0 -17.1416015625
v 434.23114013671875 0 -17.1416015625
v 434.23114013671875 0 -13.408671379089355
v 433.257080078125 0 -13.408671379089355
v 433.257080078125 0 -13.008670806884766
v 432.815185546875 0 -13.720085144042969
v 433.55636596679688 0 -14.133670806884766
v 433.55636596679688 0 -13.720085144042969
v 435.77987670898438 0 -14.960842132568359
v 435.77987670898438 0 -14.133670806884766
v 440.22695922851562 0 -14.960842132568359
v 434.29754638671875 0 -12.892912864685059
v 433.55636596679688 0 -12.479327201843262
v 433.55636596679688 0 -12.892912864685059
v 437.26223754882812 0 -12.479327201843262
v 435.77987670898438 0 -12.479327201843262
v 434.63116455078125 0 -13.008670806884766
v 434.63116455078125 0 -16.253423690795898
v 434.63116455078125 0 -19.498178482055664
v 434.23114013671875 0 -19.498178482055664
v 431.33282470703125 0 -18.269529342651367
v 434.29754638671875 0 -19.923873901367188
v 437.26223754882812 0 -19.096700668334961
v 435.77987670898438 0 -18.269529342651367
v 435.77987670898438 0 -19.923873901367188
v 435.77987670898438 0 -19.096700668334961
v 431.33282470703125 0 -21.578216552734375
v 434.29754638671875 0 -21.578216552734375
v 440.22695922851562 0 -18.269529342651367
v 435.77987670898438 0 -19.510288238525391
v 435.0386962890625 0 -19.096700668334961
v 435.0386962890625 0 -19.923873901367188
v 435.0386962890625 0 -19.510288238525391
v 432.815185546875 0 -18.269529342651367
v 431.33282470703125 0 -19.096700668334961
v 432.815185546875 0 -19.923873901367188
v 432.815185546875 0 -19.096700668334961
v 425.40338134765625 0 -18.269529342651367
v 428.36810302734375 0 -19.923873901367188
v 428.36810302734375 0 -18.269529342651367
v 435.77987670898438 0 -21.578216552734375
v 435.77987670898438 0 -20.751045227050781
v 440.22695922851562 0 -21.578216552734375
v 433.55636596679688 0 -19.096700668334961
v 432.815185546875 0 -19.510288238525391
v 433.55636596679688 0 -19.923873901367188
v 433.55636596679688 0 -19.510288238525391
v 432.815185546875 0 -21.578216552734375
v 425.40338134765625 0 -21.578216552734375
v 428.36810302734375 0 -23.232561111450195
v 428.36810302734375 0 -21.578216552734375
v 434.23114013671875 0 -17.541601181030273
v 430.01199340820312 0 -17.541601181030273
v 430.01199340820312 0 -20.626300811767578
v 434.43115234375 0 -20.626300811767578
v 434.43115234375 0 -21.026300430297852
v 435.77987670898438 0 -20.337459564208984
v 434.29754638671875 0 -20.337459564208984
v 435.0386962890625 0 -20.751045227050781
v 435.0386962890625 0 -20.337459564208984
v 435.77987670898438 0 -21.164630889892578
v 434.29754638671875 0 -21.164630889892578
v 435.0386962890625 0 -21.578216552734375
v 435.0386962890625 0 -21.164630889892578
v 435.77987670898438 0 -22.405387878417969
v 437.26223754882812 0 -24.886903762817383
v 430.01199340820312 0 -21.026300430297852
v 430.01199340820312 0 -23.654022216796875
v 430.01199340820312 0 -26.281742095947266
v 434.23114013671875 0 -26.281742095947266
v 434.23114013671875 0 -22.243824005126953
v 434.63116455078125 0 -22.243824005126953
v 431.33282470703125 0 -22.405387878417969
v 432.815185546875 0 -23.232561111450195
v 432.815185546875 0 -22.405387878417969
v 434.29754638671875 0 -21.991802215576172
v 433.55636596679688 0 -21.578216552734375
v 432.815185546875 0 -21.991802215576172
v 433.55636596679688 0 -22.405387878417969
v 433.55636596679688 0 -21.991802215576172
v 435.77987670898438 0 -21.991802215576172
v 435.0386962890625 0 -22.405387878417969
v 435.0386962890625 0 -21.991802215576172
v 434.63116455078125 0 -26.281742095947266
v 437.60299682617188 0 -26.281742095947266
v 440.57485961914062 0 -26.281742095947266
v 443.54672241210938 0 -26.281742095947266
v 443.54672241210938 0 -22.971611022949219
v 440.3702392578125 0 -22.971611022949219
v 437.19375610351562 0 -22.971611022949219
v 437.19375610351562 0 -24.59065055847168
v 436.79376220703125 0 -24.59065055847168
v 435.77987670898438 0 -24.886903762817383
v 435.77987670898438 0 -24.059732437133789
v 440.22695922851562 0 -24.886903762817383
v 436.52105712890625 0 -24.059732437133789
v 435.77987670898438 0 -24.473318099975586
v 436.52105712890625 0 -24.886903762817383
v 436.52105712890625 0 -24.473318099975586
v 437.26223754882812 0 -25.714075088500977
v 435.77987670898438 0 -25.714075088500977
v 440.22695922851562 0 -24.059732437133789
v 438.74459838867188 0 -23.232561111450195
v 438.74459838867188 0 -24.886903762817383
v 438.74459838867188 0 -24.059732437133789
v 436.79376220703125 0 -22.571611404418945
v 440.17025756835938 0 -22.571611404418945
v 443.54672241210938 0 -22.571611404418945
v 443.54672241210938 0 -19.730600357055664
v 440.3702392578125 0 -19.730600357055664
v 437.19375610351562 0 -19.730600357055664
v 437.19375610351562 0 -21.349637985229492
v 436.79376220703125 0 -21.349637985229492
v 436.52105712890625 0 -20.751045227050781
v 436.52105712890625 0 -21.578216552734375
v 436.52105712890625 0 -21.164630889892578
v 440.22695922851562 0 -20.751045227050781
v 438.74459838867188 0 -19.923873901367188
v 438.74459838867188 0 -21.578216552734375
v 438.74459838867188 0 -20.751045227050781
v 436.79376220703125 0 -19.330600738525391
v 440.17025756835938 0 -19.330600738525391
v 443.54672241210938 0 -19.330600738525391
v 443.54672241210938 0 -16.682025909423828
v 440.3702392578125 0 -16.682025909423828
v 437.19375610351562 0 -16.682025909423828
v 437.19375610351562 0 -18.301063537597656
v 436.79376220703125 0 -18.301063537597656
v 437.26223754882812 0 -18.683115005493164
v 436.52105712890625 0 -18.269529342651367
v 435.77987670898438 0 -18.683115005493164
v 436.52105712890625 0 -19.096700668334961
v 436.52105712890625 0 -18.683115005493164
v 440.22695922851562 0 -19.096700668334961
v 438.74459838867188 0 -18.269529342651367
v 438.74459838867188 0 -19.096700668334961
v 436.79376220703125 0 -16.282026290893555
v 440.17025756835938 0 -16.282026290893555
v 443.54672241210938 0 -16.282026290893555
v 443.54672241210938 0 -13.408671379089355
v 440.400146484375 0 -13.408671379089355
v 437.25357055664062 0 -13.408671379089355
v 437.25357055664062 0 -15.015312194824219
v 436.85357666015625 0 -15.015312194824219
v 437.26223754882812 0 -15.78801441192627
v 435.77987670898438 0 -15.78801441192627
v 437.26223754882812 0 -15.374428749084473
v 436.52105712890625 0 -14.960842132568359
v 435.77987670898438 0 -15.374428749084473
v 436.52105712890625 0 -15.78801441192627
v 436.52105712890625 0 -15.374428749084473
v 440.22695922851562 0 -15.78801441192627
v 438.74459838867188 0 -14.960842132568359
v 438.74459838867188 0 -15.78801441192627
v 436.85357666015625 0 -13.408671379089355
v 435.74185180664062 0 -13.408671379089355
v 435.74185180664062 0 -13.008670806884766
v 435.77987670898438 0 -13.720085144042969
v 435.0386962890625 0 -14.133670806884766
v 435.0386962890625 0 -13.720085144042969
v 435.77987670898438 0 -12.892912864685059
v 435.0386962890625 0 -12.479327201843262
v 435.0386962890625 0 -12.892912864685059
v 439.74429321289062 0 -13.008670806884766
v 443.74673461914062 0 -13.008670806884766
v 447.0103759765625 0 -13.008670806884766
v 450.2740478515625 0 -13.008670806884766
v 453.5377197265625 0 -13.008670806884766
v 453.5377197265625 0 -13.408671379089355
v 455.050537109375 0 -12.479327201843262
v 453.56817626953125 0 -11.652155876159668
v 452.0858154296875 0 -12.479327201843262
v 453.56817626953125 0 -12.479327201843262
v 455.050537109375 0 -14.960842132568359
v 449.12109375 0 -14.960842132568359
v 452.0858154296875 0 -16.61518669128418
v 452.0858154296875 0 -14.960842132568359
v 453.56817626953125 0 -12.892912864685059
v 452.82699584960938 0 -12.479327201843262
v 452.0858154296875 0 -12.892912864685059
v 452.82699584960938 0 -12.892912864685059
v 450.60345458984375 0 -11.652155876159668
v 449.12109375 0 -12.479327201843262
v 450.60345458984375 0 -12.479327201843262
v 455.050537109375 0 -14.133670806884766
v 452.0858154296875 0 -14.133670806884766
v 453.56817626953125 0 -14.960842132568359
v 453.56817626953125 0 -14.133670806884766
v 460.97994995117188 0 -14.960842132568359
v 453.56817626953125 0 -13.720085144042969
v 452.0858154296875 0 -13.720085144042969
v 452.82699584960938 0 -14.133670806884766
v 452.82699584960938 0 -13.720085144042969
v 449.12109375 0 -14.133670806884766
v 450.60345458984375 0 -14.960842132568359
v 450.60345458984375 0 -14.133670806884766
v 450.17059326171875 0 -13.408671379089355
v 446.803466796875 0 -13.408671379089355
v 446.803466796875 0 -17.699695587158203
v 446.803466796875 0 -21.990718841552734
v 446.803466796875 0 -26.281742095947266
v 449.91412353515625 0 -26.281742095947266
v 453.02481079101562 0 -26.281742095947266
v 456.13546752929688 0 -26.281742095947266
v 456.13546752929688 0 -21.857385635375977
v 456.13546752929688 0 -17.433027267456055
v 456.13546752929688 0 -13.008670806884766
v 459.72134399414062 0 -13.008670806884766
v 463.30722045898438 0 -13.008670806884766
v 466.89309692382812 0 -13.008670806884766
v 466.89309692382812 0 -16.354518890380859
v 466.49310302734375 0 -16.354518890380859
v 463.94467163085938 0 -14.960842132568359
v 465.42703247070312 0 -14.960842132568359
v 463.94467163085938 0 -15.78801441192627
v 465.42703247070312 0 -15.78801441192627
v 466.90939331054688 0 -18.269529342651367
v 460.97994995117188 0 -18.269529342651367
v 463.94467163085938 0 -19.923873901367188
v 463.94467163085938 0 -18.269529342651367
v 466.90939331054688 0 -17.442358016967773
v 463.94467163085938 0 -17.442358016967773
v 465.42703247070312 0 -18.269529342651367
v 465.42703247070312 0 -17.442358016967773
v 466.49310302734375 0 -13.408671379089355
v 463.17086791992188 0 -13.408671379089355
v 459.8486328125 0 -13.408671379089355
v 459.8486328125 0 -16.154518127441406
v 462.63119506835938 0 -16.154518127441406
v 465.41375732421875 0 -16.154518127441406
v 465.41375732421875 0 -16.55451774597168
v 464.68585205078125 0 -15.78801441192627
v 462.46231079101562 0 -14.960842132568359
v 460.97994995117188 0 -15.78801441192627
v 462.46231079101562 0 -15.78801441192627
v 462.63119506835938 0 -16.55451774597168
v 459.8486328125 0 -16.55451774597168
v 459.8486328125 0 -19.796926498413086
v 459.8486328125 0 -23.039335250854492
v 459.8486328125 0 -26.281742095947266
v 463.03262329101562 0 -26.281742095947266
v 466.21661376953125 0 -26.281742095947266
v 469.40060424804688 0 -26.281742095947266
v 469.40060424804688 0 -21.857385635375977
v 469.40060424804688 0 -17.433027267456055
v 469.40060424804688 0 -13.008670806884766
v 473.34393310546875 0 -13.008670806884766
v 473.34393310546875 0 -17.433027267456055
v 473.34393310546875 0 -21.857385635375977
v 473.34393310546875 0 -26.281742095947266
v 476.22613525390625 0 -26.281742095947266
v 479.10830688476562 0 -26.281742095947266
v 479.10830688476562 0 -22.922042846679688
v 479.10830688476562 0 -19.562343597412109
v 474.66903686523438 0 -19.562343597412109
v 474.66903686523438 0 -17.716716766357422
v 478.4022216796875 0 -17.716716766357422
v 478.4022216796875 0 -13.408671379089355
v 475.06903076171875 0 -13.408671379089355
v 475.06903076171875 0 -16.297300338745117
v 474.66903686523438 0 -16.297300338745117
v 475.80352783203125 0 -16.61518669128418
v 475.80352783203125 0 -14.960842132568359
v 475.80352783203125 0 -15.78801441192627
v 474.3211669921875 0 -16.61518669128418
v 475.80352783203125 0 -16.201601028442383
v 475.06234741210938 0 -16.61518669128418
v 475.80352783203125 0 -17.442358016967773
v 474.3211669921875 0 -17.442358016967773
v 477.285888671875 0 -14.960842132568359
v 477.285888671875 0 -16.61518669128418
v 477.285888671875 0 -15.78801441192627
v 481.73294067382812 0 -16.61518669128418
v 474.66903686523438 0 -13.008670806884766
v 478.0430908203125 0 -13.008670806884766
v 481.41714477539062 0 -13.008670806884766
v 481.41714477539062 0 -16.297300338745117
v 481.01712036132812 0 -16.297300338745117
v 480.25057983398438 0 -16.61518669128418
v 480.99176025390625 0 -16.61518669128418
v 481.73294067382812 0 -17.442358016967773
v 480.25057983398438 0 -17.442358016967773
v 481.01712036132812 0 -13.408671379089355
v 478.80221557617188 0 -13.408671379089355
v 478.80221557617188 0 -17.716716766357422
v 481.41714477539062 0 -17.716716766357422
v 481.41714477539062 0 -19.562343597412109
v 479.50833129882812 0 -19.562343597412109
v 479.50833129882812 0 -22.922042846679688
v 479.50833129882812 0 -26.281742095947266
v 482.62905883789062 0 -26.281742095947266
v 482.62905883789062 0 -21.857385635375977
v 482.62905883789062 0 -17.433027267456055
v 482.62905883789062 0 -13.008670806884766
v 485.3035888671875 0 -13.008670806884766
v 487.97808837890625 0 -13.008670806884766
v 487.97808837890625 0 -13.408671379089355
v 489.14474487304688 0 -12.892912864685059
v 488.403564453125 0 -12.479327201843262
v 487.66238403320312 0 -12.892912864685059
v 488.403564453125 0 -13.306499481201172
v 488.403564453125 0 -12.892912864685059
v 484.69766235351562 0 -12.479327201843262
v 486.18002319335938 0 -12.479327201843262
v 489.14474487304688 0 -13.720085144042969
v 487.66238403320312 0 -13.720085144042969
v 488.403564453125 0 -14.133670806884766
v 488.403564453125 0 -13.720085144042969
v 486.35482788085938 0 -13.408671379089355
v 486.35482788085938 0 -17.43292236328125
v 489.76995849609375 0 -17.43292236328125
v 489.76995849609375 0 -13.208671569824219
v 490.16998291015625 0 -13.208671569824219
v 489.88592529296875 0 -12.479327201843262
v 489.88592529296875 0 -12.892912864685059
v 490.16998291015625 0 -17.43292236328125
v 494.47183227539062 0 -17.43292236328125
v 494.47183227539062 0 -17.832921981811523
v 495.07415771484375 0 -16.61518669128418
v 495.07415771484375 0 -17.028772354125977
v 494.33297729492188 0 -16.61518669128418
v 493.591796875 0 -17.028772354125977
v 494.33297729492188 0 -17.028772354125977
v 495.07415771484375 0 -14.960842132568359
v 493.591796875 0 -15.78801441192627
v 495.07415771484375 0 -15.78801441192627
v 492.10943603515625 0 -16.61518669128418
v 494.33297729492188 0 -18.269529342651367
v 490.413330078125 0 -17.832921981811523
v 486.35482788085938 0 -17.832921981811523
v 486.35482788085938 0 -20.030109405517578
v 487.91387939453125 0 -20.030109405517578
v 487.91387939453125 0 -20.430110931396484
v 486.35482788085938 0 -20.430110931396484
v 486.35482788085938 0 -23.355926513671875
v 486.35482788085938 0 -26.281742095947266
v 489.19149780273438 0 -26.281742095947266
v 489.19149780273438 0 -23.355926513671875
f 565 566 584 585 586 587 588 589 590 591 592 593 594 595 596 616 617 618 619 620 624 625 626 627 628 640 641 642 643 675 676 677 678 679 690 691 692 693 694 695 707 708 709 710 711 712 713 714 715 729 730 731 732 733 734 735 736 744 745 746 747 748 749 750 751 760 761 762 763 764 765 766 767 778 779 780 787 788 789 790 791 792 820 821 822 823 824 825 826 827 828 829 830 831 832 833 834 835 848 849 850 851 852 853 854 859 860 861 862 863 864 865 866 867 868 869 870 871 872 873 874 875 876 877 878 879 880 881 882 883 884 897 898 899 900 901 906 907 908 909 910 911 912 913 914 915 916 917 918 919 920 932 933 934 935 936 939 940 941 952 953 954 955 956 957 958 959 960 961 28 29 67 68 69 75 76 77 78 79 80 81 86 87 88 93 94 95 96 97 98 99 100 101 102 103 104 105 135 136 137 138 139 161 162 163 164 165 166 167 168 169 170 171 172 173 174 175 176 196 197 198 199 200 201 202 203 204 226 227 228 229 230 231 232 233 234 235 236 237 238 239 240 241 263 264 265 266 267 268 269 270 295 296 297 298 299 300 301 302 303 304 305 306 307 308 309 333 334 335 336 337 343 344 345 346 347 348 349 350 351 352 353 363 388 389 390 391 394 395 396 397 409 410 411 412 449 450 451 452 453 454 471 472 473 474 475 476 477 478 479 480 500 501 502 503 504 505 506 507 519 520 521 522 523 524 525 526 527 543 544 545 546 547 548 549 555 556 557 558 559 560 561 562 563 564
