# Rhino

g object_1
v 39.636676788330078 92.699996948242188 -52.980094909667969
v 39.636676788330078 0 -52.980094909667969
v 47.584327697753906 92.699996948242188 -52.980094909667969
v 47.584327697753906 0 -52.980094909667969
v 47.584327697753906 92.699996948242188 -38.798744201660156
v 47.584327697753906 0 -38.798744201660156
v 39.636676788330078 92.699996948242188 -38.798744201660156
v 39.636676788330078 0 -38.798744201660156
f 3 1 7 5
f 8 2 4 6
f 1 3 4 2
f 3 5 6 4
f 5 7 8 6
f 7 1 2 8
g object_2
v 11.743730545043945 0 -22.897100448608398
v 11.743730545043945 14.350000381469727 -22.897100448608398
v 11.743730545043945 0 -15.095454216003418
v 11.743730545043945 14.350000381469727 -15.095454216003418
v 11.743730545043945 0 -18.99627685546875
v 11.743730545043945 7.1750001907348633 -15.095454216003418
v 11.743730545043945 14.350000381469727 -18.99627685546875
v 11.743730545043945 7.1750001907348633 -22.897100448608398
v 18.053604125976562 0 -15.095454216003418
v 18.053604125976562 14.350000381469727 -15.095454216003418
v 14.898667335510254 0 -15.095454216003418
v 18.053604125976562 7.1750001907348633 -15.095454216003418
v 14.898667335510254 14.350000381469727 -15.095454216003418
v 18.053604125976562 0 -22.897100448608398
v 18.053604125976562 14.350000381469727 -22.897100448608398
v 18.053604125976562 0 -18.99627685546875
v 18.053604125976562 7.1750001907348633 -22.897100448608398
v 18.053604125976562 14.350000381469727 -18.99627685546875
v 14.898667335510254 0 -22.897100448608398
v 14.898667335510254 14.350000381469727 -22.897100448608398
f 16 9 13 11 14 12 15 10
f 14 11 19 17 20 18 21 12
f 20 17 24 22 25 23 26 18
f 25 22 27 9 16 10 28 23
f 13 9 27 22 24 17 19 11
f 28 10 15 12 21 18 26 23
